SplineFontDB: 3.0
FontName: Jost-HeavyItalic
FullName: Jost* 800 Heavy Italic
FamilyName: Jost* Heavy
Weight: Heavy
Copyright: This typeface is licensed under the SIL open font license.
UComments: "2018-6-8: Created with FontForge (http://fontforge.org)"
Version: 003.400
ItalicAngle: -10
UnderlinePosition: -100
UnderlineWidth: 50
Ascent: 800
Descent: 200
InvalidEm: 0
LayerCount: 2
Layer: 0 0 "Back" 1
Layer: 1 0 "Fore" 0
XUID: [1021 69 1495626776 760146]
FSType: 0
OS2Version: 0
OS2_WeightWidthSlopeOnly: 0
OS2_UseTypoMetrics: 0
CreationTime: 1528480336
ModificationTime: 1563288338
PfmFamily: 17
TTFWeight: 800
TTFWidth: 5
LineGap: 100
VLineGap: 0
OS2TypoAscent: 825
OS2TypoAOffset: 0
OS2TypoDescent: -225
OS2TypoDOffset: 0
OS2TypoLinegap: 100
OS2WinAscent: 900
OS2WinAOffset: 0
OS2WinDescent: 300
OS2WinDOffset: 0
HheadAscent: 1030
HheadAOffset: 0
HheadDescent: -350
HheadDOffset: 0
OS2CapHeight: 700
OS2XHeight: 460
OS2Vendor: 'PfEd'
Lookup: 1 0 0 "alt a" { "alt a"  } ['ss01' ('DFLT' <'dflt' > 'latn' <'dflt' > ) ]
Lookup: 1 0 0 "Tabular Numbers lookup" { "Tabular Numbers lookup"  } ['tnum' ('DFLT' <'dflt' > 'grek' <'dflt' > 'latn' <'dflt' > ) ]
Lookup: 258 0 0 "Lets get our kern on" { "kernin like nobodys business" [150,0,4] } ['kern' ('DFLT' <'dflt' > 'latn' <'dflt' > ) ]
MarkAttachClasses: 1
DEI: 91125
KernClass2: 16 14 "kernin like nobodys business"
 43 slash seven V W Wcircumflex uni040E uni0423
 175 quotedbl quotesingle asterisk grave dieresis ordfeminine macron degree acute ordmasculine circumflex breve dotaccent ring tilde quoteleft quoteright quotedblleft quotedblright
 25 nine question F P uni0420
 131 A L backslash Agrave Aacute Acircumflex Atilde Adieresis Aring Amacron Abreve Aogonek Lacute uni013B Lslash uni0410 uni0414 uni041C
 58 three eight B C germandbls uni0411 uni0412 uni0417 uni0421
 29 K X Z uni0416 uni041A uni0425

StartChar: H
Encoding: 72 72 0
Width: 784
VWidth: 0
Flags: HMW
LayerCount: 2
Fore
SplineSet
134 278 m 1
 164 453 l 1
 697 453 l 1
 667 278 l 1
 134 278 l 1
616 700 m 1
 811 700 l 1
 690 0 l 1
 497 0 l 1
 616 700 l 1
160 700 m 1
 354 700 l 1
 234 0 l 1
 41 0 l 1
 160 700 l 1
EndSplineSet
EndChar

StartChar: O
Encoding: 79 79 1
Width: 805
VWidth: 0
Flags: HMW
LayerCount: 2
Fore
SplineSet
266 350 m 0
 251 253 291 161 398 160 c 0
 506 159 588 246 606 350 c 0
 622 448 584 539 474 540 c 0
 366 541 284 454 266 350 c 0
62 350 m 0
 94 561 277 718 493 718 c 0
 707 718 840 555 810 350 c 0
 778 138 599 -27 377 -27 c 0
 159 -27 32 145 62 350 c 0
EndSplineSet
EndChar

StartChar: I
Encoding: 73 73 2
Width: 333
VWidth: 0
Flags: HMW
LayerCount: 2
Fore
SplineSet
160 700 m 1
 358 700 l 1
 238 0 l 1
 41 0 l 1
 160 700 l 1
EndSplineSet
EndChar

StartChar: C
Encoding: 67 67 3
Width: 684
VWidth: 0
Flags: HMW
LayerCount: 2
Fore
SplineSet
273 350 m 0
 256 246 319 170 424 168 c 0
 516 167 582 211 639 256 c 1
 609 50 l 1
 547 10 481 -18 390 -18 c 0
 168 -18 31 141 62 350 c 0
 95 565 276 718 504 718 c 0
 592 718 652 692 708 649 c 1
 677 443 l 1
 636 494 580 532 496 532 c 0
 389 532 292 459 273 350 c 0
EndSplineSet
EndChar

StartChar: E
Encoding: 69 69 4
Width: 600
VWidth: 0
Flags: HMW
LayerCount: 2
Fore
SplineSet
170 0 m 1
 198 158 l 1
 544 158 l 1
 516 0 l 1
 170 0 l 1
263 542 m 1
 290 700 l 1
 636 700 l 1
 609 542 l 1
 263 542 l 1
219 287 m 1
 246 441 l 1
 572 441 l 1
 545 287 l 1
 219 287 l 1
160 700 m 1
 346 700 l 1
 226 0 l 1
 41 0 l 1
 160 700 l 1
EndSplineSet
EndChar

StartChar: F
Encoding: 70 70 6
Width: 552
VWidth: 0
Flags: HMW
LayerCount: 2
Fore
SplineSet
262 533 m 1
 290 700 l 1
 597 700 l 1
 568 533 l 1
 262 533 l 1
215 262 m 1
 242 416 l 1
 539 416 l 1
 512 262 l 1
 215 262 l 1
160 700 m 1
 346 700 l 1
 226 0 l 1
 41 0 l 1
 160 700 l 1
EndSplineSet
EndChar

StartChar: G
Encoding: 71 71 7
Width: 801
VWidth: 0
Flags: HMW
LayerCount: 2
Fore
SplineSet
425 246 m 1
 452 392 l 1
 805 392 l 1
 784 169 641 -27 390 -27 c 0
 169 -27 31 141 62 350 c 0
 95 567 284 718 509 718 c 0
 647 718 741 649 801 546 c 1
 616 462 l 1
 594 512 558 550 492 550 c 0
 380 550 284 466 264 350 c 0
 246 239 295 141 411 141 c 0
 498 141 551 183 585 246 c 1
 425 246 l 1
EndSplineSet
EndChar

StartChar: T
Encoding: 84 84 8
Width: 574
VWidth: 0
Flags: HMW
LayerCount: 2
Fore
SplineSet
62 525 m 1
 93 700 l 1
 668 700 l 1
 638 525 l 1
 447 525 l 1
 357 0 l 1
 164 0 l 1
 254 525 l 1
 62 525 l 1
EndSplineSet
EndChar

StartChar: L
Encoding: 76 76 9
Width: 536
VWidth: 0
Flags: HMW
LayerCount: 2
Fore
SplineSet
161 700 m 1
 354 700 l 1
 263 167 l 1
 538 167 l 1
 509 0 l 1
 41 0 l 1
 161 700 l 1
EndSplineSet
EndChar

StartChar: D
Encoding: 68 68 10
Width: 726
VWidth: 0
Flags: HMW
LayerCount: 2
Fore
SplineSet
160 700 m 1
 362 700 l 1
 242 0 l 1
 41 0 l 1
 160 700 l 1
304 0 m 2
 170 0 l 1
 201 172 l 1
 314 172 l 2
 417 172 510 224 530 350 c 0
 549 471 485 528 385 528 c 2
 260 528 l 1
 290 700 l 1
 412 700 l 2
 632 700 762 557 731 350 c 0
 699 137 530 0 304 0 c 2
EndSplineSet
EndChar

StartChar: Q
Encoding: 81 81 11
Width: 860
VWidth: 0
Flags: HMW
LayerCount: 2
Fore
SplineSet
266 350 m 0
 249 240 304 145 415 144 c 0
 523 143 606 221 625 325 c 0
 643 427 601 539 478 540 c 0
 370 541 284 455 266 350 c 0
62 350 m 0
 94 562 281 718 497 718 c 0
 711 718 839 554 810 350 c 0
 778 138 603 -27 381 -27 c 0
 163 -27 32 145 62 350 c 0
366 300 m 1
 550 300 l 1
 836 -17 l 1
 643 -17 l 1
 366 300 l 1
EndSplineSet
EndChar

StartChar: A
Encoding: 65 65 12
Width: 735
VWidth: 0
Flags: HMW
LayerCount: 2
Fore
SplineSet
181 111 m 1
 211 255 l 1
 563 255 l 1
 543 111 l 1
 181 111 l 1
410 410 m 1
 289 202 l 1
 294 157 l 1
 189 0 l 1
 -34 0 l 1
 467 750 l 1
 712 0 l 1
 498 0 l 1
 450 151 l 1
 465 201 l 1
 410 410 l 1
EndSplineSet
EndChar

StartChar: R
Encoding: 82 82 13
Width: 654
VWidth: 0
Flags: HMW
LayerCount: 2
Fore
SplineSet
282 308 m 1
 475 308 l 1
 625 0 l 1
 406 0 l 1
 282 308 l 1
160 700 m 1
 354 700 l 1
 234 0 l 1
 41 0 l 1
 160 700 l 1
254 534 m 1
 283 700 l 1
 425 700 l 2
 591 700 685 607 667 465 c 0
 649 321 526 231 355 231 c 2
 202 231 l 1
 228 380 l 1
 355 380 l 2
 410 380 456 408 465 457 c 0
 473 504 443 534 390 534 c 2
 254 534 l 1
EndSplineSet
EndChar

StartChar: V
Encoding: 86 86 14
Width: 735
VWidth: 0
Flags: HMW
LayerCount: 2
Fore
SplineSet
399 326 m 1
 603 700 l 1
 834 700 l 1
 345 -50 l 1
 88 700 l 1
 311 700 l 1
 399 326 l 1
EndSplineSet
EndChar

StartChar: M
Encoding: 77 77 15
Width: 889
VWidth: 0
Flags: HMW
LayerCount: 2
Fore
SplineSet
301 318 m 1
 208 0 l 1
 1 0 l 1
 246 735 l 1
 472 336 l 1
 841 740 l 1
 833 0 l 1
 628 0 l 1
 645 312 l 1
 431 64 l 1
 301 318 l 1
EndSplineSet
EndChar

StartChar: W
Encoding: 87 87 16
Width: 1056
VWidth: 0
Flags: HMW
LayerCount: 2
Fore
SplineSet
748 322 m 1
 915 700 l 1
 1149 700 l 1
 730 -45 l 1
 566 337 l 1
 281 -46 l 1
 93 700 l 1
 321 700 l 1
 371 325 l 1
 624 738 l 1
 748 322 l 1
EndSplineSet
EndChar

StartChar: N
Encoding: 78 78 17
Width: 775
VWidth: 0
Flags: HMW
LayerCount: 2
Fore
SplineSet
615 700 m 1
 801 700 l 1
 676 -33 l 1
 288 354 l 1
 226 0 l 1
 41 0 l 1
 166 733 l 1
 554 346 l 1
 615 700 l 1
EndSplineSet
EndChar

StartChar: a
Encoding: 97 97 18
Width: 612
VWidth: 0
Flags: HMW
LayerCount: 2
Fore
SplineSet
442 460 m 1
 615 460 l 1
 535 0 l 1
 364 0 l 1
 442 460 l 1
41 230 m 0
 59 368 167 470 287 470 c 0
 411 470 463 356 447 230 c 0
 429 98 339 -10 216 -10 c 0
 95 -10 25 97 41 230 c 0
221 230 m 0
 213 179 238 128 291 127 c 0
 341 126 393 174 402 230 c 0
 410 282 382 331 334 333 c 0
 280 335 230 285 221 230 c 0
EndSplineSet
Substitution2: "alt a" a.alt
EndChar

StartChar: X
Encoding: 88 88 19
Width: 705
VWidth: 0
Flags: HMW
LayerCount: 2
Fore
SplineSet
541 700 m 1
 785 700 l 1
 511 352 l 1
 686 0 l 1
 452 0 l 1
 373 210 l 1
 225 0 l 1
 -19 0 l 1
 277 360 l 1
 118 700 l 1
 353 700 l 1
 417 518 l 1
 541 700 l 1
EndSplineSet
EndChar

StartChar: K
Encoding: 75 75 20
Width: 720
VWidth: 0
Flags: HMW
LayerCount: 2
Fore
SplineSet
160 700 m 1
 363 700 l 1
 242 0 l 1
 41 0 l 1
 160 700 l 1
575 700 m 1
 807 700 l 1
 475 368 l 1
 695 0 l 1
 468 0 l 1
 249 370 l 1
 575 700 l 1
EndSplineSet
EndChar

StartChar: Y
Encoding: 89 89 21
Width: 670
VWidth: 0
Flags: HMW
LayerCount: 2
Fore
SplineSet
544 700 m 1
 771 700 l 1
 455 275 l 1
 408 0 l 1
 210 0 l 1
 260 283 l 1
 90 700 l 1
 309 700 l 1
 385 460 l 1
 544 700 l 1
EndSplineSet
EndChar

StartChar: B
Encoding: 66 66 22
Width: 676
VWidth: 0
Flags: HMW
LayerCount: 2
Fore
SplineSet
240 341 m 1
 255 424 l 1
 361 424 l 2
 409 424 448 447 455 490 c 0
 462 531 436 551 391 551 c 2
 330 551 l 1
 259 149 l 1
 331 149 l 2
 384 150 440 166 449 224 c 0
 457 275 414 290 365 291 c 2
 231 291 l 1
 251 398 l 1
 398 398 l 2
 525 398 664 337 644 194 c 0
 624 53 496 0 341 0 c 2
 41 0 l 1
 161 700 l 1
 431 700 l 2
 558 700 680 644 661 520 c 0
 643 399 516 341 381 341 c 2
 240 341 l 1
EndSplineSet
EndChar

StartChar: Z
Encoding: 90 90 23
Width: 624
VWidth: 0
Flags: HMW
LayerCount: 2
Fore
SplineSet
123 525 m 1
 153 700 l 1
 710 700 l 1
 310 167 l 1
 578 167 l 1
 548 0 l 1
 -25 0 l 1
 369 524 l 1
 123 525 l 1
EndSplineSet
EndChar

StartChar: o
Encoding: 111 111 24
Width: 584
VWidth: 0
Flags: HMW
LayerCount: 2
Fore
SplineSet
47 230 m 0
 66 374 194 471 343 471 c 0
 489 471 594 371 576 230 c 0
 557 86 428 -10 279 -10 c 0
 133 -10 29 89 47 230 c 0
223 230 m 0
 216 178 241 132 292 131 c 0
 344 130 391 175 399 230 c 0
 406 282 381 328 330 329 c 0
 278 330 231 285 223 230 c 0
EndSplineSet
EndChar

StartChar: J
Encoding: 74 74 25
Width: 347
VWidth: 0
Flags: HMW
LayerCount: 2
Fore
SplineSet
-112 -51 m 1
 -92 -67 -65 -84 -38 -83 c 0
 -2 -82 32 -51 39 -4 c 2
 161 700 l 1
 374 700 l 1
 246 -52 l 2
 224 -187 101 -245 -33 -245 c 0
 -111 -245 -181 -218 -235 -185 c 1
 -112 -51 l 1
EndSplineSet
EndChar

StartChar: t
Encoding: 116 116 26
Width: 332
VWidth: 0
Flags: HMW
LayerCount: 2
Fore
SplineSet
55 460 m 1
 382 460 l 1
 357 319 l 1
 30 319 l 1
 55 460 l 1
163 620 m 1
 328 620 l 1
 221 0 l 1
 57 0 l 1
 163 620 l 1
EndSplineSet
EndChar

StartChar: d
Encoding: 100 100 27
Width: 612
VWidth: 0
Flags: HMW
LayerCount: 2
Fore
SplineSet
496 780 m 1
 669 780 l 1
 535 0 l 1
 363 0 l 1
 496 780 l 1
41 230 m 0
 59 368 167 470 287 470 c 0
 411 470 463 356 447 230 c 0
 429 98 339 -10 216 -10 c 0
 95 -10 25 97 41 230 c 0
221 230 m 0
 213 179 238 128 291 127 c 0
 341 126 393 174 402 230 c 0
 410 282 382 331 334 333 c 0
 280 335 230 285 221 230 c 0
EndSplineSet
EndChar

StartChar: l
Encoding: 108 108 28
Width: 274
VWidth: 0
Flags: HMW
LayerCount: 2
Fore
SplineSet
157 780 m 1
 331 780 l 1
 197 0 l 1
 24 0 l 1
 157 780 l 1
EndSplineSet
EndChar

StartChar: i
Encoding: 105 105 29
Width: 272
VWidth: 0
Flags: HMW
LayerCount: 2
Fore
SplineSet
118 627 m 0
 118 681 162 717 217 717 c 0
 272 717 315 681 315 627 c 0
 315 573 272 536 217 536 c 0
 162 536 118 573 118 627 c 0
104 460 m 1
 271 460 l 1
 192 0 l 1
 26 0 l 1
 104 460 l 1
EndSplineSet
EndChar

StartChar: r
Encoding: 114 114 30
Width: 423
VWidth: 0
Flags: HMW
LayerCount: 2
Fore
SplineSet
272 460 m 1
 193 0 l 1
 24 0 l 1
 103 460 l 1
 272 460 l 1
375 282 m 1
 362 296 347 308 324 308 c 0
 277 309 235 262 228 210 c 1
 211 281 l 1
 228 377 310 472 390 472 c 0
 423 472 451 452 468 429 c 1
 375 282 l 1
EndSplineSet
EndChar

StartChar: c
Encoding: 99 99 31
Width: 483
VWidth: 0
Flags: HMW
LayerCount: 2
Fore
SplineSet
222 230 m 0
 213 170 252 128 311 126 c 0
 363 125 411 152 446 188 c 1
 425 26 l 1
 387 4 344 -10 283 -10 c 0
 135 -10 27 87 46 230 c 0
 65 375 194 470 347 470 c 0
 407 470 448 455 485 435 c 1
 463 272 l 1
 437 312 395 334 351 334 c 0
 286 334 232 288 222 230 c 0
EndSplineSet
EndChar

StartChar: b
Encoding: 98 98 32
Width: 612
VWidth: 0
Flags: HMW
LayerCount: 2
Fore
SplineSet
330 780 m 1
 196 0 l 1
 23 0 l 1
 156 780 l 1
 330 780 l 1
597 230 m 0
 579 92 470 -10 350 -10 c 0
 226 -10 175 104 191 230 c 0
 209 362 300 470 422 470 c 0
 543 470 613 363 597 230 c 0
417 230 m 0
 425 281 399 332 346 333 c 0
 296 334 244 286 235 230 c 0
 227 178 255 129 303 127 c 0
 357 125 408 175 417 230 c 0
EndSplineSet
EndChar

StartChar: p
Encoding: 112 112 33
Width: 612
VWidth: 0
Flags: HMW
LayerCount: 2
Fore
SplineSet
158 -220 m 1
 -15 -220 l 1
 102 460 l 1
 275 460 l 1
 158 -220 l 1
597 230 m 0
 579 87 471 -19 349 -18 c 0
 218 -17 183 105 199 230 c 0
 217 362 295 478 423 478 c 0
 545 478 613 367 597 230 c 0
417 231 m 0
 425 283 396 323 345 325 c 0
 296 327 243 285 235 229 c 0
 227 176 256 137 304 135 c 0
 357 133 409 177 417 231 c 0
EndSplineSet
EndChar

StartChar: q
Encoding: 113 113 34
Width: 612
VWidth: 0
Flags: HMW
LayerCount: 2
Fore
SplineSet
325 -220 m 1
 441 460 l 1
 615 460 l 1
 498 -220 l 1
 325 -220 l 1
41 230 m 0
 59 373 166 479 288 478 c 0
 419 477 455 355 439 230 c 0
 421 98 343 -18 215 -18 c 0
 93 -18 25 93 41 230 c 0
221 229 m 0
 213 177 242 137 293 135 c 0
 342 133 394 175 402 231 c 0
 410 284 381 323 333 325 c 0
 280 327 229 283 221 229 c 0
EndSplineSet
EndChar

StartChar: h
Encoding: 104 104 35
Width: 564
VWidth: 0
Flags: HMW
LayerCount: 2
Fore
SplineSet
331 780 m 1
 197 0 l 1
 24 0 l 1
 157 780 l 1
 331 780 l 1
364 280 m 2
 368 316 366 350 325 354 c 0
 283 358 254 319 245 280 c 1
 217 281 l 1
 235 384 292 478 409 479 c 0
 523 480 553 407 538 307 c 1
 487 0 l 1
 314 0 l 1
 364 280 l 2
EndSplineSet
EndChar

StartChar: n
Encoding: 110 110 36
Width: 572
VWidth: 0
Flags: HMW
LayerCount: 2
Fore
SplineSet
276 460 m 1
 197 0 l 1
 24 0 l 1
 103 460 l 1
 276 460 l 1
364 280 m 2
 368 316 366 350 325 354 c 0
 283 358 254 320 245 281 c 1
 216 273 l 1
 234 376 290 470 407 471 c 0
 520 472 561 398 546 298 c 1
 495 0 l 1
 314 0 l 1
 364 280 l 2
EndSplineSet
EndChar

StartChar: m
Encoding: 109 109 37
Width: 808
VWidth: 0
Flags: HMW
LayerCount: 2
Fore
SplineSet
337 280 m 2
 340 314 340 350 305 354 c 0
 270 358 243 319 236 281 c 1
 208 273 l 1
 226 375 282 470 394 471 c 0
 502 472 523 404 511 307 c 2
 459 0 l 1
 286 0 l 1
 337 280 l 2
268 460 m 1
 189 0 l 1
 24 0 l 1
 103 460 l 1
 268 460 l 1
781 298 m 2
 731 0 l 1
 557 0 l 1
 608 280 l 2
 611 314 611 350 576 354 c 0
 541 358 514 319 507 281 c 1
 453 273 l 1
 473 376 551 471 665 471 c 0
 774 471 793 395 781 298 c 2
EndSplineSet
EndChar

StartChar: k
Encoding: 107 107 38
Width: 602
VWidth: 0
Flags: HMW
LayerCount: 2
Fore
SplineSet
156 780 m 1
 322 780 l 1
 188 0 l 1
 23 0 l 1
 156 780 l 1
422 460 m 1
 632 460 l 1
 403 266 l 1
 565 0 l 1
 373 0 l 1
 205 275 l 1
 422 460 l 1
EndSplineSet
EndChar

StartChar: u
Encoding: 117 117 39
Width: 572
VWidth: 0
Flags: HMW
LayerCount: 2
Fore
SplineSet
322 0 m 1
 401 460 l 1
 574 460 l 1
 495 0 l 1
 322 0 l 1
233 180 m 1
 230 143 231 110 272 106 c 0
 314 102 344 140 353 179 c 1
 381 187 l 1
 363 84 307 -10 190 -11 c 0
 77 -12 39 61 52 162 c 1
 103 460 l 1
 284 460 l 1
 233 180 l 1
EndSplineSet
EndChar

StartChar: e
Encoding: 101 101 40
Width: 574
VWidth: 0
Flags: HMW
LayerCount: 2
Fore
SplineSet
137 194 m 1
 150 282 l 1
 390 282 l 1
 389 324 372 358 328 358 c 0
 270 358 236 309 225 251 c 1
 219 230 l 1
 211 162 232 114 287 111 c 0
 334 109 371 133 396 162 c 1
 550 130 l 1
 492 46 408 -10 284 -10 c 0
 122 -10 28 89 47 230 c 0
 49 247 53 263 58 279 c 0
 94 395 198 470 342 470 c 0
 497 470 580 379 563 238 c 0
 561 226 559 211 556 194 c 1
 137 194 l 1
EndSplineSet
EndChar

StartChar: g
Encoding: 103 103 41
Width: 604
VWidth: 0
Flags: HMW
LayerCount: 2
Fore
SplineSet
4 -34 m 1
 167 -35 l 1
 171 -82 193 -104 241 -105 c 0
 306 -106 354 -56 364 10 c 2
 441 460 l 1
 607 460 l 1
 530 10 l 2
 504 -153 391 -242 237 -242 c 0
 77 -242 6 -163 4 -34 c 1
42 239 m 0
 60 377 168 470 287 470 c 0
 410 470 464 365 448 238 c 0
 431 107 341 7 219 7 c 0
 100 7 26 106 42 239 c 0
222 238 m 0
 214 186 243 146 294 144 c 0
 343 142 396 183 404 239 c 0
 412 292 382 333 334 333 c 0
 277 333 230 292 222 238 c 0
EndSplineSet
EndChar

StartChar: f
Encoding: 102 102 42
Width: 351
VWidth: 0
Flags: HMW
LayerCount: 2
Fore
SplineSet
61 460 m 1
 395 460 l 1
 371 319 l 1
 36 319 l 1
 61 460 l 1
406 619 m 1
 395 632 383 645 366 645 c 0
 335 645 312 616 307 582 c 2
 206 0 l 1
 41 0 l 1
 148 630 l 2
 166 729 240 799 356 798 c 0
 420 798 458 770 488 743 c 1
 406 619 l 1
EndSplineSet
EndChar

StartChar: s
Encoding: 115 115 43
Width: 458
VWidth: 0
Flags: HMW
LayerCount: 2
Fore
SplineSet
84 179 m 1
 146 127 194 99 232 102 c 0
 250 103 270 115 272 132 c 0
 276 166 229 176 192 190 c 0
 128 215 74 256 84 337 c 0
 96 425 179 470 276 470 c 0
 352 470 415 443 473 408 c 1
 408 293 l 1
 373 327 328 355 287 355 c 0
 264 355 243 346 240 330 c 0
 233 296 296 286 336 270 c 0
 399 245 450 205 442 129 c 0
 430 27 354 -21 249 -22 c 0
 155 -23 78 12 8 61 c 1
 84 179 l 1
EndSplineSet
EndChar

StartChar: y
Encoding: 121 121 44
Width: 530
VWidth: 0
Flags: HMW
LayerCount: 2
Fore
SplineSet
598 460 m 1
 190 -220 l 1
 16 -220 l 1
 167 33 l 1
 40 460 l 1
 222 460 l 1
 304 87 l 1
 212 89 l 1
 420 460 l 1
 598 460 l 1
EndSplineSet
EndChar

StartChar: w
Encoding: 119 119 45
Width: 763
VWidth: 0
Flags: HMW
LayerCount: 2
Fore
SplineSet
42 460 m 1
 215 460 l 1
 264 249 l 1
 437 497 l 1
 525 247 l 1
 648 460 l 1
 831 460 l 1
 503 -29 l 1
 395 224 l 1
 200 -29 l 1
 42 460 l 1
EndSplineSet
EndChar

StartChar: v
Encoding: 118 118 46
Width: 537
VWidth: 0
Flags: HMW
LayerCount: 2
Fore
SplineSet
50 460 m 1
 231 460 l 1
 287 231 l 1
 416 460 l 1
 600 460 l 1
 244 -62 l 1
 50 460 l 1
EndSplineSet
EndChar

StartChar: x
Encoding: 120 120 47
Width: 550
VWidth: 0
Flags: HMW
LayerCount: 2
Fore
SplineSet
405 460 m 1
 600 460 l 1
 384 232 l 1
 533 0 l 1
 349 0 l 1
 279 123 l 1
 181 0 l 1
 -22 0 l 1
 206 245 l 1
 65 460 l 1
 257 460 l 1
 314 353 l 1
 405 460 l 1
EndSplineSet
EndChar

StartChar: z
Encoding: 122 122 48
Width: 525
VWidth: 0
Flags: HMW
LayerCount: 2
Fore
SplineSet
255 303 m 1
 82 303 l 1
 110 460 l 1
 568 460 l 1
 310 157 l 1
 478 157 l 1
 451 0 l 1
 -17 0 l 1
 255 303 l 1
EndSplineSet
EndChar

StartChar: j
Encoding: 106 106 49
Width: 269
VWidth: 0
Flags: HMW
LayerCount: 2
Fore
SplineSet
116 627 m 0
 116 681 160 717 215 717 c 0
 270 717 314 681 314 627 c 0
 314 573 270 536 215 536 c 0
 160 536 116 573 116 627 c 0
-80 -66 m 1
 -69 -80 -54 -91 -36 -91 c 0
 -5 -91 15 -62 19 -29 c 2
 104 460 l 1
 269 460 l 1
 178 -77 l 2
 160 -176 88 -245 -28 -244 c 0
 -92 -244 -132 -216 -162 -189 c 1
 -80 -66 l 1
EndSplineSet
EndChar

StartChar: P
Encoding: 80 80 50
Width: 627
VWidth: 0
Flags: HMW
LayerCount: 2
Fore
SplineSet
160 700 m 1
 354 700 l 1
 234 0 l 1
 41 0 l 1
 160 700 l 1
256 542 m 1
 283 700 l 1
 409 700 l 1
 576 698 666 613 651 465 c 0
 636 315 512 233 340 231 c 1
 202 231 l 1
 230 389 l 1
 356 389 l 1
 411 389 457 417 466 466 c 0
 474 513 444 542 391 542 c 2
 256 542 l 1
EndSplineSet
EndChar

StartChar: U
Encoding: 85 85 51
Width: 702
VWidth: 0
Flags: HMW
LayerCount: 2
Fore
SplineSet
156 700 m 1
 349 700 l 1
 270 247 l 2
 263 192 280 141 344 140 c 0
 411 139 450 189 461 247 c 1
 540 700 l 1
 733 700 l 1
 653 230 l 2
 625 58 491 -35 324 -35 c 0
 164 -35 53 59 76 230 c 1
 156 700 l 1
EndSplineSet
EndChar

StartChar: S
Encoding: 83 83 52
Width: 630
VWidth: 0
Flags: HMW
LayerCount: 2
Fore
SplineSet
175 259 m 1
 209 191 245 143 315 143 c 0
 356 143 392 160 400 197 c 0
 411 248 345 265 287 290 c 0
 208 326 116 391 131 514 c 0
 151 641 280 718 423 718 c 0
 549 718 621 647 656 562 c 1
 503 481 l 1
 480 525 451 554 404 554 c 0
 368 554 333 536 327 507 c 0
 316 461 406 439 462 418 c 0
 560 379 617 305 603 198 c 0
 582 52 448 -27 300 -27 c 0
 174 -27 66 53 30 164 c 1
 175 259 l 1
EndSplineSet
EndChar

StartChar: at
Encoding: 64 64 53
Width: 747
VWidth: 0
Flags: HMW
LayerCount: 2
Fore
SplineSet
350 320 m 0
 347 293 348 264 369 260 c 0
 402 253 443 321 448 362 c 0
 450 391 450 418 428 422 c 0
 392 429 355 360 350 320 c 0
217 312 m 0
 230 426 309 532 401 530 c 0
 477 529 509 445 500 370 c 0
 488 256 414 152 322 152 c 0
 235 152 207 228 217 312 c 0
40 320 m 0
 73 539 262 727 494 727 c 0
 698 727 800 556 774 390 c 0
 757 244 662 139 546 142 c 0
 472 144 439 197 446 262 c 1
 438 304 l 1
 493 520 l 1
 618 520 l 1
 563 314 l 2
 561 306 558 296 556 287 c 0
 554 270 554 253 569 250 c 0
 602 240 647 317 652 390 c 0
 670 504 626 616 486 616 c 0
 315 616 190 482 163 320 c 0
 141 186 196 82 351 80 c 0
 419 79 477 99 535 122 c 1
 559 20 l 1
 493 -12 416 -31 327 -31 c 0
 111 -29 12 131 40 320 c 0
EndSplineSet
EndChar

StartChar: period
Encoding: 46 46 54
Width: 319
VWidth: 0
Flags: HMW
LayerCount: 2
Fore
SplineSet
44 77 m 0
 44 134 87 181 150 181 c 0
 213 181 257 134 257 77 c 0
 257 20 213 -27 150 -27 c 0
 87 -27 44 20 44 77 c 0
EndSplineSet
EndChar

StartChar: comma
Encoding: 44 44 55
Width: 318
VWidth: 0
Flags: HMW
LayerCount: 2
Fore
SplineSet
96 109 m 1
 266 74 l 1
 98 -173 l 1
 -33 -147 l 1
 96 109 l 1
EndSplineSet
EndChar

StartChar: colon
Encoding: 58 58 56
Width: 319
VWidth: 0
Flags: HMW
LayerCount: 2
Fore
SplineSet
39 77 m 0
 39 134 83 181 146 181 c 0
 209 181 253 134 253 77 c 0
 253 20 209 -27 146 -27 c 0
 83 -27 39 20 39 77 c 0
102 448 m 0
 102 505 146 553 209 553 c 0
 272 553 316 505 316 448 c 0
 316 391 272 344 209 344 c 0
 146 344 102 391 102 448 c 0
EndSplineSet
EndChar

StartChar: semicolon
Encoding: 59 59 57
Width: 400
VWidth: 0
Flags: HMW
LayerCount: 2
Fore
SplineSet
158 440 m 0
 158 497 202 544 265 544 c 0
 328 544 372 497 372 440 c 0
 372 383 328 336 265 336 c 0
 202 336 158 383 158 440 c 0
125 109 m 1
 294 74 l 1
 125 -173 l 1
 -5 -147 l 1
 125 109 l 1
EndSplineSet
EndChar

StartChar: quotedbl
Encoding: 34 34 58
Width: 518
VWidth: 0
Flags: HMW
LayerCount: 2
Fore
SplineSet
183 700 m 1
 364 700 l 1
 206 376 l 1
 92 375 l 1
 183 700 l 1
398 700 m 1
 579 700 l 1
 421 376 l 1
 307 375 l 1
 398 700 l 1
EndSplineSet
EndChar

StartChar: exclam
Encoding: 33 33 59
Width: 346
VWidth: 0
Flags: HMW
LayerCount: 2
Fore
SplineSet
161 700 m 1
 372 700 l 1
 259 241 l 1
 116 241 l 1
 161 700 l 1
53 69 m 0
 53 126 97 165 160 165 c 0
 223 165 266 126 266 69 c 0
 266 12 223 -28 160 -28 c 0
 97 -28 53 12 53 69 c 0
EndSplineSet
EndChar

StartChar: quotesingle
Encoding: 39 39 60
Width: 303
VWidth: 0
Flags: HMW
LayerCount: 2
Fore
SplineSet
183 700 m 1
 364 700 l 1
 206 376 l 1
 92 375 l 1
 183 700 l 1
EndSplineSet
EndChar

StartChar: numbersign
Encoding: 35 35 61
Width: 666
VWidth: 0
Flags: HMW
LayerCount: 2
Fore
SplineSet
116 403 m 1
 137 542 l 1
 700 542 l 1
 676 403 l 1
 525 403 l 1
 494 411 l 1
 291 411 l 1
 260 403 l 1
 116 403 l 1
33 163 m 1
 57 302 l 1
 193 302 l 1
 228 294 l 1
 460 294 l 1
 494 302 l 1
 621 302 l 1
 596 163 l 1
 33 163 l 1
554 700 m 1
 706 700 l 1
 421 0 l 1
 270 0 l 1
 361 223 l 1
 381 250 l 1
 464 454 l 1
 469 490 l 1
 554 700 l 1
311 700 m 1
 462 700 l 1
 376 490 l 1
 353 453 l 1
 271 253 l 1
 269 226 l 1
 177 0 l 1
 27 0 l 1
 311 700 l 1
EndSplineSet
EndChar

StartChar: hyphen
Encoding: 45 45 62
Width: 219
VWidth: 0
Flags: HMW
LayerCount: 2
Fore
SplineSet
4 163 m 1
 30 312 l 1
 243 312 l 1
 217 163 l 1
 4 163 l 1
EndSplineSet
EndChar

StartChar: dollar
Encoding: 36 36 63
Width: 615
VWidth: 0
Flags: HMW
LayerCount: 2
Fore
SplineSet
364 818 m 1
 502 818 l 1
 463 627 l 1
 341 627 l 1
 364 818 l 1
255 66 m 1
 377 66 l 1
 357 -112 l 1
 219 -112 l 1
 255 66 l 1
499 481 m 1
 477 530 449 571 402 571 c 0
 362 571 331 547 325 517 c 0
 313 460 399 443 460 419 c 0
 556 381 618 305 605 198 c 0
 585 60 452 -11 298 -10 c 0
 175 -9 73 66 32 164 c 1
 175 259 l 1
 210 191 248 143 318 143 c 0
 362 143 396 162 402 199 c 0
 411 247 345 267 286 291 c 0
 207 326 113 396 127 516 c 0
 144 631 270 710 408 710 c 0
 538 710 607 649 651 562 c 1
 499 481 l 1
EndSplineSet
EndChar

StartChar: bar
Encoding: 124 124 64
Width: 365
VWidth: 0
Flags: HMW
LayerCount: 2
Fore
SplineSet
200 785 m 1
 375 785 l 1
 221 -215 l 1
 45 -215 l 1
 200 785 l 1
EndSplineSet
EndChar

StartChar: zero
Encoding: 48 48 65
Width: 661
VWidth: 0
Flags: HMW
LayerCount: 2
Fore
SplineSet
255 350 m 0
 246 264 246 155 325 153 c 0
 405 151 459 253 472 350 c 0
 481 436 481 545 402 547 c 0
 322 549 268 447 255 350 c 0
70 350 m 0
 98 554 231 714 421 714 c 0
 618 714 683 544 658 350 c 0
 630 145 502 -14 307 -14 c 0
 116 -14 45 156 70 350 c 0
EndSplineSet
Substitution2: "Tabular Numbers lookup" uniFF10
EndChar

StartChar: one
Encoding: 49 49 66
Width: 511
VWidth: 0
Flags: HMW
LayerCount: 2
Fore
SplineSet
113 476 m 1
 143 644 l 1
 515 715 l 1
 392 0 l 1
 207 0 l 1
 295 517 l 1
 113 476 l 1
EndSplineSet
Substitution2: "Tabular Numbers lookup" uniFF11
EndChar

StartChar: two
Encoding: 50 50 67
Width: 663
VWidth: 0
Flags: HMW
LayerCount: 2
Fore
SplineSet
-2 0 m 1
 343 314 l 2
 398 367 455 410 464 472 c 0
 469 511 450 547 400 548 c 0
 340 550 302 492 290 435 c 1
 100 436 l 1
 126 587 240 715 422 715 c 0
 576 715 684 610 665 486 c 0
 654 408 602 347 539 299 c 2
 382 180 l 1
 639 179 l 1
 611 0 l 1
 -2 0 l 1
EndSplineSet
Substitution2: "Tabular Numbers lookup" uniFF12
EndChar

StartChar: four
Encoding: 52 52 68
Width: 713
VWidth: 0
Flags: HMW
LayerCount: 2
Fore
SplineSet
1 120 m 1
 500 699 l 1
 656 700 l 1
 536 0 l 1
 334 0 l 1
 364 176 l 1
 390 187 l 1
 431 428 l 1
 276 257 l 1
 524 257 l 1
 546 285 l 1
 692 285 l 1
 663 119 l 1
 1 120 l 1
EndSplineSet
Substitution2: "Tabular Numbers lookup" uniFF14
EndChar

StartChar: slash
Encoding: 47 47 69
Width: 618
VWidth: 0
Flags: HMW
LayerCount: 2
Fore
SplineSet
532 700 m 1
 702 700 l 1
 135 -150 l 1
 -42 -149 l 1
 532 700 l 1
EndSplineSet
EndChar

StartChar: backslash
Encoding: 92 92 70
Width: 538
VWidth: 0
Flags: HMW
LayerCount: 2
Fore
SplineSet
108 700 m 1
 268 700 l 1
 497 0 l 1
 337 0 l 1
 108 700 l 1
EndSplineSet
EndChar

StartChar: eight
Encoding: 56 56 71
Width: 633
VWidth: 0
Flags: HMW
LayerCount: 2
Fore
SplineSet
136 532 m 0
 154 655 280 718 407 718 c 0
 529 718 643 654 625 530 c 0
 607 402 471 338 353 338 c 0
 240 338 118 404 136 532 c 0
313 512 m 0
 308 477 325 444 362 444 c 0
 404 444 436 476 442 513 c 0
 447 548 429 581 392 581 c 0
 349 581 319 549 313 512 c 0
54 190 m 0
 74 334 228 398 352 398 c 0
 469 398 611 334 591 190 c 0
 571 57 428 -18 292 -18 c 0
 162 -18 34 57 54 190 c 0
251 220 m 0
 244 176 266 140 310 140 c 0
 359 140 398 175 405 222 c 0
 411 260 386 297 344 297 c 0
 296 297 259 261 251 220 c 0
EndSplineSet
Substitution2: "Tabular Numbers lookup" uniFF18
EndChar

StartChar: nine
Encoding: 57 57 72
Width: 677
VWidth: 0
Flags: HMW
LayerCount: 2
Fore
SplineSet
493 450 m 0
 501 506 469 551 411 552 c 0
 352 553 299 507 290 449 c 0
 282 394 314 346 372 345 c 0
 431 344 484 391 493 450 c 0
342 4 m 1
 93 4 l 1
 352 244 l 1
 402 265 l 1
 363 235 330 222 283 222 c 0
 171 222 85 322 99 449 c 0
 120 619 266 718 428 718 c 0
 587 718 705 616 684 449 c 0
 672 366 620 299 563 238 c 2
 342 4 l 1
EndSplineSet
Substitution2: "Tabular Numbers lookup" uniFF19
EndChar

StartChar: three
Encoding: 51 51 73
Width: 625
VWidth: 0
Flags: HMW
LayerCount: 2
Fore
SplineSet
308 337 m 1
 319 419 l 1
 380 423 450 452 456 505 c 0
 459 537 440 559 400 560 c 0
 351 561 318 525 307 485 c 1
 129 486 l 1
 153 617 262 714 415 714 c 0
 557 714 665 637 647 517 c 0
 626 377 462 338 308 337 c 1
304 -18 m 0
 139 -17 48 98 59 234 c 1
 247 234 l 1
 244 175 271 138 326 136 c 0
 376 135 422 161 429 212 c 0
 441 272 382 298 303 300 c 1
 316 395 l 1
 478 393 638 347 616 193 c 0
 597 60 465 -19 304 -18 c 0
EndSplineSet
Substitution2: "Tabular Numbers lookup" uniFF13
EndChar

StartChar: five
Encoding: 53 53 74
Width: 650
VWidth: 0
Flags: HMW
LayerCount: 2
Fore
SplineSet
631 221 m 0
 611 63 454 -13 313 -14 c 0
 200 -14 111 18 37 60 c 1
 121 227 l 1
 174 188 232 165 283 165 c 0
 351 165 415 187 424 247 c 0
 432 305 369 323 316 324 c 0
 255 325 178 312 109 287 c 1
 267 700 l 1
 687 700 l 1
 660 530 l 1
 384 530 l 1
 327 425 l 1
 365 441 408 448 452 448 c 0
 568 446 646 350 631 221 c 0
EndSplineSet
Substitution2: "Tabular Numbers lookup" uniFF15
EndChar

StartChar: six
Encoding: 54 54 75
Width: 677
VWidth: 0
Flags: HMW
LayerCount: 2
Fore
SplineSet
259 250 m 0
 251 194 283 149 341 148 c 0
 400 147 454 193 463 251 c 0
 471 306 439 354 381 355 c 0
 322 356 268 309 259 250 c 0
410 695 m 1
 661 695 l 1
 400 456 l 1
 351 435 l 1
 390 465 422 478 469 478 c 0
 581 478 667 378 653 251 c 0
 632 81 486 -18 324 -18 c 0
 165 -18 48 84 69 251 c 0
 81 334 132 401 189 462 c 2
 410 695 l 1
EndSplineSet
Substitution2: "Tabular Numbers lookup" uniFF16
EndChar

StartChar: seven
Encoding: 55 55 76
Width: 608
VWidth: 0
Flags: HMW
LayerCount: 2
Fore
SplineSet
89 517 m 1
 119 700 l 1
 703 700 l 1
 265 0 l 1
 52 0 l 1
 389 517 l 1
 89 517 l 1
EndSplineSet
Substitution2: "Tabular Numbers lookup" uniFF17
EndChar

StartChar: plus
Encoding: 43 43 77
Width: 672
VWidth: 0
Flags: HMW
LayerCount: 2
Fore
SplineSet
67 190 m 1
 96 357 l 1
 645 357 l 1
 616 190 l 1
 67 190 l 1
315 553 m 1
 493 553 l 1
 396 -7 l 1
 219 -7 l 1
 315 553 l 1
EndSplineSet
EndChar

StartChar: equal
Encoding: 61 61 78
Width: 610
VWidth: 0
Flags: HMW
LayerCount: 2
Fore
SplineSet
34 66 m 1
 60 215 l 1
 572 215 l 1
 545 66 l 1
 34 66 l 1
72 290 m 1
 98 439 l 1
 610 439 l 1
 584 290 l 1
 72 290 l 1
EndSplineSet
EndChar

StartChar: percent
Encoding: 37 37 79
Width: 943
VWidth: 0
Flags: HMW
LayerCount: 2
Fore
SplineSet
80 530 m 0
 95 634 192 722 302 722 c 0
 411 722 483 630 469 529 c 0
 454 425 357 337 247 337 c 0
 138 337 66 429 80 530 c 0
218 528 m 0
 215 501 232 473 266 473 c 0
 297 473 326 502 330 531 c 0
 333 558 317 586 283 586 c 0
 252 586 222 557 218 528 c 0
541 172 m 0
 556 276 653 364 763 364 c 0
 872 364 944 272 930 171 c 0
 915 67 818 -21 708 -21 c 0
 599 -21 527 71 541 172 c 0
680 170 m 0
 677 143 695 115 725 115 c 0
 756 115 785 139 791 172 c 0
 794 199 776 228 746 228 c 0
 715 228 686 203 680 170 c 0
746 700 m 1
 932 700 l 1
 263 0 l 1
 78 0 l 1
 746 700 l 1
EndSplineSet
EndChar

StartChar: ampersand
Encoding: 38 38 80
Width: 753
VWidth: 0
Flags: HMW
LayerCount: 2
Fore
SplineSet
258 367 m 2
 217 422 182 474 190 540 c 0
 205 638 310 719 437 719 c 0
 555 719 636 639 623 545 c 0
 610 443 522 397 419 335 c 0
 352 296 243 283 231 205 c 0
 224 164 252 133 305 131 c 0
 428 124 545 245 624 349 c 1
 726 258 l 1
 624 130 464 -15 267 -14 c 0
 139 -13 32 62 49 189 c 0
 69 343 242 380 338 421 c 0
 398 448 462 483 468 528 c 0
 470 552 453 582 418 582 c 0
 381 582 356 556 351 526 c 0
 343 483 381 442 421 392 c 2
 719 0 l 1
 532 0 l 1
 258 367 l 2
EndSplineSet
EndChar

StartChar: question
Encoding: 63 63 81
Width: 629
VWidth: 0
Flags: HMW
LayerCount: 2
Fore
SplineSet
467 500 m 0
 475 548 442 576 387 577 c 0
 323 579 259 539 214 489 c 1
 114 590 l 1
 197 669 294 723 411 722 c 0
 540 721 660 637 640 500 c 0
 622 377 507 309 397 283 c 1
 380 211 l 1
 236 211 l 1
 246 390 l 1
 278 390 l 1
 373 392 454 440 467 500 c 0
173 66 m 0
 173 116 218 156 278 156 c 0
 338 156 383 116 383 66 c 0
 383 15 338 -27 278 -27 c 0
 218 -27 173 15 173 66 c 0
EndSplineSet
EndChar

StartChar: parenleft
Encoding: 40 40 82
Width: 339
VWidth: 0
Flags: HMW
LayerCount: 2
Fore
SplineSet
278 779 m 1
 435 779 l 1
 349 628 279 463 251 290 c 0
 226 126 238 -42 286 -200 c 1
 134 -200 l 1
 78 -43 62 125 86 290 c 0
 113 464 180 631 278 779 c 1
EndSplineSet
EndChar

StartChar: parenright
Encoding: 41 41 83
Width: 339
VWidth: 0
Flags: HMW
LayerCount: 2
Fore
SplineSet
118 -199 m 1
 -39 -199 l 1
 47 -48 116 117 144 290 c 0
 169 454 158 622 110 780 c 1
 263 780 l 1
 319 623 335 455 311 290 c 0
 284 116 216 -51 118 -199 c 1
EndSplineSet
EndChar

StartChar: asterisk
Encoding: 42 42 84
Width: 574
VWidth: 0
Flags: HMW
LayerCount: 2
Fore
SplineSet
566 605 m 1
 590 451 l 1
 342 412 l 1
 330 492 l 1
 566 605 l 1
517 296 m 1
 374 201 l 1
 302 431 l 1
 369 476 l 1
 517 296 l 1
221 204 m 1
 105 302 l 1
 306 475 l 1
 366 426 l 1
 221 204 l 1
84 453 m 1
 155 604 l 1
 358 488 l 1
 322 413 l 1
 84 453 l 1
299 700 m 1
 461 700 l 1
 379 452 l 1
 298 452 l 1
 299 700 l 1
EndSplineSet
EndChar

StartChar: less
Encoding: 60 60 85
Width: 621
VWidth: 0
Flags: HMW
LayerCount: 2
Fore
SplineSet
317 265 m 1
 561 160 l 1
 531 -4 l 1
 70 209 l 1
 91 327 l 1
 626 540 l 1
 594 363 l 1
 317 265 l 1
EndSplineSet
EndChar

StartChar: greater
Encoding: 62 62 86
Width: 621
VWidth: 0
Flags: HMW
LayerCount: 2
Fore
SplineSet
341 266 m 1
 98 372 l 1
 126 536 l 1
 587 323 l 1
 567 205 l 1
 32 -8 l 1
 63 169 l 1
 341 266 l 1
EndSplineSet
EndChar

StartChar: bracketleft
Encoding: 91 91 87
Width: 370
VWidth: 0
Flags: HMW
LayerCount: 2
Fore
SplineSet
336 631 m 1
 227 -71 l 1
 325 -71 l 1
 302 -220 l 1
 32 -220 l 1
 187 780 l 1
 456 780 l 1
 433 631 l 1
 336 631 l 1
EndSplineSet
EndChar

StartChar: bracketright
Encoding: 93 93 88
Width: 370
VWidth: 0
Flags: HMW
LayerCount: 2
Fore
SplineSet
88 -71 m 1
 196 631 l 1
 97 631 l 1
 121 780 l 1
 391 780 l 1
 236 -220 l 1
 -33 -220 l 1
 -10 -71 l 1
 88 -71 l 1
EndSplineSet
EndChar

StartChar: asciicircum
Encoding: 94 94 89
Width: 494
VWidth: 0
Flags: HMW
LayerCount: 2
Fore
SplineSet
320 564 m 1
 233 444 l 1
 75 444 l 1
 286 710 l 1
 391 710 l 1
 511 443 l 1
 364 443 l 1
 320 564 l 1
EndSplineSet
EndChar

StartChar: underscore
Encoding: 95 95 90
Width: 524
VWidth: 0
Flags: HMW
LayerCount: 2
Fore
SplineSet
-56 -160 m 1
 -37 -51 l 1
 491 -51 l 1
 472 -160 l 1
 -56 -160 l 1
EndSplineSet
EndChar

StartChar: grave
Encoding: 96 96 91
Width: 363
VWidth: 0
Flags: HMW
LayerCount: 2
Fore
SplineSet
128 654 m 1
 258 709 l 1
 382 546 l 1
 284 502 l 1
 128 654 l 1
EndSplineSet
EndChar

StartChar: braceleft
Encoding: 123 123 92
Width: 412
VWidth: 0
Flags: HMW
LayerCount: 2
Fore
SplineSet
362 594 m 2
 345 490 l 2
 326 388 298 289 161 280 c 1
 163 300 l 1
 296 289 297 184 282 90 c 2
 265 -14 l 2
 261 -41 273 -64 303 -64 c 2
 339 -64 l 1
 319 -200 l 1
 224 -200 l 2
 136 -199 54 -154 68 -60 c 2
 96 117 l 2
 103 181 95 208 49 227 c 1
 67 353 l 1
 116 370 138 399 147 464 c 2
 174 640 l 2
 189 734 274 778 366 780 c 1
 470 780 l 1
 450 645 l 1
 417 645 l 2
 387 645 367 622 362 594 c 2
EndSplineSet
EndChar

StartChar: braceright
Encoding: 125 125 93
Width: 412
VWidth: 0
Flags: HMW
LayerCount: 2
Fore
SplineSet
109 -14 m 2
 125 90 l 2
 144 192 173 291 310 300 c 1
 308 280 l 1
 174 291 173 396 188 490 c 2
 205 595 l 2
 209 622 197 644 168 644 c 2
 132 644 l 1
 152 780 l 1
 247 780 l 2
 335 779 416 734 402 640 c 2
 374 463 l 2
 367 399 375 372 421 353 c 1
 403 227 l 1
 354 210 332 181 323 116 c 2
 296 -60 l 2
 282 -155 197 -198 105 -200 c 1
 0 -200 l 1
 20 -65 l 1
 53 -65 l 2
 83 -65 104 -42 109 -14 c 2
EndSplineSet
EndChar

StartChar: asciitilde
Encoding: 126 126 94
Width: 558
VWidth: 0
Flags: HMW
LayerCount: 2
Fore
SplineSet
166 159 m 1
 35 164 l 1
 34 172 33 181 34 189 c 0
 38 227 53 262 80 292 c 0
 112 328 156 353 220 352 c 0
 264 352 296 331 336 302 c 0
 358 286 379 268 398 268 c 0
 417 268 431 287 434 304 c 0
 436 316 435 329 433 340 c 1
 565 335 l 1
 566 326 567 316 566 306 c 0
 562 269 548 232 522 202 c 0
 492 169 455 147 401 147 c 0
 359 147 325 169 284 198 c 0
 259 215 236 233 211 232 c 0
 184 231 169 209 165 190 c 0
 163 178 165 168 166 159 c 1
EndSplineSet
EndChar

StartChar: exclamdown
Encoding: 161 161 95
Width: 346
VWidth: 0
Flags: HMW
LayerCount: 2
Fore
SplineSet
213 -224 m 1
 1 -224 l 1
 115 234 l 1
 257 234 l 1
 213 -224 l 1
321 406 m 0
 314 351 261 311 203 311 c 0
 144 311 104 352 111 408 c 0
 118 463 170 503 228 503 c 0
 287 503 328 462 321 406 c 0
EndSplineSet
EndChar

StartChar: cent
Encoding: 162 162 96
Width: 562
VWidth: 0
Flags: HMW
LayerCount: 2
Fore
SplineSet
194 38 m 1
 319 38 l 1
 304 -112 l 1
 155 -112 l 1
 194 38 l 1
225 230 m 0
 216 168 255 128 312 126 c 0
 368 125 413 156 449 189 c 1
 425 24 l 1
 387 3 339 -10 282 -10 c 0
 134 -10 28 88 49 230 c 0
 70 375 200 470 353 470 c 0
 408 470 454 456 491 435 c 1
 467 270 l 1
 442 307 409 334 357 334 c 0
 298 334 236 290 225 230 c 0
274 578 m 1
 424 578 l 1
 385 428 l 1
 260 428 l 1
 274 578 l 1
EndSplineSet
EndChar

StartChar: sterling
Encoding: 163 163 97
Width: 601
VWidth: 0
Flags: HMW
LayerCount: 2
Fore
SplineSet
100 370 m 1
 476 370 l 1
 457 262 l 1
 80 262 l 1
 100 370 l 1
471 463 m 1
 472 509 464 559 401 560 c 0
 356 561 315 532 307 486 c 0
 292 414 368 364 358 272 c 0
 341 160 204 77 113 52 c 1
 194 158 l 1
 532 158 l 1
 504 0 l 1
 19 0 l 1
 111 96 180 184 198 298 c 0
 209 385 123 427 133 523 c 0
 149 644 282 710 408 710 c 0
 545 710 635 623 633 520 c 1
 471 463 l 1
EndSplineSet
EndChar

StartChar: currency
Encoding: 164 164 98
Width: 558
VWidth: 0
Flags: HMW
LayerCount: 2
Fore
SplineSet
76 505 m 1
 150 570 l 1
 234 462 l 1
 163 402 l 1
 76 505 l 1
65 30 m 1
 8 102 l 1
 122 198 l 1
 178 130 l 1
 65 30 l 1
488 402 m 1
 430 472 l 1
 544 570 l 1
 600 501 l 1
 488 402 l 1
372 134 m 1
 446 198 l 1
 529 92 l 1
 459 31 l 1
 372 134 l 1
71 300 m 0
 90 432 204 540 339 540 c 0
 473 540 554 428 536 300 c 0
 517 168 404 60 268 60 c 0
 134 60 53 172 71 300 c 0
223 299 m 0
 216 255 239 219 286 218 c 0
 334 217 377 255 384 301 c 0
 391 345 369 381 322 382 c 0
 274 383 230 345 223 299 c 0
EndSplineSet
EndChar

StartChar: yen
Encoding: 165 165 99
Width: 676
VWidth: 0
Flags: HMW
LayerCount: 2
Fore
SplineSet
58 257 m 1
 78 365 l 1
 668 365 l 1
 648 257 l 1
 58 257 l 1
33 107 m 1
 52 215 l 1
 642 215 l 1
 623 107 l 1
 33 107 l 1
546 700 m 1
 773 700 l 1
 457 277 l 1
 410 0 l 1
 212 0 l 1
 262 284 l 1
 92 700 l 1
 310 700 l 1
 386 460 l 1
 546 700 l 1
EndSplineSet
EndChar

StartChar: brokenbar
Encoding: 166 166 100
Width: 365
VWidth: 0
Flags: HMW
LayerCount: 2
Fore
SplineSet
188 695 m 1
 363 695 l 1
 316 422 l 1
 140 422 l 1
 188 695 l 1
292 278 m 1
 244 5 l 1
 69 5 l 1
 116 278 l 1
 292 278 l 1
EndSplineSet
EndChar

StartChar: section
Encoding: 167 167 101
Width: 611
VWidth: 0
Flags: HMW
LayerCount: 2
Fore
SplineSet
486 540 m 1
 459 566 422 587 390 587 c 0
 367 587 339 577 338 561 c 0
 336 537 387 534 422 524 c 0
 494 505 547 453 537 380 c 0
 520 270 397 229 290 226 c 1
 297 269 l 1
 331 280 372 299 379 339 c 0
 389 394 319 410 274 429 c 0
 217 454 169 500 178 576 c 0
 192 676 297 727 392 727 c 0
 468 727 537 699 574 655 c 1
 486 540 l 1
133 177 m 1
 181 137 235 113 278 114 c 0
 304 114 329 125 332 142 c 0
 336 169 286 178 250 188 c 0
 178 207 108 250 118 327 c 0
 133 435 264 476 372 479 c 1
 366 437 l 1
 331 424 289 409 283 369 c 0
 273 312 355 302 398 283 c 0
 461 255 510 205 500 130 c 0
 485 26 372 -26 274 -27 c 0
 172 -28 100 8 44 62 c 1
 133 177 l 1
EndSplineSet
EndChar

StartChar: dieresis
Encoding: 168 168 102
Width: 508
VWidth: 0
Flags: HMW
LayerCount: 2
Fore
SplineSet
361 624 m 0
 367 675 417 713 469 713 c 0
 521 713 562 674 555 622 c 0
 549 571 500 533 448 533 c 0
 396 533 354 572 361 624 c 0
111 624 m 0
 117 675 167 713 219 713 c 0
 271 713 312 674 305 622 c 0
 299 571 250 533 198 533 c 0
 146 533 104 572 111 624 c 0
EndSplineSet
EndChar

StartChar: copyright
Encoding: 169 169 103
Width: 776
VWidth: 0
Flags: HMW
LayerCount: 2
Fore
SplineSet
334 350 m 0
 325 287 363 242 425 241 c 0
 479 240 521 268 554 294 c 1
 538 170 l 1
 501 146 462 130 408 130 c 0
 275 130 190 224 206 350 c 0
 223 479 332 571 467 571 c 0
 520 571 556 554 591 529 c 1
 576 406 l 1
 550 435 518 460 467 460 c 0
 403 460 344 416 334 350 c 0
130 350 m 0
 106 189 200 41 372 40 c 0
 547 39 693 181 720 350 c 0
 744 511 649 659 478 660 c 0
 304 661 157 519 130 350 c 0
74 350 m 0
 101 550 271 710 475 710 c 0
 676 710 801 543 776 350 c 0
 749 150 579 -10 375 -10 c 0
 174 -10 49 157 74 350 c 0
EndSplineSet
EndChar

StartChar: registered
Encoding: 174 174 104
Width: 776
VWidth: 0
Flags: HMW
LayerCount: 2
Fore
SplineSet
407 318 m 1
 507 318 l 1
 587 150 l 1
 455 150 l 1
 407 318 l 1
310 570 m 1
 426 570 l 1
 361 150 l 1
 244 150 l 1
 310 570 l 1
368 471 m 1
 382 570 l 1
 467 570 l 1
 564 568 628 518 617 437 c 0
 606 351 534 299 433 297 c 1
 339 297 l 1
 353 385 l 1
 430 386 l 1
 461 387 491 401 495 430 c 0
 498 457 478 471 449 472 c 1
 368 471 l 1
130 350 m 0
 106 189 200 41 372 40 c 0
 547 39 693 181 720 350 c 0
 744 511 649 659 478 660 c 0
 304 661 157 519 130 350 c 0
74 350 m 0
 101 550 271 710 475 710 c 0
 676 710 801 543 776 350 c 0
 749 150 579 -10 375 -10 c 0
 174 -10 49 157 74 350 c 0
EndSplineSet
EndChar

StartChar: ordfeminine
Encoding: 170 170 105
Width: 271
VWidth: 0
Flags: HMW
LayerCount: 2
Fore
SplineSet
165 528 m 0
 164 516 173 509 186 509 c 0
 211 509 232 527 240 554 c 1
 243 524 l 1
 231 484 200 456 153 456 c 0
 107 456 72 484 78 528 c 0
 85 573 134 600 185 600 c 0
 215 600 243 590 261 577 c 1
 254 538 l 1
 240 548 226 556 205 556 c 0
 187 556 167 543 165 528 c 0
143 618 m 1
 125 681 l 1
 156 693 193 705 233 705 c 0
 289 705 337 681 333 629 c 1
 306 460 l 1
 222 460 l 1
 249 603 l 1
 248 620 242 634 220 636 c 0
 191 639 160 625 143 618 c 1
EndSplineSet
EndChar

StartChar: ordmasculine
Encoding: 186 186 106
Width: 269
VWidth: 0
Flags: HMW
LayerCount: 2
Fore
SplineSet
88 581 m 0
 98 651 162 700 236 700 c 0
 309 700 364 650 354 579 c 0
 344 508 279 460 205 460 c 0
 132 460 78 510 88 581 c 0
177 579 m 0
 174 555 186 533 209 532 c 0
 233 531 262 555 265 581 c 0
 268 605 255 628 232 629 c 0
 208 630 180 605 177 579 c 0
EndSplineSet
EndChar

StartChar: guillemotleft
Encoding: 171 171 107
Width: 533
VWidth: 0
Flags: HMW
LayerCount: 2
Fore
SplineSet
377 255 m 1
 490 61 l 1
 377 -6 l 1
 250 260 l 1
 460 514 l 1
 557 441 l 1
 377 255 l 1
166 255 m 1
 279 61 l 1
 166 -6 l 1
 39 260 l 1
 248 514 l 1
 345 441 l 1
 166 255 l 1
EndSplineSet
EndChar

StartChar: guillemotright
Encoding: 187 187 108
Width: 533
VWidth: 0
Flags: HMW
LayerCount: 2
Fore
SplineSet
190 255 m 1
 77 449 l 1
 191 516 l 1
 317 250 l 1
 108 -4 l 1
 11 69 l 1
 190 255 l 1
402 255 m 1
 289 449 l 1
 402 516 l 1
 529 250 l 1
 319 -4 l 1
 222 69 l 1
 402 255 l 1
EndSplineSet
EndChar

StartChar: uni00AD
Encoding: 173 173 109
Width: 203
VWidth: 0
Flags: HMW
LayerCount: 2
Fore
SplineSet
13 200 m 1
 24 275 l 1
 221 275 l 1
 209 200 l 1
 13 200 l 1
EndSplineSet
EndChar

StartChar: logicalnot
Encoding: 172 172 110
Width: 640
VWidth: 0
Flags: HMW
LayerCount: 2
Fore
SplineSet
82 263 m 1
 105 412 l 1
 623 412 l 1
 582 175 l 1
 466 175 l 1
 485 263 l 1
 82 263 l 1
EndSplineSet
EndChar

StartChar: macron
Encoding: 175 175 111
Width: 521
VWidth: 0
Flags: HMW
LayerCount: 2
Fore
SplineSet
145 563 m 1
 169 712 l 1
 540 712 l 1
 516 563 l 1
 145 563 l 1
EndSplineSet
EndChar

StartChar: degree
Encoding: 176 176 112
Width: 292
VWidth: 0
Flags: HMW
LayerCount: 2
Fore
SplineSet
89 596 m 0
 99 666 163 720 237 720 c 0
 311 720 364 666 354 595 c 0
 344 524 279 472 204 472 c 0
 130 472 79 525 89 596 c 0
173 595 m 0
 170 570 183 547 209 546 c 0
 236 545 265 569 269 596 c 0
 272 621 258 646 232 647 c 0
 205 648 177 622 173 595 c 0
EndSplineSet
EndChar

StartChar: plusminus
Encoding: 177 177 113
Width: 619
VWidth: 0
Flags: HMW
LayerCount: 2
Fore
SplineSet
46 8 m 1
 69 154 l 1
 566 154 l 1
 543 8 l 1
 46 8 l 1
95 328 m 1
 120 483 l 1
 617 483 l 1
 593 328 l 1
 95 328 l 1
302 620 m 1
 476 620 l 1
 409 191 l 1
 236 191 l 1
 302 620 l 1
EndSplineSet
EndChar

StartChar: uni00B2
Encoding: 178 178 114
Width: 414
VWidth: 0
Flags: HMW
LayerCount: 2
Fore
SplineSet
41 283 m 1
 252 470 l 2
 285 501 322 529 328 566 c 0
 330 588 319 610 291 611 c 0
 255 613 231 576 223 543 c 1
 108 544 l 1
 126 633 193 711 303 711 c 0
 396 711 460 648 448 573 c 0
 441 527 410 490 372 462 c 2
 277 390 l 1
 429 389 l 1
 411 282 l 1
 41 283 l 1
EndSplineSet
EndChar

StartChar: uni00B3
Encoding: 179 179 115
Width: 369
VWidth: 0
Flags: HMW
LayerCount: 2
Fore
SplineSet
209 483 m 1
 216 531 l 1
 253 534 295 552 300 584 c 0
 302 602 289 616 267 616 c 0
 238 616 219 595 211 572 c 1
 102 573 l 1
 120 650 183 707 275 708 c 0
 360 708 426 661 414 589 c 0
 401 506 301 485 209 483 c 1
204 269 m 0
 104 270 52 339 57 421 c 1
 170 420 l 1
 170 386 183 364 216 362 c 0
 244 361 275 379 279 408 c 0
 286 444 249 459 203 461 c 1
 213 516 l 1
 310 514 407 488 393 395 c 0
 382 317 300 268 204 269 c 0
EndSplineSet
EndChar

StartChar: acute
Encoding: 180 180 116
Width: 363
VWidth: 0
Flags: HMW
LayerCount: 2
Fore
SplineSet
399 649 m 1
 205 502 l 1
 110 551 l 1
 278 708 l 1
 399 649 l 1
EndSplineSet
EndChar

StartChar: mu
Encoding: 181 181 117
Width: 572
VWidth: 0
Flags: HMW
LayerCount: 2
Fore
SplineSet
322 0 m 1
 401 460 l 1
 574 460 l 1
 495 0 l 1
 322 0 l 1
233 180 m 1
 230 143 231 110 272 106 c 0
 314 102 344 140 353 179 c 1
 383 187 l 1
 365 84 307 -10 190 -11 c 0
 77 -12 39 61 52 162 c 1
 103 460 l 1
 284 460 l 1
 233 180 l 1
103 460 m 1
 268 460 l 1
 134 -320 l 1
 -30 -320 l 1
 103 460 l 1
EndSplineSet
EndChar

StartChar: paragraph
Encoding: 182 182 118
Width: 679
VWidth: 0
Flags: HMW
LayerCount: 2
Fore
SplineSet
352 598 m 1
 371 700 l 1
 608 700 l 1
 590 598 l 1
 352 598 l 1
566 700 m 1
 717 700 l 1
 560 -220 l 1
 409 -220 l 1
 566 700 l 1
371 700 m 1
 522 700 l 1
 364 -220 l 1
 213 -220 l 1
 371 700 l 1
302 270 m 1
 180 276 94 356 113 486 c 0
 133 621 243 700 371 700 c 1
 302 270 l 1
EndSplineSet
EndChar

StartChar: periodcentered
Encoding: 183 183 119
Width: 319
VWidth: 0
Flags: HMW
LayerCount: 2
Fore
SplineSet
75 278 m 0
 82 334 134 381 194 381 c 0
 254 381 292 331 285 276 c 0
 278 220 226 173 166 173 c 0
 106 173 68 223 75 278 c 0
EndSplineSet
EndChar

StartChar: uni00B9
Encoding: 185 185 120
Width: 471
VWidth: 0
Flags: HMW
LayerCount: 2
Fore
SplineSet
190 559 m 1
 208 660 l 1
 433 704 l 1
 359 274 l 1
 246 274 l 1
 299 584 l 1
 190 559 l 1
EndSplineSet
EndChar

StartChar: cedilla
Encoding: 184 184 121
Width: 394
VWidth: 0
Flags: HMW
LayerCount: 2
Fore
SplineSet
156 74 m 1
 285 69 l 1
 168 -56 l 1
 181 -53 195 -51 210 -51 c 0
 259 -53 300 -96 292 -157 c 0
 282 -229 207 -267 141 -269 c 0
 83 -270 36 -257 -14 -228 c 1
 43 -153 l 1
 68 -169 101 -178 123 -178 c 0
 149 -178 184 -166 186 -143 c 0
 188 -119 155 -113 133 -113 c 0
 112 -112 75 -117 40 -127 c 1
 156 74 l 1
EndSplineSet
EndChar

StartChar: questiondown
Encoding: 191 191 122
Width: 629
VWidth: 0
Flags: HMW
LayerCount: 2
Fore
SplineSet
228 200 m 0
 220 152 254 124 309 123 c 0
 373 121 436 161 481 211 c 1
 581 110 l 1
 498 31 401 -23 284 -22 c 0
 155 -21 36 63 56 200 c 0
 74 323 188 391 298 417 c 1
 315 489 l 1
 459 489 l 1
 449 310 l 1
 417 310 l 1
 322 308 241 260 228 200 c 0
518 634 m 0
 511 585 458 544 401 544 c 0
 344 544 301 586 308 636 c 0
 315 685 368 727 425 727 c 0
 482 727 525 684 518 634 c 0
EndSplineSet
EndChar

StartChar: multiply
Encoding: 215 215 123
Width: 578
VWidth: 0
Flags: HMW
LayerCount: 2
Fore
SplineSet
117 -3 m 1
 30 107 l 1
 208 259 l 1
 82 412 l 1
 198 514 l 1
 320 358 l 1
 494 513 l 1
 582 403 l 1
 403 251 l 1
 530 98 l 1
 413 -4 l 1
 292 152 l 1
 117 -3 l 1
EndSplineSet
EndChar

StartChar: Oslash
Encoding: 216 216 124
Width: 766
VWidth: 0
Flags: HMW
LayerCount: 2
Fore
SplineSet
266 350 m 0
 250 250 290 161 398 160 c 0
 507 159 588 244 606 350 c 0
 622 450 582 539 474 540 c 0
 365 541 284 456 266 350 c 0
62 350 m 0
 94 562 275 718 493 718 c 0
 707 718 840 555 810 350 c 0
 778 138 596 -27 377 -27 c 0
 162 -27 32 145 62 350 c 0
777 758 m 1
 846 697 l 1
 89 -58 l 1
 22 -1 l 1
 777 758 l 1
EndSplineSet
EndChar

StartChar: Thorn
Encoding: 222 222 125
Width: 612
VWidth: 0
Flags: HMW
LayerCount: 2
Fore
SplineSet
168 700 m 1
 334 700 l 1
 214 0 l 1
 49 0 l 1
 168 700 l 1
228 435 m 1
 255 585 l 1
 381 585 l 1
 547 583 647 502 624 354 c 0
 601 205 485 125 314 123 c 1
 175 123 l 1
 202 273 l 1
 329 273 l 1
 394 274 445 294 456 354 c 0
 466 413 427 432 366 434 c 1
 228 435 l 1
EndSplineSet
EndChar

StartChar: divide
Encoding: 247 247 126
Width: 625
VWidth: 0
Flags: HMW
LayerCount: 2
Fore
SplineSet
281 587 m 0
 288 643 339 690 399 690 c 0
 459 690 498 640 491 585 c 0
 484 529 432 482 372 482 c 0
 312 482 274 532 281 587 c 0
199 108 m 0
 206 164 258 211 318 211 c 0
 378 211 416 161 409 106 c 0
 402 51 350 3 290 3 c 0
 230 3 192 53 199 108 c 0
31 270 m 1
 59 425 l 1
 659 425 l 1
 632 270 l 1
 31 270 l 1
EndSplineSet
EndChar

StartChar: oslash
Encoding: 248 248 127
Width: 529
VWidth: 0
Flags: HMW
LayerCount: 2
Fore
SplineSet
41 230 m 0
 62 378 192 470 341 470 c 0
 486 470 591 376 570 230 c 0
 549 82 418 -10 269 -10 c 0
 124 -10 20 84 41 230 c 0
201 230 m 0
 192 170 224 124 282 123 c 0
 341 122 399 167 409 230 c 0
 418 284 385 336 328 337 c 0
 270 338 212 288 201 230 c 0
501 508 m 1
 561 468 l 1
 96 -52 l 1
 38 -14 l 1
 501 508 l 1
EndSplineSet
EndChar

StartChar: circumflex
Encoding: 710 710 128
Width: 465
VWidth: 0
Flags: HMW
LayerCount: 2
Fore
SplineSet
316 623 m 1
 220 542 l 1
 109 626 l 1
 332 763 l 1
 515 620 l 1
 385 541 l 1
 316 623 l 1
EndSplineSet
EndChar

StartChar: ogonek
Encoding: 731 731 129
Width: 252
VWidth: 0
Flags: HMW
LayerCount: 2
Fore
SplineSet
154 -105 m 1
 176 -181 l 1
 153 -202 121 -220 72 -220 c 0
 13 -219 -36 -183 -29 -119 c 0
 -20 -47 61 -8 127 25 c 1
 167 0 l 1
 124 -27 84 -56 78 -92 c 0
 76 -109 82 -122 101 -124 c 0
 119 -126 140 -115 154 -105 c 1
EndSplineSet
EndChar

StartChar: tilde
Encoding: 732 732 130
Width: 514
VWidth: 0
Flags: HMW
LayerCount: 2
Fore
SplineSet
145 643 m 1
 166 691 212 742 278 740 c 0
 334 739 355 685 406 687 c 0
 437 688 460 714 482 741 c 1
 551 655 l 1
 524 616 464 566 401 568 c 0
 351 570 316 625 268 621 c 0
 235 619 223 589 215 571 c 1
 145 643 l 1
EndSplineSet
EndChar

StartChar: ring
Encoding: 730 730 131
Width: 332
VWidth: 0
Flags: HMW
LayerCount: 2
Fore
SplineSet
140 765 m 0
 149 833 215 884 286 884 c 0
 357 884 410 832 400 763 c 0
 391 694 325 644 253 644 c 0
 182 644 130 696 140 765 c 0
226 763 m 0
 223 741 236 720 258 719 c 0
 282 718 310 741 313 765 c 0
 316 787 302 809 280 810 c 0
 256 811 229 787 226 763 c 0
EndSplineSet
EndChar

StartChar: dotaccent
Encoding: 729 729 132
Width: 291
VWidth: 0
Flags: HMW
LayerCount: 2
Fore
SplineSet
161 822 m 0
 168 873 218 910 270 910 c 0
 322 910 362 871 355 819 c 0
 348 768 299 731 247 731 c 0
 195 731 154 770 161 822 c 0
EndSplineSet
EndChar

StartChar: uni2010
Encoding: 8208 8208 133
Width: 219
VWidth: 0
Flags: HMW
LayerCount: 2
Fore
SplineSet
4 163 m 1
 30 312 l 1
 243 312 l 1
 217 163 l 1
 4 163 l 1
EndSplineSet
EndChar

StartChar: endash
Encoding: 8211 8211 134
Width: 773
VWidth: 0
Flags: HMW
LayerCount: 2
Fore
SplineSet
67 163 m 1
 93 312 l 1
 726 312 l 1
 700 163 l 1
 67 163 l 1
EndSplineSet
EndChar

StartChar: figuredash
Encoding: 8210 8210 135
Width: 619
VWidth: 0
Flags: HMW
LayerCount: 2
Fore
SplineSet
67 163 m 1
 93 312 l 1
 569 312 l 1
 543 163 l 1
 67 163 l 1
EndSplineSet
EndChar

StartChar: emdash
Encoding: 8212 8212 136
Width: 926
VWidth: 0
Flags: HMW
LayerCount: 2
Fore
SplineSet
67 163 m 1
 93 312 l 1
 884 312 l 1
 857 163 l 1
 67 163 l 1
EndSplineSet
EndChar

StartChar: minus
Encoding: 8722 8722 137
Width: 576
VWidth: 0
Flags: HMW
LayerCount: 2
Fore
SplineSet
51 163 m 1
 77 312 l 1
 552 312 l 1
 527 163 l 1
 51 163 l 1
EndSplineSet
EndChar

StartChar: quoteright
Encoding: 8217 8217 138
Width: 338
VWidth: 0
Flags: HMW
LayerCount: 2
Fore
SplineSet
189 700 m 1
 368 700 l 1
 221 437 l 1
 93 437 l 1
 189 700 l 1
EndSplineSet
EndChar

StartChar: quoteleft
Encoding: 8216 8216 139
Width: 338
VWidth: 0
Flags: HMW
LayerCount: 2
Fore
SplineSet
289 437 m 1
 111 437 l 1
 259 699 l 1
 386 699 l 1
 289 437 l 1
EndSplineSet
EndChar

StartChar: quotesinglbase
Encoding: 8218 8218 140
Width: 338
VWidth: 0
Flags: HMW
LayerCount: 2
Fore
SplineSet
93 80 m 1
 271 80 l 1
 124 -183 l 1
 -3 -183 l 1
 93 80 l 1
EndSplineSet
EndChar

StartChar: quotedblleft
Encoding: 8220 8220 141
Width: 571
VWidth: 0
Flags: HMW
LayerCount: 2
Fore
SplineSet
289 437 m 1
 111 437 l 1
 259 699 l 1
 386 699 l 1
 289 437 l 1
524 437 m 1
 346 437 l 1
 493 699 l 1
 620 699 l 1
 524 437 l 1
EndSplineSet
EndChar

StartChar: quotedblright
Encoding: 8221 8221 142
Width: 571
VWidth: 0
Flags: HMW
LayerCount: 2
Fore
SplineSet
189 700 m 1
 368 700 l 1
 221 437 l 1
 93 437 l 1
 189 700 l 1
423 700 m 1
 601 700 l 1
 455 437 l 1
 327 437 l 1
 423 700 l 1
EndSplineSet
EndChar

StartChar: perthousand
Encoding: 8240 8240 143
Width: 1408
VWidth: 0
Flags: HMW
LayerCount: 2
Fore
SplineSet
1005 172 m 0
 1020 276 1118 364 1228 364 c 0
 1337 364 1409 272 1395 171 c 0
 1380 67 1283 -21 1173 -21 c 0
 1064 -21 991 71 1005 172 c 0
1144 170 m 0
 1141 143 1158 117 1188 115 c 0
 1219 113 1252 143 1256 172 c 0
 1259 199 1243 226 1213 228 c 0
 1182 230 1148 199 1144 170 c 0
80 530 m 0
 95 634 192 722 302 722 c 0
 411 722 483 630 469 529 c 0
 454 425 357 337 247 337 c 0
 138 337 66 429 80 530 c 0
218 528 m 0
 215 501 232 475 262 473 c 0
 293 471 326 502 330 531 c 0
 333 558 317 584 287 586 c 0
 256 588 222 557 218 528 c 0
541 172 m 0
 556 276 653 364 763 364 c 0
 872 364 944 272 930 171 c 0
 915 67 818 -21 708 -21 c 0
 599 -21 527 71 541 172 c 0
680 170 m 0
 677 143 693 117 723 115 c 0
 754 113 787 143 791 172 c 0
 794 199 779 226 749 228 c 0
 718 230 684 199 680 170 c 0
746 700 m 1
 932 700 l 1
 263 0 l 1
 78 0 l 1
 746 700 l 1
EndSplineSet
EndChar

StartChar: guilsinglleft
Encoding: 8249 8249 144
Width: 339
VWidth: 0
Flags: HMW
LayerCount: 2
Fore
SplineSet
166 255 m 1
 279 61 l 1
 166 -6 l 1
 39 260 l 1
 248 514 l 1
 345 441 l 1
 166 255 l 1
EndSplineSet
EndChar

StartChar: guilsinglright
Encoding: 8250 8250 145
Width: 339
VWidth: 0
Flags: HMW
LayerCount: 2
Fore
SplineSet
206 255 m 1
 94 449 l 1
 207 516 l 1
 333 250 l 1
 124 -4 l 1
 27 69 l 1
 206 255 l 1
EndSplineSet
EndChar

StartChar: uni2031
Encoding: 8241 8241 146
Width: 1873
VWidth: 0
Flags: HMW
LayerCount: 2
Fore
SplineSet
1470 172 m 0
 1485 276 1582 364 1692 364 c 0
 1801 364 1874 272 1860 171 c 0
 1845 67 1748 -21 1638 -21 c 0
 1529 -21 1456 71 1470 172 c 0
1609 170 m 0
 1606 143 1622 117 1652 115 c 0
 1683 113 1717 143 1721 172 c 0
 1724 199 1708 226 1678 228 c 0
 1647 230 1613 199 1609 170 c 0
1005 172 m 0
 1020 276 1118 364 1228 364 c 0
 1337 364 1409 272 1395 171 c 0
 1380 67 1283 -21 1173 -21 c 0
 1064 -21 991 71 1005 172 c 0
1144 170 m 0
 1141 143 1158 117 1188 115 c 0
 1219 113 1252 143 1256 172 c 0
 1259 199 1243 226 1213 228 c 0
 1182 230 1148 199 1144 170 c 0
80 530 m 0
 95 634 192 722 302 722 c 0
 411 722 483 630 469 529 c 0
 454 425 357 337 247 337 c 0
 138 337 66 429 80 530 c 0
218 528 m 0
 215 501 232 475 262 473 c 0
 293 471 326 502 330 531 c 0
 333 558 317 584 287 586 c 0
 256 588 222 557 218 528 c 0
541 172 m 0
 556 276 653 364 763 364 c 0
 872 364 944 272 930 171 c 0
 915 67 818 -21 708 -21 c 0
 599 -21 527 71 541 172 c 0
680 170 m 0
 677 143 693 117 723 115 c 0
 754 113 787 143 791 172 c 0
 794 199 779 226 749 228 c 0
 718 230 684 199 680 170 c 0
746 700 m 1
 932 700 l 1
 263 0 l 1
 78 0 l 1
 746 700 l 1
EndSplineSet
EndChar

StartChar: uni203D
Encoding: 8253 8253 147
Width: 629
VWidth: 0
Flags: HMW
LayerCount: 2
Fore
SplineSet
480 476 m 0
 492 542 447 577 378 577 c 0
 314 578 253 547 214 490 c 1
 114 590 l 1
 178 664 288 722 409 721 c 0
 538 720 660 637 640 500 c 0
 617 344 442 278 312 274 c 1
 314 349 l 1
 387 355 466 400 480 476 c 0
272 502 m 1
 430 501 l 1
 350 211 l 1
 250 211 l 1
 272 502 l 1
177 70 m 0
 184 124 238 164 296 164 c 0
 354 164 397 122 390 68 c 0
 383 14 329 -27 271 -27 c 0
 213 -27 170 16 177 70 c 0
EndSplineSet
EndChar

StartChar: Euro
Encoding: 8364 8364 148
Width: 658
VWidth: 0
Flags: HMW
LayerCount: 2
Fore
SplineSet
99 373 m 1
 116 469 l 1
 593 469 l 1
 576 373 l 1
 99 373 l 1
58 239 m 1
 75 334 l 1
 553 334 l 1
 536 239 l 1
 58 239 l 1
305 350 m 0
 292 241 307 140 406 137 c 0
 465 135 520 163 566 197 c 1
 540 18 l 1
 494 -6 443 -22 389 -22 c 0
 187 -22 114 167 139 350 c 0
 167 544 304 723 506 723 c 0
 558 723 606 707 650 682 c 1
 623 502 l 1
 587 540 544 564 490 564 c 0
 390 563 323 470 305 350 c 0
EndSplineSet
EndChar

StartChar: fraction
Encoding: 8260 8260 149
Width: 714
VWidth: 0
Flags: HMW
LayerCount: 2
Fore
SplineSet
651 699 m 1
 794 699 l 1
 170 0 l 1
 26 0 l 1
 651 699 l 1
EndSplineSet
EndChar

StartChar: onequarter
Encoding: 188 188 150
Width: 818
VWidth: 0
Flags: HMW
LayerCount: 2
Fore
SplineSet
704 699 m 1
 816 699 l 1
 191 0 l 1
 80 0 l 1
 704 699 l 1
88 559 m 1
 106 660 l 1
 331 704 l 1
 256 274 l 1
 143 274 l 1
 196 584 l 1
 88 559 l 1
378 72 m 1
 485 153 l 1
 666 154 l 1
 680 171 l 1
 796 171 l 1
 778 72 l 1
 378 72 l 1
507 111 m 1
 373 68 l 1
 678 419 l 1
 774 420 l 1
 702 0 l 1
 579 0 l 1
 595 93 l 1
 611 99 l 1
 637 254 l 1
 507 111 l 1
EndSplineSet
EndChar

StartChar: onehalf
Encoding: 189 189 151
Width: 890
VWidth: 0
Flags: HMW
LayerCount: 2
Fore
SplineSet
704 699 m 1
 816 699 l 1
 191 0 l 1
 80 0 l 1
 704 699 l 1
88 559 m 1
 106 660 l 1
 331 704 l 1
 256 274 l 1
 143 274 l 1
 196 584 l 1
 88 559 l 1
463 3 m 1
 674 190 l 2
 707 221 745 249 751 286 c 0
 753 308 742 330 714 331 c 0
 678 333 654 296 646 263 c 1
 530 264 l 1
 548 353 616 431 726 431 c 0
 819 431 882 368 870 293 c 0
 863 247 833 210 795 182 c 2
 699 110 l 1
 852 109 l 1
 833 2 l 1
 463 3 l 1
EndSplineSet
EndChar

StartChar: threequarters
Encoding: 190 190 152
Width: 870
VWidth: 0
Flags: HMW
LayerCount: 2
Fore
SplineSet
765 699 m 1
 877 699 l 1
 252 0 l 1
 141 0 l 1
 765 699 l 1
218 483 m 1
 225 531 l 1
 262 534 304 552 309 584 c 0
 311 602 298 616 276 616 c 0
 247 616 228 595 220 572 c 1
 111 573 l 1
 129 650 192 707 284 708 c 0
 369 708 435 661 423 589 c 0
 410 506 310 485 218 483 c 1
213 269 m 0
 113 270 61 339 66 421 c 1
 179 420 l 1
 179 386 191 364 224 362 c 0
 252 361 284 379 288 408 c 0
 295 444 258 459 212 461 c 1
 221 516 l 1
 318 514 415 488 401 395 c 0
 390 317 309 268 213 269 c 0
430 72 m 1
 538 153 l 1
 719 154 l 1
 732 171 l 1
 849 171 l 1
 831 72 l 1
 430 72 l 1
561 111 m 1
 426 68 l 1
 732 419 l 1
 828 420 l 1
 754 0 l 1
 633 0 l 1
 648 93 l 1
 664 99 l 1
 690 254 l 1
 561 111 l 1
EndSplineSet
EndChar

StartChar: uni2150
Encoding: 8528 8528 153
Width: 944
VWidth: 0
Flags: HMW
LayerCount: 2
Fore
SplineSet
688 699 m 1
 831 699 l 1
 206 0 l 1
 63 0 l 1
 688 699 l 1
88 559 m 1
 106 660 l 1
 331 704 l 1
 256 274 l 1
 143 274 l 1
 196 584 l 1
 88 559 l 1
603 310 m 1
 622 420 l 1
 974 420 l 1
 705 0 l 1
 575 0 l 1
 781 310 l 1
 603 310 l 1
EndSplineSet
EndChar

StartChar: uni2151
Encoding: 8529 8529 154
Width: 888
VWidth: 0
Flags: HMW
LayerCount: 2
Fore
SplineSet
680 699 m 1
 823 699 l 1
 199 0 l 1
 55 0 l 1
 680 699 l 1
88 559 m 1
 106 660 l 1
 331 704 l 1
 256 274 l 1
 143 274 l 1
 196 584 l 1
 88 559 l 1
771 272 m 0
 775 305 757 332 724 333 c 0
 689 335 653 305 649 271 c 0
 645 238 664 211 697 209 c 0
 732 207 767 238 771 272 c 0
678 5 m 1
 524 5 l 1
 683 148 l 1
 714 160 l 1
 691 143 672 135 644 135 c 0
 577 135 525 196 534 272 c 0
 547 373 635 432 732 432 c 0
 828 432 901 371 887 271 c 0
 879 221 846 181 812 145 c 1
 678 5 l 1
EndSplineSet
EndChar

StartChar: uni2152
Encoding: 8530 8530 155
Width: 1215
VWidth: 0
Flags: HMW
LayerCount: 2
Fore
SplineSet
680 699 m 1
 823 699 l 1
 199 0 l 1
 55 0 l 1
 680 699 l 1
88 559 m 1
 106 660 l 1
 331 704 l 1
 256 274 l 1
 143 274 l 1
 196 584 l 1
 88 559 l 1
574 286 m 1
 591 387 l 1
 817 431 l 1
 742 1 l 1
 629 1 l 1
 682 311 l 1
 574 286 l 1
951 210 m 0
 946 159 946 95 992 92 c 0
 1039 89 1074 153 1082 210 c 0
 1087 261 1087 325 1041 328 c 0
 994 331 959 267 951 210 c 0
840 210 m 0
 856 332 935 429 1048 429 c 0
 1166 429 1208 328 1193 210 c 0
 1177 88 1100 -9 984 -9 c 0
 869 -9 825 93 840 210 c 0
EndSplineSet
EndChar

StartChar: onethird
Encoding: 8531 8531 156
Width: 884
VWidth: 0
Flags: HMW
LayerCount: 2
Fore
SplineSet
679 699 m 1
 822 699 l 1
 198 0 l 1
 54 0 l 1
 679 699 l 1
88 559 m 1
 106 660 l 1
 331 704 l 1
 256 274 l 1
 143 274 l 1
 196 584 l 1
 88 559 l 1
672 203 m 1
 679 251 l 1
 716 254 758 272 763 304 c 0
 765 322 753 336 731 336 c 0
 702 336 682 315 674 292 c 1
 565 293 l 1
 583 370 646 427 738 428 c 0
 823 428 889 381 877 309 c 0
 864 226 764 205 672 203 c 1
667 -11 m 0
 567 -10 515 59 520 141 c 1
 633 140 l 1
 633 106 646 84 679 82 c 0
 707 81 738 99 742 128 c 0
 749 164 713 179 667 181 c 1
 675 236 l 1
 772 234 870 208 856 115 c 0
 845 37 763 -12 667 -11 c 0
EndSplineSet
EndChar

StartChar: twothirds
Encoding: 8532 8532 157
Width: 1015
VWidth: 0
Flags: HMW
LayerCount: 2
Fore
SplineSet
827 699 m 1
 970 699 l 1
 346 0 l 1
 202 0 l 1
 827 699 l 1
46 283 m 1
 257 470 l 2
 290 501 327 529 333 566 c 0
 335 588 324 610 296 611 c 0
 260 613 236 576 228 543 c 1
 113 544 l 1
 131 633 198 711 308 711 c 0
 401 711 465 648 453 573 c 0
 446 527 415 490 377 462 c 2
 282 390 l 1
 434 389 l 1
 416 282 l 1
 46 283 l 1
803 203 m 1
 811 251 l 1
 848 254 889 272 894 304 c 0
 896 322 884 336 862 336 c 0
 833 336 813 315 805 292 c 1
 696 293 l 1
 714 370 777 427 869 428 c 0
 954 428 1020 381 1008 309 c 0
 995 226 895 205 803 203 c 1
799 -11 m 0
 699 -10 646 59 651 141 c 1
 764 140 l 1
 764 106 777 84 810 82 c 0
 838 81 869 99 873 128 c 0
 880 164 844 179 798 181 c 1
 806 236 l 1
 903 234 1001 208 987 115 c 0
 976 37 895 -12 799 -11 c 0
EndSplineSet
EndChar

StartChar: uni2155
Encoding: 8533 8533 158
Width: 873
VWidth: 0
Flags: HMW
LayerCount: 2
Fore
SplineSet
680 699 m 1
 823 699 l 1
 199 0 l 1
 55 0 l 1
 680 699 l 1
88 559 m 1
 106 660 l 1
 331 704 l 1
 256 274 l 1
 143 274 l 1
 196 584 l 1
 88 559 l 1
851 131 m 0
 838 37 743 -9 659 -10 c 0
 591 -11 538 9 492 34 c 1
 542 134 l 1
 574 111 608 97 639 97 c 0
 678 97 723 111 727 147 c 0
 730 180 693 191 663 192 c 0
 627 194 581 185 538 171 c 1
 623 224 l 1
 658 253 698 268 743 267 c 0
 813 265 861 208 851 131 c 0
708 316 m 1
 654 217 l 1
 532 166 l 1
 635 418 l 1
 889 418 l 1
 871 316 l 1
 708 316 l 1
EndSplineSet
EndChar

StartChar: uni2156
Encoding: 8534 8534 159
Width: 1016
VWidth: 0
Flags: HMW
LayerCount: 2
Fore
SplineSet
827 699 m 1
 970 699 l 1
 346 0 l 1
 202 0 l 1
 827 699 l 1
46 283 m 1
 257 470 l 2
 290 501 327 529 333 566 c 0
 335 588 324 610 296 611 c 0
 260 613 236 576 228 543 c 1
 113 544 l 1
 131 633 198 711 308 711 c 0
 401 711 465 648 453 573 c 0
 446 527 415 490 377 462 c 2
 282 390 l 1
 434 389 l 1
 416 282 l 1
 46 283 l 1
982 131 m 0
 969 37 874 -9 790 -10 c 0
 722 -11 669 9 623 34 c 1
 674 134 l 1
 706 111 739 97 770 97 c 0
 809 97 854 111 858 147 c 0
 861 180 824 191 794 192 c 0
 758 194 712 185 669 171 c 1
 755 224 l 1
 790 253 829 268 874 267 c 0
 944 265 992 208 982 131 c 0
839 316 m 1
 785 217 l 1
 663 166 l 1
 767 418 l 1
 1021 418 l 1
 1003 316 l 1
 839 316 l 1
EndSplineSet
EndChar

StartChar: uni2157
Encoding: 8535 8535 160
Width: 933
VWidth: 0
Flags: HMW
LayerCount: 2
Fore
SplineSet
748 699 m 1
 891 699 l 1
 267 0 l 1
 124 0 l 1
 748 699 l 1
214 483 m 1
 221 531 l 1
 258 534 300 552 305 584 c 0
 307 602 294 616 272 616 c 0
 243 616 224 595 216 572 c 1
 107 573 l 1
 125 650 188 707 280 708 c 0
 365 708 431 661 419 589 c 0
 406 506 306 485 214 483 c 1
210 269 m 0
 110 270 57 339 62 421 c 1
 175 420 l 1
 175 386 187 364 220 362 c 0
 248 361 280 379 284 408 c 0
 291 444 254 459 208 461 c 1
 218 516 l 1
 315 514 411 488 397 395 c 0
 386 317 306 268 210 269 c 0
895 131 m 0
 882 37 787 -9 703 -10 c 0
 635 -11 582 9 536 34 c 1
 587 134 l 1
 619 111 652 97 683 97 c 0
 722 97 767 111 771 147 c 0
 774 180 738 191 708 192 c 0
 672 194 625 185 582 171 c 1
 668 224 l 1
 703 253 742 268 787 267 c 0
 857 265 905 208 895 131 c 0
752 316 m 1
 699 217 l 1
 576 166 l 1
 680 418 l 1
 934 418 l 1
 916 316 l 1
 752 316 l 1
EndSplineSet
EndChar

StartChar: uni2158
Encoding: 8536 8536 161
Width: 1031
VWidth: 0
Flags: HMW
LayerCount: 2
Fore
SplineSet
813 699 m 1
 957 698 l 1
 333 -0 l 1
 190 -0 l 1
 813 699 l 1
47 352 m 1
 154 433 l 1
 335 434 l 1
 349 451 l 1
 465 451 l 1
 447 352 l 1
 47 352 l 1
177 391 m 1
 42 348 l 1
 348 699 l 1
 443 700 l 1
 371 280 l 1
 249 280 l 1
 264 373 l 1
 280 379 l 1
 306 534 l 1
 177 391 l 1
1000 130 m 0
 987 36 892 -10 808 -11 c 0
 740 -12 688 8 642 33 c 1
 693 133 l 1
 725 110 758 96 789 96 c 0
 828 96 873 110 877 146 c 0
 880 179 844 191 814 192 c 0
 778 194 731 184 688 170 c 1
 774 223 l 1
 809 252 848 267 893 266 c 0
 963 264 1010 207 1000 130 c 0
858 315 m 1
 804 216 l 1
 682 165 l 1
 786 417 l 1
 1040 417 l 1
 1021 315 l 1
 858 315 l 1
EndSplineSet
EndChar

StartChar: uni2159
Encoding: 8537 8537 162
Width: 887
VWidth: 0
Flags: HMW
LayerCount: 2
Fore
SplineSet
703 699 m 1
 846 699 l 1
 223 0 l 1
 79 0 l 1
 703 699 l 1
88 559 m 1
 106 660 l 1
 331 704 l 1
 256 274 l 1
 143 274 l 1
 196 584 l 1
 88 559 l 1
622 148 m 0
 618 115 637 88 670 87 c 0
 705 85 740 115 744 149 c 0
 748 182 731 209 698 211 c 0
 663 213 626 182 622 148 c 0
716 415 m 1
 870 415 l 1
 711 272 l 1
 680 260 l 1
 703 277 721 285 749 285 c 0
 816 286 869 224 860 148 c 0
 848 47 758 -12 661 -12 c 0
 565 -12 493 49 507 149 c 0
 515 199 547 239 581 275 c 1
 716 415 l 1
EndSplineSet
EndChar

StartChar: uni215A
Encoding: 8538 8538 163
Width: 926
VWidth: 0
Flags: HMW
LayerCount: 2
Fore
SplineSet
766 699 m 1
 909 699 l 1
 285 0 l 1
 142 0 l 1
 766 699 l 1
413 411 m 0
 400 317 306 271 222 270 c 0
 154 269 101 289 55 314 c 1
 106 414 l 1
 138 391 172 377 203 377 c 0
 242 377 286 391 290 427 c 0
 293 460 257 471 227 472 c 0
 191 474 145 465 102 451 c 1
 187 504 l 1
 222 533 261 548 306 547 c 0
 376 545 423 488 413 411 c 0
270 596 m 1
 217 497 l 1
 95 446 l 1
 198 698 l 1
 452 698 l 1
 435 596 l 1
 270 596 l 1
660 148 m 0
 656 115 675 88 708 87 c 0
 743 85 778 115 782 149 c 0
 786 182 769 209 736 211 c 0
 701 213 664 182 660 148 c 0
754 415 m 1
 908 415 l 1
 749 272 l 1
 718 260 l 1
 741 277 759 285 787 285 c 0
 854 286 907 224 898 148 c 0
 886 47 797 -12 700 -12 c 0
 604 -12 532 49 546 149 c 0
 554 199 585 239 619 275 c 1
 754 415 l 1
EndSplineSet
EndChar

StartChar: oneeighth
Encoding: 8539 8539 164
Width: 904
VWidth: 0
Flags: HMW
LayerCount: 2
Fore
SplineSet
703 699 m 1
 846 699 l 1
 223 0 l 1
 79 0 l 1
 703 699 l 1
88 559 m 1
 106 660 l 1
 331 704 l 1
 256 274 l 1
 143 274 l 1
 196 584 l 1
 88 559 l 1
595 320 m 0
 605 393 681 430 756 430 c 0
 829 430 901 393 890 318 c 0
 880 243 796 204 727 204 c 0
 659 204 585 243 595 320 c 0
702 307 m 0
 700 287 708 267 730 266 c 0
 752 265 776 287 779 309 c 0
 781 329 771 348 750 349 c 0
 727 350 705 329 702 307 c 0
545 115 m 0
 556 200 651 238 724 238 c 0
 795 238 880 200 869 113 c 0
 858 34 770 -10 690 -10 c 0
 612 -10 534 35 545 115 c 0
664 132 m 0
 661 107 674 84 699 83 c 0
 725 82 753 106 756 133 c 0
 759 155 745 178 721 179 c 0
 695 180 668 156 664 132 c 0
EndSplineSet
EndChar

StartChar: threeeighths
Encoding: 8540 8540 165
Width: 956
VWidth: 0
Flags: HMW
LayerCount: 2
Fore
SplineSet
756 699 m 1
 900 699 l 1
 275 0 l 1
 132 0 l 1
 756 699 l 1
214 483 m 1
 221 531 l 1
 258 534 300 552 305 584 c 0
 307 602 294 616 272 616 c 0
 243 616 224 595 216 572 c 1
 107 573 l 1
 125 650 188 707 280 708 c 0
 365 708 431 661 419 589 c 0
 406 506 306 485 214 483 c 1
210 269 m 0
 110 270 57 339 62 421 c 1
 175 420 l 1
 175 386 187 364 220 362 c 0
 248 361 280 379 284 408 c 0
 291 444 254 459 208 461 c 1
 218 516 l 1
 315 514 411 488 397 395 c 0
 386 317 306 268 210 269 c 0
647 320 m 0
 657 393 734 430 809 430 c 0
 882 430 953 393 942 318 c 0
 932 243 849 204 780 204 c 0
 712 204 637 243 647 320 c 0
754 307 m 0
 752 287 761 267 783 266 c 0
 805 265 828 287 831 309 c 0
 833 329 824 348 803 349 c 0
 780 350 757 329 754 307 c 0
598 115 m 0
 609 200 703 238 776 238 c 0
 847 238 932 200 921 113 c 0
 910 34 823 -10 743 -10 c 0
 665 -10 587 35 598 115 c 0
717 132 m 0
 714 107 727 84 752 83 c 0
 778 82 806 106 809 133 c 0
 812 155 798 178 774 179 c 0
 748 180 721 156 717 132 c 0
EndSplineSet
EndChar

StartChar: fiveeighths
Encoding: 8541 8541 166
Width: 966
VWidth: 0
Flags: HMW
LayerCount: 2
Fore
SplineSet
766 699 m 1
 909 699 l 1
 285 0 l 1
 142 0 l 1
 766 699 l 1
405 411 m 0
 392 317 297 271 213 270 c 0
 145 269 93 289 47 314 c 1
 98 414 l 1
 130 391 163 377 194 377 c 0
 233 377 278 391 282 427 c 0
 285 460 249 471 219 472 c 0
 183 474 137 465 94 451 c 1
 179 504 l 1
 214 533 253 548 298 547 c 0
 368 545 415 488 405 411 c 0
263 596 m 1
 209 497 l 1
 87 446 l 1
 191 698 l 1
 445 698 l 1
 427 596 l 1
 263 596 l 1
657 320 m 0
 667 393 744 430 819 430 c 0
 892 430 963 393 952 318 c 0
 942 243 858 204 789 204 c 0
 721 204 647 243 657 320 c 0
764 307 m 0
 762 287 771 267 793 266 c 0
 815 265 838 287 841 309 c 0
 843 329 834 348 813 349 c 0
 790 350 767 329 764 307 c 0
608 115 m 0
 619 200 713 238 786 238 c 0
 857 238 943 200 932 113 c 0
 921 34 833 -10 753 -10 c 0
 675 -10 597 35 608 115 c 0
727 132 m 0
 724 107 737 84 762 83 c 0
 788 82 816 106 819 133 c 0
 822 155 807 178 783 179 c 0
 757 180 731 156 727 132 c 0
EndSplineSet
EndChar

StartChar: seveneighths
Encoding: 8542 8542 167
Width: 860
VWidth: 0
Flags: HMW
LayerCount: 2
Fore
SplineSet
651 699 m 1
 794 699 l 1
 170 0 l 1
 26 0 l 1
 651 699 l 1
92 590 m 1
 112 700 l 1
 464 700 l 1
 194 281 l 1
 64 281 l 1
 271 590 l 1
 92 590 l 1
551 320 m 0
 561 393 637 430 712 430 c 0
 785 430 856 393 845 318 c 0
 835 243 752 204 683 204 c 0
 615 204 541 243 551 320 c 0
658 307 m 0
 656 287 664 267 686 266 c 0
 708 265 732 287 735 309 c 0
 737 329 727 348 706 349 c 0
 683 350 661 329 658 307 c 0
501 115 m 0
 512 200 606 238 679 238 c 0
 750 238 836 200 825 113 c 0
 814 34 726 -10 646 -10 c 0
 568 -10 490 35 501 115 c 0
620 132 m 0
 617 107 630 84 655 83 c 0
 681 82 709 106 712 133 c 0
 715 155 701 178 677 179 c 0
 651 180 624 156 620 132 c 0
EndSplineSet
EndChar

StartChar: uni2074
Encoding: 8308 8308 168
Width: 425
VWidth: 0
Flags: HMW
LayerCount: 2
Fore
SplineSet
39 352 m 1
 146 433 l 1
 327 434 l 1
 340 451 l 1
 457 451 l 1
 440 352 l 1
 39 352 l 1
169 391 m 1
 34 348 l 1
 340 699 l 1
 435 700 l 1
 363 280 l 1
 241 280 l 1
 256 373 l 1
 272 379 l 1
 298 534 l 1
 169 391 l 1
EndSplineSet
EndChar

StartChar: uni2075
Encoding: 8309 8309 169
Width: 384
VWidth: 0
Flags: HMW
LayerCount: 2
Fore
SplineSet
405 411 m 0
 392 317 297 271 213 270 c 0
 145 269 93 289 47 314 c 1
 98 414 l 1
 130 391 163 377 194 377 c 0
 233 377 278 391 282 427 c 0
 285 460 249 471 219 472 c 0
 183 474 137 465 94 451 c 1
 179 504 l 1
 214 533 253 548 298 547 c 0
 368 545 415 488 405 411 c 0
263 596 m 1
 209 497 l 1
 87 446 l 1
 191 698 l 1
 445 698 l 1
 427 596 l 1
 263 596 l 1
EndSplineSet
EndChar

StartChar: uni2076
Encoding: 8310 8310 170
Width: 383
VWidth: 0
Flags: HMW
LayerCount: 2
Fore
SplineSet
176 428 m 0
 172 395 192 368 225 367 c 0
 260 365 295 395 299 429 c 0
 303 462 285 489 252 491 c 0
 217 493 180 462 176 428 c 0
270 695 m 1
 424 695 l 1
 266 552 l 1
 235 540 l 1
 258 557 275 565 303 565 c 0
 370 566 423 504 414 428 c 0
 402 327 313 268 216 268 c 0
 120 268 48 329 62 429 c 0
 70 479 101 519 135 555 c 1
 270 695 l 1
EndSplineSet
EndChar

StartChar: uni2077
Encoding: 8311 8311 171
Width: 374
VWidth: 0
Flags: HMW
LayerCount: 2
Fore
SplineSet
92 590 m 1
 112 700 l 1
 464 700 l 1
 194 281 l 1
 64 281 l 1
 271 590 l 1
 92 590 l 1
EndSplineSet
EndChar

StartChar: uni2078
Encoding: 8312 8312 172
Width: 362
VWidth: 0
Flags: HMW
LayerCount: 2
Fore
SplineSet
108 600 m 0
 118 673 195 710 270 710 c 0
 343 710 414 673 403 598 c 0
 393 523 309 484 240 484 c 0
 172 484 98 523 108 600 c 0
215 587 m 0
 213 567 221 547 243 546 c 0
 265 545 289 567 292 589 c 0
 294 609 284 628 263 629 c 0
 240 630 218 609 215 587 c 0
59 395 m 0
 70 480 164 518 237 518 c 0
 308 518 393 480 382 393 c 0
 371 314 284 270 204 270 c 0
 126 270 48 315 59 395 c 0
178 412 m 0
 175 387 187 364 212 363 c 0
 238 362 266 386 269 413 c 0
 272 435 259 458 235 459 c 0
 209 460 182 436 178 412 c 0
EndSplineSet
EndChar

StartChar: uni2079
Encoding: 8313 8313 173
Width: 379
VWidth: 0
Flags: HMW
LayerCount: 2
Fore
SplineSet
319 552 m 0
 323 585 305 612 272 613 c 0
 237 615 201 585 197 551 c 0
 193 518 212 491 245 489 c 0
 280 487 315 518 319 552 c 0
226 285 m 1
 72 285 l 1
 231 428 l 1
 262 440 l 1
 239 423 220 415 192 415 c 0
 125 415 74 476 83 552 c 0
 96 653 184 712 281 712 c 0
 377 712 449 651 435 551 c 0
 427 501 395 461 361 425 c 1
 226 285 l 1
EndSplineSet
EndChar

StartChar: uni2070
Encoding: 8304 8304 174
Width: 384
VWidth: 0
Flags: HMW
LayerCount: 2
Fore
SplineSet
184 490 m 0
 179 439 179 375 225 372 c 0
 272 369 307 433 315 490 c 0
 320 541 319 605 273 608 c 0
 226 611 192 547 184 490 c 0
72 490 m 0
 88 612 168 709 281 709 c 0
 399 709 441 608 426 490 c 0
 410 368 333 271 217 271 c 0
 102 271 57 373 72 490 c 0
EndSplineSet
EndChar

StartChar: uni2080
Encoding: 8320 8320 175
Width: 384
VWidth: 0
Flags: HMW
LayerCount: 2
Fore
SplineSet
136 210 m 0
 131 159 131 95 177 92 c 0
 224 89 259 153 267 210 c 0
 272 261 271 325 225 328 c 0
 178 331 144 267 136 210 c 0
24 210 m 0
 40 332 120 429 233 429 c 0
 351 429 393 328 378 210 c 0
 362 88 285 -9 169 -9 c 0
 54 -9 9 93 24 210 c 0
EndSplineSet
EndChar

StartChar: uni2084
Encoding: 8324 8324 176
Width: 432
VWidth: 0
Flags: HMW
LayerCount: 2
Fore
SplineSet
-10 72 m 1
 97 153 l 1
 278 154 l 1
 291 171 l 1
 408 171 l 1
 390 72 l 1
 -10 72 l 1
119 111 m 1
 -15 68 l 1
 290 419 l 1
 386 420 l 1
 314 0 l 1
 191 0 l 1
 207 93 l 1
 222 99 l 1
 249 254 l 1
 119 111 l 1
EndSplineSet
EndChar

StartChar: uni2085
Encoding: 8325 8325 177
Width: 395
VWidth: 0
Flags: HMW
LayerCount: 2
Fore
SplineSet
362 131 m 0
 349 37 254 -9 170 -10 c 0
 102 -11 49 9 3 34 c 1
 54 134 l 1
 86 111 119 97 150 97 c 0
 189 97 234 111 238 147 c 0
 241 180 205 191 175 192 c 0
 139 194 93 185 50 171 c 1
 135 224 l 1
 170 253 209 268 254 267 c 0
 324 265 372 208 362 131 c 0
219 316 m 1
 165 217 l 1
 44 166 l 1
 147 418 l 1
 401 418 l 1
 383 316 l 1
 219 316 l 1
EndSplineSet
EndChar

StartChar: uni2086
Encoding: 8326 8326 178
Width: 397
VWidth: 0
Flags: HMW
LayerCount: 2
Fore
SplineSet
133 148 m 0
 129 115 148 88 181 87 c 0
 216 85 252 115 256 149 c 0
 260 182 242 209 209 211 c 0
 174 213 137 182 133 148 c 0
227 415 m 1
 381 415 l 1
 222 272 l 1
 192 260 l 1
 215 277 232 285 260 285 c 0
 327 286 380 224 371 148 c 0
 359 47 270 -12 173 -12 c 0
 77 -12 5 49 19 149 c 0
 27 199 58 239 92 275 c 1
 227 415 l 1
EndSplineSet
EndChar

StartChar: uni2087
Encoding: 8327 8327 179
Width: 381
VWidth: 0
Flags: HMW
LayerCount: 2
Fore
SplineSet
49 310 m 1
 69 420 l 1
 422 420 l 1
 152 0 l 1
 21 0 l 1
 227 310 l 1
 49 310 l 1
EndSplineSet
EndChar

StartChar: uni2088
Encoding: 8328 8328 180
Width: 371
VWidth: 0
Flags: HMW
LayerCount: 2
Fore
SplineSet
66 320 m 0
 76 393 153 430 228 430 c 0
 301 430 372 393 361 318 c 0
 351 243 267 204 198 204 c 0
 130 204 56 243 66 320 c 0
173 307 m 0
 171 287 179 267 201 266 c 0
 223 265 247 287 250 309 c 0
 252 329 242 348 221 349 c 0
 198 350 176 329 173 307 c 0
16 115 m 0
 27 200 121 238 194 238 c 0
 265 238 351 200 340 113 c 0
 329 34 242 -10 162 -10 c 0
 84 -10 5 35 16 115 c 0
135 132 m 0
 132 107 145 84 170 83 c 0
 196 82 224 106 227 133 c 0
 230 155 216 178 192 179 c 0
 166 180 139 156 135 132 c 0
EndSplineSet
EndChar

StartChar: uni2089
Encoding: 8329 8329 181
Width: 402
VWidth: 0
Flags: HMW
LayerCount: 2
Fore
SplineSet
280 272 m 0
 284 305 265 332 232 333 c 0
 197 335 161 305 157 271 c 0
 153 238 171 211 204 209 c 0
 239 207 276 238 280 272 c 0
186 5 m 1
 31 5 l 1
 191 148 l 1
 222 160 l 1
 199 143 181 135 153 135 c 0
 86 135 33 196 42 272 c 0
 55 373 144 432 241 432 c 0
 337 432 408 371 394 271 c 0
 386 221 355 181 321 145 c 1
 186 5 l 1
EndSplineSet
EndChar

StartChar: uni2081
Encoding: 8321 8321 182
Width: 363
VWidth: 0
Flags: HMW
LayerCount: 2
Fore
SplineSet
107 286 m 1
 125 387 l 1
 350 431 l 1
 275 1 l 1
 163 1 l 1
 216 311 l 1
 107 286 l 1
EndSplineSet
EndChar

StartChar: uni2082
Encoding: 8322 8322 183
Width: 417
VWidth: 0
Flags: HMW
LayerCount: 2
Fore
SplineSet
-3 3 m 1
 208 190 l 2
 241 221 278 249 284 286 c 0
 286 308 276 330 248 331 c 0
 212 333 187 296 179 263 c 1
 64 264 l 1
 82 353 149 431 259 431 c 0
 352 431 416 368 404 293 c 0
 397 247 366 210 328 182 c 2
 233 110 l 1
 385 109 l 1
 367 2 l 1
 -3 3 l 1
EndSplineSet
EndChar

StartChar: uni2083
Encoding: 8323 8323 184
Width: 378
VWidth: 0
Flags: HMW
LayerCount: 2
Fore
SplineSet
167 203 m 1
 174 251 l 1
 211 254 253 272 258 304 c 0
 260 322 248 336 226 336 c 0
 197 336 177 315 169 292 c 1
 60 293 l 1
 78 370 141 427 233 428 c 0
 318 428 384 381 372 309 c 0
 359 226 259 205 167 203 c 1
163 -11 m 0
 63 -10 10 59 15 141 c 1
 128 140 l 1
 128 106 141 84 174 82 c 0
 202 81 233 99 237 128 c 0
 244 164 207 179 161 181 c 1
 170 236 l 1
 267 234 365 208 351 115 c 0
 340 37 259 -12 163 -11 c 0
EndSplineSet
EndChar

StartChar: Agrave
Encoding: 192 192 185
Width: 735
VWidth: 0
Flags: HMW
LayerCount: 2
Fore
SplineSet
181 111 m 1
 211 255 l 1
 563 255 l 1
 543 111 l 1
 181 111 l 1
414 410 m 1
 289 202 l 1
 294 157 l 1
 189 0 l 1
 -34 0 l 1
 467 750 l 1
 712 0 l 1
 498 0 l 1
 445 151 l 1
 465 201 l 1
 414 410 l 1
339 960 m 1
 470 1014 l 1
 591 850 l 1
 492 808 l 1
 339 960 l 1
EndSplineSet
EndChar

StartChar: Aacute
Encoding: 193 193 186
Width: 735
VWidth: 0
Flags: HMW
LayerCount: 2
Fore
SplineSet
181 111 m 1
 211 255 l 1
 563 255 l 1
 543 111 l 1
 181 111 l 1
414 410 m 1
 289 202 l 1
 294 157 l 1
 189 0 l 1
 -34 0 l 1
 467 750 l 1
 712 0 l 1
 498 0 l 1
 445 151 l 1
 465 201 l 1
 414 410 l 1
668 954 m 1
 471 808 l 1
 377 857 l 1
 547 1013 l 1
 668 954 l 1
EndSplineSet
EndChar

StartChar: Acircumflex
Encoding: 194 194 187
Width: 735
VWidth: 0
Flags: HMW
LayerCount: 2
Fore
SplineSet
181 111 m 1
 211 255 l 1
 563 255 l 1
 543 111 l 1
 181 111 l 1
414 410 m 1
 289 202 l 1
 294 157 l 1
 189 0 l 1
 -34 0 l 1
 467 750 l 1
 712 0 l 1
 498 0 l 1
 445 151 l 1
 465 201 l 1
 414 410 l 1
496 882 m 1
 399 800 l 1
 288 885 l 1
 511 1022 l 1
 695 878 l 1
 564 799 l 1
 496 882 l 1
EndSplineSet
EndChar

StartChar: Atilde
Encoding: 195 195 188
Width: 735
VWidth: 0
Flags: HMW
LayerCount: 2
Fore
SplineSet
181 111 m 1
 211 255 l 1
 563 255 l 1
 543 111 l 1
 181 111 l 1
414 410 m 1
 289 202 l 1
 294 157 l 1
 189 0 l 1
 -34 0 l 1
 467 750 l 1
 712 0 l 1
 498 0 l 1
 445 151 l 1
 465 201 l 1
 414 410 l 1
290 881 m 1
 311 929 357 978 423 976 c 0
 479 975 500 923 551 925 c 0
 582 926 606 951 628 978 c 1
 695 892 l 1
 668 853 608 803 545 805 c 0
 495 807 461 863 413 859 c 0
 380 857 366 827 358 809 c 1
 290 881 l 1
EndSplineSet
EndChar

StartChar: Adieresis
Encoding: 196 196 189
Width: 735
VWidth: 0
Flags: HMW
LayerCount: 2
Fore
SplineSet
181 111 m 1
 211 255 l 1
 563 255 l 1
 543 111 l 1
 181 111 l 1
414 410 m 1
 289 202 l 1
 294 157 l 1
 189 0 l 1
 -34 0 l 1
 467 750 l 1
 712 0 l 1
 498 0 l 1
 445 151 l 1
 465 201 l 1
 414 410 l 1
534 825 m 0
 541 876 591 913 643 913 c 0
 695 913 735 874 728 822 c 0
 721 771 671 734 619 734 c 0
 567 734 527 773 534 825 c 0
229 833 m 0
 236 884 286 922 338 922 c 0
 390 922 430 883 423 831 c 0
 416 780 367 742 315 742 c 0
 263 742 222 781 229 833 c 0
EndSplineSet
EndChar

StartChar: Aring
Encoding: 197 197 190
Width: 735
VWidth: 0
Flags: HMW
LayerCount: 2
Fore
SplineSet
181 111 m 1
 211 255 l 1
 563 255 l 1
 543 111 l 1
 181 111 l 1
414 410 m 1
 289 202 l 1
 294 157 l 1
 189 0 l 1
 -34 0 l 1
 467 750 l 1
 712 0 l 1
 498 0 l 1
 445 151 l 1
 465 201 l 1
 414 410 l 1
348 803 m 0
 357 871 422 921 493 921 c 0
 564 921 617 870 607 801 c 0
 598 732 533 681 461 681 c 0
 390 681 338 734 348 803 c 0
434 801 m 0
 431 779 444 757 466 756 c 0
 490 755 518 779 521 803 c 0
 524 825 510 846 488 847 c 0
 464 848 437 825 434 801 c 0
EndSplineSet
EndChar

StartChar: AE
Encoding: 198 198 191
Width: 1090
VWidth: 0
Flags: HMW
LayerCount: 2
Fore
SplineSet
272 132 m 1
 311 311 l 1
 605 311 l 1
 574 132 l 1
 272 132 l 1
522 700 m 1
 701 658 l 1
 237 0 l 1
 -14 0 l 1
 522 700 l 1
612 0 m 1
 640 158 l 1
 1026 158 l 1
 998 0 l 1
 612 0 l 1
719 542 m 1
 522 700 l 1
 1118 700 l 1
 1090 542 l 1
 719 542 l 1
661 287 m 1
 688 441 l 1
 1055 441 l 1
 1028 287 l 1
 661 287 l 1
642 700 m 1
 852 700 l 1
 732 0 l 1
 523 0 l 1
 642 700 l 1
EndSplineSet
EndChar

StartChar: Ccedilla
Encoding: 199 199 192
Width: 684
VWidth: 0
Flags: HMW
LayerCount: 2
Fore
SplineSet
273 350 m 0
 256 246 319 170 424 168 c 0
 516 167 582 211 639 256 c 1
 609 50 l 1
 547 10 481 -18 390 -18 c 0
 168 -18 31 141 62 350 c 0
 95 565 276 718 504 718 c 0
 592 718 652 692 708 649 c 1
 677 443 l 1
 636 494 580 532 496 532 c 0
 389 532 292 459 273 350 c 0
317 44 m 1
 447 40 l 1
 330 -85 l 1
 343 -82 356 -81 371 -81 c 0
 420 -83 461 -126 453 -187 c 0
 443 -259 369 -297 303 -299 c 0
 245 -300 197 -287 147 -258 c 1
 205 -183 l 1
 230 -199 262 -208 284 -208 c 0
 310 -208 346 -195 348 -172 c 0
 350 -148 316 -143 294 -143 c 0
 273 -142 236 -147 201 -157 c 1
 317 44 l 1
EndSplineSet
EndChar

StartChar: Egrave
Encoding: 200 200 193
Width: 600
VWidth: 0
Flags: HMW
LayerCount: 2
Fore
SplineSet
170 0 m 1
 198 158 l 1
 544 158 l 1
 516 0 l 1
 170 0 l 1
263 542 m 1
 290 700 l 1
 636 700 l 1
 609 542 l 1
 263 542 l 1
219 287 m 1
 246 441 l 1
 572 441 l 1
 545 287 l 1
 219 287 l 1
160 700 m 1
 346 700 l 1
 226 0 l 1
 41 0 l 1
 160 700 l 1
272 939 m 1
 403 994 l 1
 524 830 l 1
 425 787 l 1
 272 939 l 1
EndSplineSet
EndChar

StartChar: Eacute
Encoding: 201 201 194
Width: 600
VWidth: 0
Flags: HMW
LayerCount: 2
Fore
SplineSet
170 0 m 1
 198 158 l 1
 544 158 l 1
 516 0 l 1
 170 0 l 1
263 542 m 1
 290 700 l 1
 636 700 l 1
 609 542 l 1
 263 542 l 1
219 287 m 1
 246 441 l 1
 572 441 l 1
 545 287 l 1
 219 287 l 1
160 700 m 1
 346 700 l 1
 226 0 l 1
 41 0 l 1
 160 700 l 1
602 933 m 1
 405 787 l 1
 311 836 l 1
 482 992 l 1
 602 933 l 1
EndSplineSet
EndChar

StartChar: Ecircumflex
Encoding: 202 202 195
Width: 600
VWidth: 0
Flags: HMW
LayerCount: 2
Fore
SplineSet
170 0 m 1
 198 158 l 1
 544 158 l 1
 516 0 l 1
 170 0 l 1
263 542 m 1
 290 700 l 1
 636 700 l 1
 609 542 l 1
 263 542 l 1
219 287 m 1
 246 441 l 1
 572 441 l 1
 545 287 l 1
 219 287 l 1
160 700 m 1
 346 700 l 1
 226 0 l 1
 41 0 l 1
 160 700 l 1
437 889 m 1
 312 795 l 1
 266 838 l 1
 442 975 l 1
 579 832 l 1
 527 795 l 1
 437 889 l 1
EndSplineSet
EndChar

StartChar: Edieresis
Encoding: 203 203 196
Width: 600
VWidth: 0
Flags: HMW
LayerCount: 2
Fore
SplineSet
170 0 m 1
 198 158 l 1
 544 158 l 1
 516 0 l 1
 170 0 l 1
263 542 m 1
 290 700 l 1
 636 700 l 1
 609 542 l 1
 263 542 l 1
219 287 m 1
 246 441 l 1
 572 441 l 1
 545 287 l 1
 219 287 l 1
160 700 m 1
 346 700 l 1
 226 0 l 1
 41 0 l 1
 160 700 l 1
458 874 m 0
 465 925 514 962 566 962 c 0
 618 962 658 922 651 870 c 0
 644 819 595 782 543 782 c 0
 491 782 451 822 458 874 c 0
208 874 m 0
 215 925 264 962 316 962 c 0
 368 962 408 922 401 870 c 0
 394 819 345 782 293 782 c 0
 241 782 201 822 208 874 c 0
EndSplineSet
EndChar

StartChar: Igrave
Encoding: 204 204 197
Width: 333
VWidth: 0
Flags: HMW
LayerCount: 2
Fore
SplineSet
160 700 m 1
 358 700 l 1
 238 0 l 1
 41 0 l 1
 160 700 l 1
126 939 m 1
 256 994 l 1
 377 830 l 1
 278 787 l 1
 126 939 l 1
EndSplineSet
EndChar

StartChar: Iacute
Encoding: 205 205 198
Width: 333
VWidth: 0
Flags: HMW
LayerCount: 2
Fore
SplineSet
160 700 m 1
 358 700 l 1
 238 0 l 1
 41 0 l 1
 160 700 l 1
455 933 m 1
 258 787 l 1
 165 836 l 1
 334 992 l 1
 455 933 l 1
EndSplineSet
EndChar

StartChar: Icircumflex
Encoding: 206 206 199
Width: 333
VWidth: 0
Flags: HMW
LayerCount: 2
Fore
SplineSet
160 700 m 1
 358 700 l 1
 238 0 l 1
 41 0 l 1
 160 700 l 1
288 889 m 1
 164 795 l 1
 117 838 l 1
 294 975 l 1
 430 832 l 1
 378 795 l 1
 288 889 l 1
EndSplineSet
EndChar

StartChar: Idieresis
Encoding: 207 207 200
Width: 333
VWidth: 0
Flags: HMW
LayerCount: 2
Fore
SplineSet
160 700 m 1
 358 700 l 1
 238 0 l 1
 41 0 l 1
 160 700 l 1
317 870 m 0
 324 921 373 958 425 958 c 0
 477 958 517 919 510 867 c 0
 503 816 454 779 402 779 c 0
 350 779 310 818 317 870 c 0
67 870 m 0
 74 921 123 958 175 958 c 0
 227 958 267 919 260 867 c 0
 253 816 204 779 152 779 c 0
 100 779 60 818 67 870 c 0
EndSplineSet
EndChar

StartChar: Ntilde
Encoding: 209 209 201
Width: 775
VWidth: 0
Flags: HMW
LayerCount: 2
Fore
SplineSet
615 700 m 1
 801 700 l 1
 676 -33 l 1
 288 354 l 1
 226 0 l 1
 41 0 l 1
 166 733 l 1
 554 346 l 1
 615 700 l 1
269 848 m 1
 290 896 337 946 403 944 c 0
 459 943 478 890 529 892 c 0
 560 893 585 919 607 946 c 1
 674 860 l 1
 647 821 587 771 524 773 c 0
 474 775 440 831 392 827 c 0
 359 825 345 795 337 777 c 1
 269 848 l 1
EndSplineSet
EndChar

StartChar: Eth
Encoding: 208 208 202
Width: 726
VWidth: 0
Flags: HMW
LayerCount: 2
Fore
SplineSet
28 300 m 1
 48 408 l 1
 405 408 l 1
 386 300 l 1
 28 300 l 1
160 700 m 1
 362 700 l 1
 242 0 l 1
 41 0 l 1
 160 700 l 1
304 0 m 1
 170 0 l 1
 201 172 l 1
 314 172 l 1
 417 174 510 224 530 350 c 0
 549 471 485 525 385 528 c 1
 260 528 l 1
 290 700 l 1
 412 700 l 1
 632 697 762 557 731 350 c 0
 699 137 530 3 304 0 c 1
EndSplineSet
EndChar

StartChar: Ograve
Encoding: 210 210 203
Width: 805
VWidth: 0
Flags: HMW
LayerCount: 2
Fore
SplineSet
266 350 m 0
 251 253 291 161 398 160 c 0
 506 159 588 246 606 350 c 0
 622 448 584 539 474 540 c 0
 366 541 284 454 266 350 c 0
62 350 m 0
 94 561 277 718 493 718 c 0
 707 718 840 555 810 350 c 0
 778 138 599 -27 377 -27 c 0
 159 -27 32 145 62 350 c 0
384 939 m 1
 514 994 l 1
 635 830 l 1
 537 787 l 1
 384 939 l 1
EndSplineSet
EndChar

StartChar: Oacute
Encoding: 211 211 204
Width: 805
VWidth: 0
Flags: HMW
LayerCount: 2
Fore
SplineSet
266 350 m 0
 251 253 291 161 398 160 c 0
 506 159 588 246 606 350 c 0
 622 448 584 539 474 540 c 0
 366 541 284 454 266 350 c 0
62 350 m 0
 94 561 277 718 493 718 c 0
 707 718 840 555 810 350 c 0
 778 138 599 -27 377 -27 c 0
 159 -27 32 145 62 350 c 0
709 933 m 1
 513 787 l 1
 419 836 l 1
 588 992 l 1
 709 933 l 1
EndSplineSet
EndChar

StartChar: Ocircumflex
Encoding: 212 212 205
Width: 805
VWidth: 0
Flags: HMW
LayerCount: 2
Fore
SplineSet
266 350 m 0
 251 253 291 161 398 160 c 0
 506 159 588 246 606 350 c 0
 622 448 584 539 474 540 c 0
 366 541 284 454 266 350 c 0
62 350 m 0
 94 561 277 718 493 718 c 0
 707 718 840 555 810 350 c 0
 778 138 599 -27 377 -27 c 0
 159 -27 32 145 62 350 c 0
545 889 m 1
 421 795 l 1
 374 838 l 1
 551 975 l 1
 687 832 l 1
 635 795 l 1
 545 889 l 1
EndSplineSet
EndChar

StartChar: Otilde
Encoding: 213 213 206
Width: 805
VWidth: 0
Flags: HMW
LayerCount: 2
Fore
SplineSet
266 350 m 0
 251 253 291 161 398 160 c 0
 506 159 588 246 606 350 c 0
 622 448 584 539 474 540 c 0
 366 541 284 454 266 350 c 0
62 350 m 0
 94 561 277 718 493 718 c 0
 707 718 840 555 810 350 c 0
 778 138 599 -27 377 -27 c 0
 159 -27 32 145 62 350 c 0
365 855 m 1
 365 899 440 935 476 935 c 0
 528 934 541 887 588 889 c 0
 612 890 632 912 652 936 c 1
 694 891 l 1
 672 857 631 819 583 821 c 0
 537 823 515 868 473 867 c 0
 437 866 422 834 414 816 c 1
 365 855 l 1
EndSplineSet
EndChar

StartChar: Odieresis
Encoding: 214 214 207
Width: 805
VWidth: 0
Flags: HMW
LayerCount: 2
Fore
SplineSet
266 350 m 0
 251 253 291 161 398 160 c 0
 506 159 588 246 606 350 c 0
 622 448 584 539 474 540 c 0
 366 541 284 454 266 350 c 0
62 350 m 0
 94 561 277 718 493 718 c 0
 707 718 840 555 810 350 c 0
 778 138 599 -27 377 -27 c 0
 159 -27 32 145 62 350 c 0
553 870 m 0
 560 921 610 958 662 958 c 0
 714 958 754 919 747 867 c 0
 740 816 690 779 638 779 c 0
 586 779 546 818 553 870 c 0
303 870 m 0
 310 921 359 958 411 958 c 0
 463 958 504 919 497 867 c 0
 490 816 440 779 388 779 c 0
 336 779 296 818 303 870 c 0
EndSplineSet
EndChar

StartChar: Ugrave
Encoding: 217 217 208
Width: 702
VWidth: 0
Flags: HMW
LayerCount: 2
Fore
SplineSet
156 700 m 1
 349 700 l 1
 270 247 l 2
 263 192 280 141 344 140 c 0
 409 139 450 189 461 247 c 1
 540 700 l 1
 733 700 l 1
 653 230 l 2
 625 58 489 -35 324 -35 c 0
 164 -35 54 59 76 230 c 1
 156 700 l 1
318 931 m 1
 448 985 l 1
 569 821 l 1
 470 778 l 1
 318 931 l 1
EndSplineSet
EndChar

StartChar: Uacute
Encoding: 218 218 209
Width: 702
VWidth: 0
Flags: HMW
LayerCount: 2
Fore
SplineSet
156 700 m 1
 349 700 l 1
 270 247 l 2
 263 192 280 141 344 140 c 0
 409 139 450 189 461 247 c 1
 540 700 l 1
 733 700 l 1
 653 230 l 2
 625 58 489 -35 324 -35 c 0
 164 -35 54 59 76 230 c 1
 156 700 l 1
651 925 m 1
 453 779 l 1
 359 828 l 1
 530 984 l 1
 651 925 l 1
EndSplineSet
EndChar

StartChar: Ucircumflex
Encoding: 219 219 210
Width: 702
VWidth: 0
Flags: HMW
LayerCount: 2
Fore
SplineSet
156 700 m 1
 349 700 l 1
 270 247 l 2
 263 192 280 141 344 140 c 0
 409 139 450 189 461 247 c 1
 540 700 l 1
 733 700 l 1
 653 230 l 2
 625 58 489 -35 324 -35 c 0
 164 -35 54 59 76 230 c 1
 156 700 l 1
475 860 m 1
 379 779 l 1
 268 863 l 1
 491 999 l 1
 675 857 l 1
 544 778 l 1
 475 860 l 1
EndSplineSet
EndChar

StartChar: Udieresis
Encoding: 220 220 211
Width: 702
VWidth: 0
Flags: HMW
LayerCount: 2
Fore
SplineSet
156 700 m 1
 349 700 l 1
 270 247 l 2
 263 192 280 141 344 140 c 0
 409 139 450 189 461 247 c 1
 540 700 l 1
 733 700 l 1
 653 230 l 2
 625 58 489 -35 324 -35 c 0
 164 -35 54 59 76 230 c 1
 156 700 l 1
525 870 m 0
 532 921 582 958 634 958 c 0
 686 958 726 919 719 867 c 0
 712 816 663 779 611 779 c 0
 559 779 518 818 525 870 c 0
227 870 m 0
 234 921 284 958 336 958 c 0
 388 958 428 919 421 867 c 0
 414 816 364 779 312 779 c 0
 260 779 220 818 227 870 c 0
EndSplineSet
EndChar

StartChar: Yacute
Encoding: 221 221 212
Width: 670
VWidth: 0
Flags: HMW
LayerCount: 2
Fore
SplineSet
634 925 m 1
 438 779 l 1
 344 828 l 1
 513 984 l 1
 634 925 l 1
544 700 m 1
 771 700 l 1
 455 275 l 1
 408 0 l 1
 210 0 l 1
 260 283 l 1
 90 700 l 1
 309 700 l 1
 385 460 l 1
 544 700 l 1
EndSplineSet
EndChar

StartChar: agrave
Encoding: 224 224 213
Width: 612
VWidth: 0
Flags: HMW
LayerCount: 2
Fore
SplineSet
442 460 m 1
 615 460 l 1
 535 0 l 1
 364 0 l 1
 442 460 l 1
41 230 m 0
 59 368 167 470 287 470 c 0
 411 470 463 356 447 230 c 0
 429 98 339 -10 216 -10 c 0
 95 -10 25 97 41 230 c 0
221 230 m 0
 213 179 238 128 291 127 c 0
 341 126 393 174 402 230 c 0
 410 282 382 331 334 333 c 0
 280 335 230 285 221 230 c 0
224 684 m 1
 354 738 l 1
 475 574 l 1
 376 531 l 1
 224 684 l 1
EndSplineSet
Substitution2: "alt a" agrave.alt
EndChar

StartChar: aacute
Encoding: 225 225 214
Width: 612
VWidth: 0
Flags: HMW
LayerCount: 2
Fore
SplineSet
442 460 m 1
 615 460 l 1
 535 0 l 1
 364 0 l 1
 442 460 l 1
41 230 m 0
 59 368 167 470 287 470 c 0
 411 470 463 356 447 230 c 0
 429 98 339 -10 216 -10 c 0
 95 -10 25 97 41 230 c 0
221 230 m 0
 213 179 238 128 291 127 c 0
 341 126 393 174 402 230 c 0
 410 282 382 331 334 333 c 0
 280 335 230 285 221 230 c 0
544 678 m 1
 346 531 l 1
 253 580 l 1
 423 737 l 1
 544 678 l 1
EndSplineSet
Substitution2: "alt a" aacute.alt
EndChar

StartChar: acircumflex
Encoding: 226 226 215
Width: 612
VWidth: 0
Flags: HMW
LayerCount: 2
Fore
SplineSet
442 460 m 1
 615 460 l 1
 535 0 l 1
 364 0 l 1
 442 460 l 1
41 230 m 0
 59 368 167 470 287 470 c 0
 411 470 463 356 447 230 c 0
 429 98 339 -10 216 -10 c 0
 95 -10 25 97 41 230 c 0
221 230 m 0
 213 179 238 128 291 127 c 0
 341 126 393 174 402 230 c 0
 410 282 382 331 334 333 c 0
 280 335 230 285 221 230 c 0
396 612 m 1
 299 531 l 1
 188 615 l 1
 411 752 l 1
 596 609 l 1
 465 530 l 1
 396 612 l 1
EndSplineSet
Substitution2: "alt a" acircumflex.alt
EndChar

StartChar: atilde
Encoding: 227 227 216
Width: 612
VWidth: 0
Flags: HMW
LayerCount: 2
Fore
SplineSet
442 460 m 1
 615 460 l 1
 535 0 l 1
 364 0 l 1
 442 460 l 1
41 230 m 0
 59 368 167 470 287 470 c 0
 411 470 463 356 447 230 c 0
 429 98 339 -10 216 -10 c 0
 95 -10 25 97 41 230 c 0
221 230 m 0
 213 179 238 128 291 127 c 0
 341 126 393 174 402 230 c 0
 410 282 382 331 334 333 c 0
 280 335 230 285 221 230 c 0
198 607 m 1
 218 657 263 704 331 704 c 0
 387 704 407 649 458 651 c 0
 489 652 514 678 536 705 c 1
 603 619 l 1
 576 580 516 530 453 532 c 0
 403 534 369 590 321 586 c 0
 288 584 275 554 266 536 c 1
 198 607 l 1
EndSplineSet
Substitution2: "alt a" atilde.alt
EndChar

StartChar: adieresis
Encoding: 228 228 217
Width: 612
VWidth: 0
Flags: HMW
LayerCount: 2
Fore
SplineSet
442 460 m 1
 615 460 l 1
 535 0 l 1
 364 0 l 1
 442 460 l 1
41 230 m 0
 59 368 167 470 287 470 c 0
 411 470 463 356 447 230 c 0
 429 98 339 -10 216 -10 c 0
 95 -10 25 97 41 230 c 0
221 230 m 0
 213 179 238 128 291 127 c 0
 341 126 393 174 402 230 c 0
 410 282 382 331 334 333 c 0
 280 335 230 285 221 230 c 0
413 623 m 0
 420 674 470 711 522 711 c 0
 574 711 614 672 607 620 c 0
 600 569 551 531 499 531 c 0
 447 531 406 571 413 623 c 0
163 623 m 0
 170 674 220 711 272 711 c 0
 324 711 364 672 357 620 c 0
 350 569 301 531 249 531 c 0
 197 531 156 571 163 623 c 0
EndSplineSet
Substitution2: "alt a" adieresis.alt
EndChar

StartChar: aring
Encoding: 229 229 218
Width: 612
VWidth: 0
Flags: HMW
LayerCount: 2
Fore
SplineSet
442 460 m 1
 615 460 l 1
 535 0 l 1
 364 0 l 1
 442 460 l 1
41 230 m 0
 59 368 167 470 287 470 c 0
 411 470 463 356 447 230 c 0
 429 98 339 -10 216 -10 c 0
 95 -10 25 97 41 230 c 0
221 230 m 0
 213 179 238 128 291 127 c 0
 341 126 393 174 402 230 c 0
 410 282 382 331 334 333 c 0
 280 335 230 285 221 230 c 0
256 652 m 0
 265 720 330 772 401 772 c 0
 472 772 526 719 516 650 c 0
 507 581 441 531 369 531 c 0
 298 531 246 583 256 652 c 0
342 651 m 0
 339 629 352 607 374 606 c 0
 398 605 426 628 429 652 c 0
 432 674 418 696 396 697 c 0
 372 698 345 675 342 651 c 0
EndSplineSet
Substitution2: "alt a" aring.alt
EndChar

StartChar: germandbls
Encoding: 223 223 219
Width: 580
VWidth: 0
Flags: HMW
LayerCount: 2
Fore
SplineSet
271 147 m 1
 345 153 398 194 411 261 c 0
 424 324 382 353 298 356 c 1
 317 476 l 1
 473 471 601 379 578 224 c 0
 554 65 419 -6 248 -10 c 1
 271 147 l 1
306 409 m 1
 322 513 l 1
 382 516 422 535 428 580 c 0
 432 618 407 641 366 641 c 0
 319 641 287 618 281 581 c 2
 181 0 l 1
 16 0 l 1
 119 606 l 2
 140 728 256 798 384 798 c 0
 520 798 614 722 596 606 c 0
 576 476 458 413 306 409 c 1
EndSplineSet
EndChar

StartChar: ae
Encoding: 230 230 220
Width: 891
VWidth: 0
Flags: HMW
LayerCount: 2
Fore
SplineSet
188 138 m 0
 184 112 205 100 231 99 c 0
 283 97 324 132 337 188 c 1
 408 128 l 1
 386 36 309 -10 190 -10 c 0
 87 -10 0 36 14 130 c 0
 28 224 124 277 230 277 c 0
 288 277 348 259 380 231 c 1
 368 153 l 1
 339 175 310 189 267 188 c 0
 231 187 193 170 188 138 c 0
144 307 m 1
 105 423 l 1
 169 448 246 474 325 474 c 0
 439 473 479 418 466 322 c 1
 433 130 l 1
 328 130 l 1
 356 281 l 1
 360 317 340 342 297 344 c 0
 238 347 179 322 144 307 c 1
417 194 m 1
 431 283 l 1
 865 283 l 1
 866 193 l 1
 417 194 l 1
695 242 m 2
 701 300 701 355 643 358 c 0
 585 361 549 310 537 252 c 1
 530 230 l 1
 521 163 539 115 595 111 c 0
 642 109 680 132 705 161 c 1
 859 130 l 1
 800 46 715 -10 591 -10 c 0
 427 -9 378 96 399 230 c 0
 402 247 407 263 412 279 c 0
 449 391 547 470 681 470 c 0
 820 470 891 371 874 238 c 0
 872 226 869 211 866 194 c 1
 691 214 l 1
 695 242 l 2
EndSplineSet
EndChar

StartChar: ccedilla
Encoding: 231 231 221
Width: 483
VWidth: 0
Flags: HMW
LayerCount: 2
Fore
SplineSet
216 230 m 0
 207 171 242 128 302 126 c 0
 354 124 403 151 439 187 c 1
 416 26 l 1
 378 4 334 -10 273 -10 c 0
 125 -10 19 88 40 230 c 0
 61 375 191 470 344 470 c 0
 404 470 445 455 482 435 c 1
 458 272 l 1
 433 313 391 334 347 334 c 0
 286 334 227 288 216 230 c 0
204 61 m 1
 333 56 l 1
 216 -69 l 1
 229 -66 242 -65 257 -65 c 0
 306 -67 347 -109 339 -170 c 0
 329 -242 254 -280 188 -282 c 0
 130 -283 83 -271 33 -242 c 1
 91 -166 l 1
 116 -182 148 -191 170 -191 c 0
 196 -191 232 -179 234 -156 c 0
 236 -132 202 -126 180 -126 c 0
 159 -125 122 -131 87 -141 c 1
 204 61 l 1
EndSplineSet
EndChar

StartChar: egrave
Encoding: 232 232 222
Width: 574
VWidth: 0
Flags: HMW
LayerCount: 2
Fore
SplineSet
131 194 m 1
 144 282 l 1
 380 283 l 1
 379 324 369 356 325 358 c 0
 267 361 231 308 219 251 c 1
 213 230 l 1
 204 163 223 115 278 111 c 0
 325 109 363 132 388 161 c 1
 542 130 l 1
 483 46 398 -10 274 -10 c 0
 111 -10 20 90 41 230 c 0
 43 247 47 263 52 279 c 0
 90 395 194 470 339 470 c 0
 495 470 575 379 557 238 c 0
 555 226 552 211 549 194 c 1
 131 194 l 1
213 685 m 1
 344 739 l 1
 465 576 l 1
 366 532 l 1
 213 685 l 1
EndSplineSet
EndChar

StartChar: eacute
Encoding: 233 233 223
Width: 574
VWidth: 0
Flags: HMW
LayerCount: 2
Fore
SplineSet
131 194 m 1
 144 282 l 1
 380 283 l 1
 379 324 369 356 325 358 c 0
 267 361 231 308 219 251 c 1
 213 230 l 1
 204 163 223 115 278 111 c 0
 325 109 363 132 388 161 c 1
 542 130 l 1
 483 46 398 -10 274 -10 c 0
 111 -10 20 90 41 230 c 0
 43 247 47 263 52 279 c 0
 90 395 194 470 339 470 c 0
 495 470 575 379 557 238 c 0
 555 226 552 211 549 194 c 1
 131 194 l 1
553 679 m 1
 356 533 l 1
 262 582 l 1
 432 738 l 1
 553 679 l 1
EndSplineSet
EndChar

StartChar: ecircumflex
Encoding: 234 234 224
Width: 574
VWidth: 0
Flags: HMW
LayerCount: 2
Fore
SplineSet
131 194 m 1
 144 282 l 1
 380 283 l 1
 379 324 369 356 325 358 c 0
 267 361 231 308 219 251 c 1
 213 230 l 1
 204 163 223 115 278 111 c 0
 325 109 363 132 388 161 c 1
 542 130 l 1
 483 46 398 -10 274 -10 c 0
 111 -10 20 90 41 230 c 0
 43 247 47 263 52 279 c 0
 90 395 194 470 339 470 c 0
 495 470 575 379 557 238 c 0
 555 226 552 211 549 194 c 1
 131 194 l 1
372 612 m 1
 276 531 l 1
 165 615 l 1
 388 752 l 1
 572 609 l 1
 441 530 l 1
 372 612 l 1
EndSplineSet
EndChar

StartChar: edieresis
Encoding: 235 235 225
Width: 574
VWidth: 0
Flags: HMW
LayerCount: 2
Fore
SplineSet
131 194 m 1
 144 282 l 1
 380 283 l 1
 379 324 369 356 325 358 c 0
 267 361 231 308 219 251 c 1
 213 230 l 1
 204 163 223 115 278 111 c 0
 325 109 363 132 388 161 c 1
 542 130 l 1
 483 46 398 -10 274 -10 c 0
 111 -10 20 90 41 230 c 0
 43 247 47 263 52 279 c 0
 90 395 194 470 339 470 c 0
 495 470 575 379 557 238 c 0
 555 226 552 211 549 194 c 1
 131 194 l 1
398 623 m 0
 405 674 455 711 507 711 c 0
 559 711 599 672 592 620 c 0
 585 569 535 531 483 531 c 0
 431 531 391 571 398 623 c 0
148 623 m 0
 155 674 205 711 257 711 c 0
 309 711 349 672 342 620 c 0
 335 569 285 531 233 531 c 0
 181 531 141 571 148 623 c 0
EndSplineSet
EndChar

StartChar: igrave
Encoding: 236 236 226
Width: 272
VWidth: 0
Flags: HMW
LayerCount: 2
Fore
SplineSet
104 460 m 1
 271 460 l 1
 192 0 l 1
 26 0 l 1
 104 460 l 1
45 687 m 1
 176 741 l 1
 297 578 l 1
 197 534 l 1
 45 687 l 1
EndSplineSet
EndChar

StartChar: dotlessi
Encoding: 305 305 227
Width: 272
VWidth: 0
Flags: HMW
LayerCount: 2
Fore
SplineSet
104 460 m 1
 271 460 l 1
 192 0 l 1
 26 0 l 1
 104 460 l 1
EndSplineSet
EndChar

StartChar: kgreenlandic
Encoding: 312 312 228
Width: 602
VWidth: 0
Flags: HMW
LayerCount: 2
Fore
SplineSet
102 460 m 1
 267 460 l 1
 188 0 l 1
 23 0 l 1
 102 460 l 1
422 460 m 1
 632 460 l 1
 404 266 l 1
 565 0 l 1
 373 0 l 1
 205 275 l 1
 422 460 l 1
EndSplineSet
EndChar

StartChar: iacute
Encoding: 237 237 229
Width: 272
VWidth: 0
Flags: HMW
LayerCount: 2
Fore
SplineSet
104 460 m 1
 271 460 l 1
 192 0 l 1
 26 0 l 1
 104 460 l 1
398 681 m 1
 201 535 l 1
 108 584 l 1
 277 740 l 1
 398 681 l 1
EndSplineSet
EndChar

StartChar: icircumflex
Encoding: 238 238 230
Width: 272
VWidth: 0
Flags: HMW
LayerCount: 2
Fore
SplineSet
104 460 m 1
 271 460 l 1
 192 0 l 1
 26 0 l 1
 104 460 l 1
218 614 m 1
 121 532 l 1
 10 617 l 1
 233 754 l 1
 417 611 l 1
 286 532 l 1
 218 614 l 1
EndSplineSet
EndChar

StartChar: idieresis
Encoding: 239 239 231
Width: 272
VWidth: 0
Flags: HMW
LayerCount: 2
Fore
SplineSet
104 460 m 1
 271 460 l 1
 192 0 l 1
 26 0 l 1
 104 460 l 1
244 628 m 0
 251 679 301 717 353 717 c 0
 405 717 445 677 438 625 c 0
 431 574 382 537 330 537 c 0
 278 537 237 576 244 628 c 0
-6 628 m 0
 1 679 51 717 103 717 c 0
 155 717 195 677 188 625 c 0
 181 574 132 537 80 537 c 0
 28 537 -13 576 -6 628 c 0
EndSplineSet
EndChar

StartChar: ntilde
Encoding: 241 241 232
Width: 572
VWidth: 0
Flags: HMW
LayerCount: 2
Fore
SplineSet
276 460 m 1
 197 0 l 1
 24 0 l 1
 103 460 l 1
 276 460 l 1
364 280 m 1
 367 317 366 350 325 354 c 0
 283 358 254 320 245 281 c 1
 214 273 l 1
 232 376 290 470 407 471 c 0
 520 472 559 399 546 298 c 1
 495 0 l 1
 314 0 l 1
 364 280 l 1
162 608 m 1
 183 656 229 706 295 704 c 0
 351 703 372 649 423 651 c 0
 454 652 478 678 500 705 c 1
 567 619 l 1
 540 580 480 530 417 532 c 0
 367 534 333 590 285 586 c 0
 252 584 237 554 229 536 c 1
 162 608 l 1
EndSplineSet
EndChar

StartChar: ograve
Encoding: 242 242 233
Width: 584
VWidth: 0
Flags: HMW
LayerCount: 2
Fore
SplineSet
41 230 m 0
 62 374 191 471 341 471 c 0
 488 471 590 371 570 230 c 0
 549 86 419 -10 269 -10 c 0
 122 -10 21 89 41 230 c 0
217 230 m 0
 209 179 233 132 284 131 c 0
 336 130 384 175 393 230 c 0
 401 281 377 328 326 329 c 0
 274 330 226 285 217 230 c 0
228 687 m 1
 358 741 l 1
 479 578 l 1
 380 534 l 1
 228 687 l 1
EndSplineSet
EndChar

StartChar: oacute
Encoding: 243 243 234
Width: 584
VWidth: 0
Flags: HMW
LayerCount: 2
Fore
SplineSet
41 230 m 0
 62 374 191 471 341 471 c 0
 488 471 590 371 570 230 c 0
 549 86 419 -10 269 -10 c 0
 122 -10 21 89 41 230 c 0
217 230 m 0
 209 179 233 132 284 131 c 0
 336 130 384 175 393 230 c 0
 401 281 377 328 326 329 c 0
 274 330 226 285 217 230 c 0
539 681 m 1
 342 535 l 1
 248 584 l 1
 418 740 l 1
 539 681 l 1
EndSplineSet
EndChar

StartChar: ocircumflex
Encoding: 244 244 235
Width: 584
VWidth: 0
Flags: HMW
LayerCount: 2
Fore
SplineSet
41 230 m 0
 62 374 191 471 341 471 c 0
 488 471 590 371 570 230 c 0
 549 86 419 -10 269 -10 c 0
 122 -10 21 89 41 230 c 0
217 230 m 0
 209 179 233 132 284 131 c 0
 336 130 384 175 393 230 c 0
 401 281 377 328 326 329 c 0
 274 330 226 285 217 230 c 0
375 616 m 1
 279 534 l 1
 168 618 l 1
 390 756 l 1
 574 612 l 1
 444 533 l 1
 375 616 l 1
EndSplineSet
EndChar

StartChar: otilde
Encoding: 245 245 236
Width: 584
VWidth: 0
Flags: HMW
LayerCount: 2
Fore
SplineSet
41 230 m 0
 62 374 191 471 341 471 c 0
 488 471 590 371 570 230 c 0
 549 86 419 -10 269 -10 c 0
 122 -10 21 89 41 230 c 0
217 230 m 0
 209 179 233 132 284 131 c 0
 336 130 384 175 393 230 c 0
 401 281 377 328 326 329 c 0
 274 330 226 285 217 230 c 0
168 607 m 1
 168 657 248 704 302 704 c 0
 358 703 378 649 429 651 c 0
 460 652 484 678 506 705 c 1
 573 619 l 1
 546 580 486 530 423 532 c 0
 373 534 339 590 291 586 c 0
 258 584 244 554 236 536 c 1
 168 607 l 1
EndSplineSet
EndChar

StartChar: odieresis
Encoding: 246 246 237
Width: 584
VWidth: 0
Flags: HMW
LayerCount: 2
Fore
SplineSet
41 230 m 0
 62 374 191 471 341 471 c 0
 488 471 590 371 570 230 c 0
 549 86 419 -10 269 -10 c 0
 122 -10 21 89 41 230 c 0
217 230 m 0
 209 179 233 132 284 131 c 0
 336 130 384 175 393 230 c 0
 401 281 377 328 326 329 c 0
 274 330 226 285 217 230 c 0
401 628 m 0
 408 679 457 717 509 717 c 0
 561 717 601 677 594 625 c 0
 587 574 538 537 486 537 c 0
 434 537 394 576 401 628 c 0
151 628 m 0
 158 679 207 717 259 717 c 0
 311 717 351 677 344 625 c 0
 337 574 288 537 236 537 c 0
 184 537 144 576 151 628 c 0
EndSplineSet
EndChar

StartChar: ugrave
Encoding: 249 249 238
Width: 572
VWidth: 0
Flags: HMW
LayerCount: 2
Fore
SplineSet
322 0 m 1
 401 460 l 1
 574 460 l 1
 495 0 l 1
 322 0 l 1
233 180 m 1
 230 143 231 110 272 106 c 0
 314 102 344 140 353 179 c 1
 383 187 l 1
 365 84 307 -10 190 -11 c 0
 77 -12 39 61 52 162 c 1
 103 460 l 1
 284 460 l 1
 233 180 l 1
228 687 m 1
 359 741 l 1
 479 578 l 1
 381 534 l 1
 228 687 l 1
EndSplineSet
EndChar

StartChar: uacute
Encoding: 250 250 239
Width: 572
VWidth: 0
Flags: HMW
LayerCount: 2
Fore
SplineSet
322 0 m 1
 401 460 l 1
 574 460 l 1
 495 0 l 1
 322 0 l 1
233 180 m 1
 230 143 231 110 272 106 c 0
 314 102 344 140 353 179 c 1
 383 187 l 1
 365 84 307 -10 190 -11 c 0
 77 -12 39 61 52 162 c 1
 103 460 l 1
 284 460 l 1
 233 180 l 1
525 681 m 1
 329 535 l 1
 235 584 l 1
 405 740 l 1
 525 681 l 1
EndSplineSet
EndChar

StartChar: ucircumflex
Encoding: 251 251 240
Width: 572
VWidth: 0
Flags: HMW
LayerCount: 2
Fore
SplineSet
322 0 m 1
 401 460 l 1
 574 460 l 1
 495 0 l 1
 322 0 l 1
233 180 m 1
 230 143 231 110 272 106 c 0
 314 102 344 140 353 179 c 1
 383 187 l 1
 365 84 307 -10 190 -11 c 0
 77 -12 39 61 52 162 c 1
 103 460 l 1
 284 460 l 1
 233 180 l 1
368 616 m 1
 272 534 l 1
 161 618 l 1
 384 756 l 1
 568 612 l 1
 437 533 l 1
 368 616 l 1
EndSplineSet
EndChar

StartChar: udieresis
Encoding: 252 252 241
Width: 572
VWidth: 0
Flags: HMW
LayerCount: 2
Fore
SplineSet
322 0 m 1
 401 460 l 1
 574 460 l 1
 495 0 l 1
 322 0 l 1
233 180 m 1
 230 143 231 110 272 106 c 0
 314 102 344 140 353 179 c 1
 383 187 l 1
 365 84 307 -10 190 -11 c 0
 77 -12 39 61 52 162 c 1
 103 460 l 1
 284 460 l 1
 233 180 l 1
395 626 m 0
 402 677 451 715 503 715 c 0
 555 715 596 675 589 623 c 0
 582 572 532 535 480 535 c 0
 428 535 388 574 395 626 c 0
145 626 m 0
 152 677 201 715 253 715 c 0
 305 715 345 675 338 623 c 0
 331 572 282 535 230 535 c 0
 178 535 138 574 145 626 c 0
EndSplineSet
EndChar

StartChar: yacute
Encoding: 253 253 242
Width: 530
VWidth: 0
Flags: HMW
LayerCount: 2
Fore
SplineSet
598 460 m 1
 190 -220 l 1
 16 -220 l 1
 167 33 l 1
 40 460 l 1
 223 460 l 1
 304 87 l 1
 212 89 l 1
 420 460 l 1
 598 460 l 1
523 681 m 1
 325 535 l 1
 232 584 l 1
 402 740 l 1
 523 681 l 1
EndSplineSet
EndChar

StartChar: thorn
Encoding: 254 254 243
Width: 612
VWidth: 0
Flags: HMW
LayerCount: 2
Fore
SplineSet
158 -220 m 1
 -15 -220 l 1
 157 780 l 1
 330 780 l 1
 158 -220 l 1
597 230 m 0
 579 92 470 -10 350 -10 c 0
 226 -10 173 104 189 230 c 0
 207 362 300 470 422 470 c 0
 543 470 613 363 597 230 c 0
417 230 m 0
 425 281 399 332 346 333 c 0
 296 334 243 286 234 230 c 0
 226 178 255 129 303 127 c 0
 357 125 408 175 417 230 c 0
EndSplineSet
EndChar

StartChar: ydieresis
Encoding: 255 255 244
Width: 530
VWidth: 0
Flags: HMW
LayerCount: 2
Fore
SplineSet
598 460 m 1
 190 -220 l 1
 16 -220 l 1
 167 33 l 1
 40 460 l 1
 223 460 l 1
 304 87 l 1
 212 89 l 1
 420 460 l 1
 598 460 l 1
373 623 m 0
 380 674 430 711 482 711 c 0
 534 711 574 672 567 620 c 0
 560 569 510 531 458 531 c 0
 406 531 366 571 373 623 c 0
123 623 m 0
 130 674 179 711 231 711 c 0
 283 711 324 672 317 620 c 0
 310 569 260 531 208 531 c 0
 156 531 116 571 123 623 c 0
EndSplineSet
EndChar

StartChar: Amacron
Encoding: 256 256 245
Width: 735
VWidth: 0
Flags: HMW
LayerCount: 2
Fore
SplineSet
181 111 m 1
 211 255 l 1
 563 255 l 1
 543 111 l 1
 181 111 l 1
414 410 m 1
 289 202 l 1
 294 157 l 1
 189 0 l 1
 -34 0 l 1
 467 750 l 1
 712 0 l 1
 498 0 l 1
 445 151 l 1
 465 201 l 1
 414 410 l 1
294 808 m 1
 320 957 l 1
 690 957 l 1
 664 808 l 1
 294 808 l 1
EndSplineSet
EndChar

StartChar: amacron
Encoding: 257 257 246
Width: 612
VWidth: 0
Flags: HMW
LayerCount: 2
Fore
SplineSet
442 460 m 1
 615 460 l 1
 535 0 l 1
 364 0 l 1
 442 460 l 1
41 230 m 0
 59 368 167 470 287 470 c 0
 411 470 463 356 447 230 c 0
 429 98 339 -10 216 -10 c 0
 95 -10 25 97 41 230 c 0
221 230 m 0
 213 179 238 128 291 127 c 0
 341 126 393 174 402 230 c 0
 410 282 382 331 334 333 c 0
 280 335 230 285 221 230 c 0
191 532 m 1
 217 682 l 1
 588 682 l 1
 561 532 l 1
 191 532 l 1
EndSplineSet
Substitution2: "alt a" amacron.alt
EndChar

StartChar: breve
Encoding: 728 728 247
Width: 529
VWidth: 0
Flags: HMW
LayerCount: 2
Fore
SplineSet
216 850 m 1
 320 850 l 1
 321 819 335 798 365 796 c 0
 395 794 424 820 432 850 c 1
 540 849 l 1
 523 765 460 702 360 702 c 0
 261 702 212 764 216 850 c 1
EndSplineSet
EndChar

StartChar: Abreve
Encoding: 258 258 248
Width: 735
VWidth: 0
Flags: HMW
LayerCount: 2
Fore
SplineSet
181 111 m 1
 211 255 l 1
 563 255 l 1
 543 111 l 1
 181 111 l 1
414 410 m 1
 289 202 l 1
 294 157 l 1
 189 0 l 1
 -34 0 l 1
 467 750 l 1
 712 0 l 1
 498 0 l 1
 445 151 l 1
 465 201 l 1
 414 410 l 1
341 956 m 1
 445 956 l 1
 446 925 459 904 489 902 c 0
 519 900 548 925 557 955 c 1
 666 954 l 1
 648 870 584 808 484 808 c 0
 384 808 335 870 341 956 c 1
EndSplineSet
EndChar

StartChar: abreve
Encoding: 259 259 249
Width: 612
VWidth: 0
Flags: HMW
LayerCount: 2
Fore
SplineSet
442 460 m 1
 615 460 l 1
 535 0 l 1
 364 0 l 1
 442 460 l 1
41 230 m 0
 59 368 167 470 287 470 c 0
 411 470 463 356 447 230 c 0
 429 98 339 -10 216 -10 c 0
 95 -10 25 97 41 230 c 0
221 230 m 0
 213 179 238 128 291 127 c 0
 341 126 393 174 402 230 c 0
 410 282 382 331 334 333 c 0
 280 335 230 285 221 230 c 0
225 679 m 1
 329 679 l 1
 330 648 344 627 374 625 c 0
 404 623 433 648 441 678 c 1
 550 677 l 1
 532 593 468 531 368 531 c 0
 268 531 220 593 225 679 c 1
EndSplineSet
Substitution2: "alt a" abreve.alt
EndChar

StartChar: Aogonek
Encoding: 260 260 250
Width: 735
VWidth: 0
Flags: HMW
LayerCount: 2
Fore
SplineSet
181 111 m 1
 211 255 l 1
 563 255 l 1
 543 111 l 1
 181 111 l 1
414 410 m 1
 289 202 l 1
 294 157 l 1
 189 0 l 1
 -34 0 l 1
 467 750 l 1
 712 0 l 1
 498 0 l 1
 445 151 l 1
 465 201 l 1
 414 410 l 1
634 -105 m 1
 655 -182 l 1
 631 -203 600 -220 551 -220 c 0
 492 -219 443 -183 451 -119 c 0
 461 -47 542 -8 609 25 c 1
 649 0 l 1
 606 -27 566 -56 559 -92 c 0
 557 -109 562 -123 581 -125 c 0
 599 -127 620 -115 634 -105 c 1
EndSplineSet
EndChar

StartChar: aogonek
Encoding: 261 261 251
Width: 612
VWidth: 0
Flags: HMW
LayerCount: 2
Fore
SplineSet
442 460 m 1
 615 460 l 1
 535 0 l 1
 364 0 l 1
 442 460 l 1
41 230 m 0
 59 368 167 470 287 470 c 0
 411 470 463 356 447 230 c 0
 429 98 339 -10 216 -10 c 0
 95 -10 25 97 41 230 c 0
221 230 m 0
 213 179 238 128 291 127 c 0
 341 126 393 174 402 230 c 0
 410 282 382 331 334 333 c 0
 280 335 230 285 221 230 c 0
479 -105 m 1
 501 -182 l 1
 477 -203 445 -220 396 -220 c 0
 337 -219 288 -183 296 -119 c 0
 306 -47 388 -8 455 25 c 1
 495 0 l 1
 452 -27 411 -56 404 -92 c 0
 402 -109 408 -123 427 -125 c 0
 445 -127 465 -115 479 -105 c 1
EndSplineSet
Substitution2: "alt a" aogonek.alt
EndChar

StartChar: Cacute
Encoding: 262 262 252
Width: 684
VWidth: 0
Flags: HMW
LayerCount: 2
Fore
SplineSet
273 350 m 0
 256 246 319 170 424 168 c 0
 516 167 582 211 639 256 c 1
 609 50 l 1
 547 10 481 -18 390 -18 c 0
 168 -18 31 141 62 350 c 0
 95 565 276 718 504 718 c 0
 592 718 652 692 708 649 c 1
 677 443 l 1
 636 494 580 532 496 532 c 0
 389 532 292 459 273 350 c 0
673 925 m 1
 476 779 l 1
 382 828 l 1
 553 984 l 1
 673 925 l 1
EndSplineSet
EndChar

StartChar: cacute
Encoding: 263 263 253
Width: 483
VWidth: 0
Flags: HMW
LayerCount: 2
Fore
SplineSet
216 230 m 0
 207 171 242 128 302 126 c 0
 354 124 403 151 439 187 c 1
 416 26 l 1
 378 4 334 -10 273 -10 c 0
 125 -10 19 88 40 230 c 0
 61 375 191 470 344 470 c 0
 404 470 445 455 482 435 c 1
 458 272 l 1
 433 313 391 334 347 334 c 0
 286 334 227 288 216 230 c 0
513 678 m 1
 316 531 l 1
 222 580 l 1
 392 737 l 1
 513 678 l 1
EndSplineSet
EndChar

StartChar: Ccircumflex
Encoding: 264 264 254
Width: 684
VWidth: 0
Flags: HMW
LayerCount: 2
Fore
SplineSet
273 350 m 0
 256 246 319 170 424 168 c 0
 516 167 582 211 639 256 c 1
 609 50 l 1
 547 10 481 -18 390 -18 c 0
 168 -18 31 141 62 350 c 0
 95 565 276 718 504 718 c 0
 592 718 652 692 708 649 c 1
 677 443 l 1
 636 494 580 532 496 532 c 0
 389 532 292 459 273 350 c 0
538 860 m 1
 442 779 l 1
 330 863 l 1
 554 999 l 1
 737 857 l 1
 606 778 l 1
 538 860 l 1
EndSplineSet
EndChar

StartChar: ccircumflex
Encoding: 265 265 255
Width: 483
VWidth: 0
Flags: HMW
LayerCount: 2
Fore
SplineSet
216 230 m 0
 207 171 242 128 302 126 c 0
 354 124 403 151 439 187 c 1
 416 26 l 1
 378 4 334 -10 273 -10 c 0
 125 -10 19 88 40 230 c 0
 61 375 191 470 344 470 c 0
 404 470 445 455 482 435 c 1
 458 272 l 1
 433 313 391 334 347 334 c 0
 286 334 227 288 216 230 c 0
338 612 m 1
 241 531 l 1
 130 615 l 1
 353 752 l 1
 537 609 l 1
 406 530 l 1
 338 612 l 1
EndSplineSet
EndChar

StartChar: Cdotaccent
Encoding: 266 266 256
Width: 684
VWidth: 0
Flags: HMW
LayerCount: 2
Fore
SplineSet
273 350 m 0
 256 246 319 170 424 168 c 0
 516 167 582 211 639 256 c 1
 609 50 l 1
 547 10 481 -18 390 -18 c 0
 168 -18 31 141 62 350 c 0
 95 565 276 718 504 718 c 0
 592 718 652 692 708 649 c 1
 677 443 l 1
 636 494 580 532 496 532 c 0
 389 532 292 459 273 350 c 0
407 870 m 0
 414 921 463 958 515 958 c 0
 567 958 607 919 600 867 c 0
 593 816 544 779 492 779 c 0
 440 779 400 818 407 870 c 0
EndSplineSet
EndChar

StartChar: cdotaccent
Encoding: 267 267 257
Width: 483
VWidth: 0
Flags: HMW
LayerCount: 2
Fore
SplineSet
216 230 m 0
 207 171 242 128 302 126 c 0
 354 124 403 151 439 187 c 1
 416 26 l 1
 378 4 334 -10 273 -10 c 0
 125 -10 19 88 40 230 c 0
 61 375 191 470 344 470 c 0
 404 470 445 455 482 435 c 1
 458 272 l 1
 433 313 391 334 347 334 c 0
 286 334 227 288 216 230 c 0
248 631 m 0
 255 682 304 719 356 719 c 0
 408 719 448 680 441 628 c 0
 434 577 385 539 333 539 c 0
 281 539 241 579 248 631 c 0
EndSplineSet
EndChar

StartChar: Ccaron
Encoding: 268 268 258
Width: 684
VWidth: 0
Flags: HMW
LayerCount: 2
Fore
SplineSet
273 350 m 0
 256 246 319 170 424 168 c 0
 516 167 582 211 639 256 c 1
 609 50 l 1
 547 10 481 -18 390 -18 c 0
 168 -18 31 141 62 350 c 0
 95 565 276 718 504 718 c 0
 592 718 652 692 708 649 c 1
 677 443 l 1
 636 494 580 532 496 532 c 0
 389 532 292 459 273 350 c 0
540 918 m 1
 636 999 l 1
 748 915 l 1
 524 778 l 1
 341 921 l 1
 472 1000 l 1
 540 918 l 1
EndSplineSet
EndChar

StartChar: ccaron
Encoding: 269 269 259
Width: 483
VWidth: 0
Flags: HMW
LayerCount: 2
Fore
SplineSet
216 230 m 0
 207 171 242 128 302 126 c 0
 354 124 403 151 439 187 c 1
 416 26 l 1
 378 4 334 -10 273 -10 c 0
 125 -10 19 88 40 230 c 0
 61 375 191 470 344 470 c 0
 404 470 445 455 482 435 c 1
 458 272 l 1
 433 313 391 334 347 334 c 0
 286 334 227 288 216 230 c 0
340 671 m 1
 436 752 l 1
 547 668 l 1
 324 531 l 1
 140 674 l 1
 271 753 l 1
 340 671 l 1
EndSplineSet
EndChar

StartChar: Dcaron
Encoding: 270 270 260
Width: 726
VWidth: 0
Flags: HMW
LayerCount: 2
Fore
SplineSet
160 700 m 1
 362 700 l 1
 242 0 l 1
 41 0 l 1
 160 700 l 1
304 0 m 1
 170 0 l 1
 201 172 l 1
 314 172 l 1
 417 174 510 224 530 350 c 0
 549 471 485 525 385 528 c 1
 260 528 l 1
 290 700 l 1
 412 700 l 1
 632 697 762 557 731 350 c 0
 699 137 530 3 304 0 c 1
504 918 m 1
 600 999 l 1
 711 915 l 1
 488 778 l 1
 305 921 l 1
 435 1000 l 1
 504 918 l 1
EndSplineSet
EndChar

StartChar: dcaron
Encoding: 271 271 261
Width: 612
VWidth: 0
Flags: HMW
LayerCount: 2
Fore
SplineSet
496 780 m 1
 669 780 l 1
 535 0 l 1
 363 0 l 1
 496 780 l 1
41 230 m 0
 59 368 167 470 287 470 c 0
 411 470 464 356 448 230 c 0
 430 98 339 -10 216 -10 c 0
 95 -10 25 97 41 230 c 0
221 230 m 0
 213 179 238 128 291 127 c 0
 341 126 394 174 403 230 c 0
 411 282 382 331 334 333 c 0
 280 335 230 285 221 230 c 0
778 779 m 1
 949 744 l 1
 780 497 l 1
 649 523 l 1
 778 779 l 1
EndSplineSet
EndChar

StartChar: Dcroat
Encoding: 272 272 262
Width: 726
VWidth: 0
Flags: HMW
LayerCount: 2
Fore
SplineSet
26 293 m 1
 45 402 l 1
 396 402 l 1
 376 293 l 1
 26 293 l 1
160 700 m 1
 362 700 l 1
 242 0 l 1
 41 0 l 1
 160 700 l 1
304 0 m 1
 170 0 l 1
 201 172 l 1
 314 172 l 1
 417 174 510 224 530 350 c 0
 549 471 485 525 385 528 c 1
 260 528 l 1
 290 700 l 1
 412 700 l 1
 632 697 762 557 731 350 c 0
 699 137 530 3 304 0 c 1
EndSplineSet
EndChar

StartChar: dcroat
Encoding: 273 273 263
Width: 612
VWidth: 0
Flags: HMW
LayerCount: 2
Fore
SplineSet
352 557 m 1
 372 665 l 1
 738 665 l 1
 719 557 l 1
 352 557 l 1
496 780 m 1
 669 780 l 1
 535 0 l 1
 363 0 l 1
 496 780 l 1
41 230 m 0
 59 368 167 470 287 470 c 0
 411 470 464 356 448 230 c 0
 430 98 339 -10 216 -10 c 0
 95 -10 25 97 41 230 c 0
221 230 m 0
 213 179 238 128 291 127 c 0
 341 126 394 174 403 230 c 0
 411 282 382 331 334 333 c 0
 280 335 230 285 221 230 c 0
EndSplineSet
EndChar

StartChar: Emacron
Encoding: 274 274 264
Width: 600
VWidth: 0
Flags: HMW
LayerCount: 2
Fore
SplineSet
170 0 m 1
 198 158 l 1
 544 158 l 1
 516 0 l 1
 170 0 l 1
263 542 m 1
 290 700 l 1
 636 700 l 1
 609 542 l 1
 263 542 l 1
219 287 m 1
 246 441 l 1
 572 441 l 1
 545 287 l 1
 219 287 l 1
160 700 m 1
 346 700 l 1
 226 0 l 1
 41 0 l 1
 160 700 l 1
226 779 m 1
 252 928 l 1
 623 928 l 1
 596 778 l 1
 226 779 l 1
EndSplineSet
EndChar

StartChar: emacron
Encoding: 275 275 265
Width: 574
VWidth: 0
Flags: HMW
LayerCount: 2
Fore
SplineSet
131 194 m 1
 144 282 l 1
 380 283 l 1
 379 324 369 356 325 358 c 0
 267 361 231 308 219 251 c 1
 213 230 l 1
 204 163 223 115 278 111 c 0
 325 109 363 132 388 161 c 1
 542 130 l 1
 483 46 398 -10 274 -10 c 0
 111 -10 20 90 41 230 c 0
 43 247 47 263 52 279 c 0
 90 395 194 470 339 470 c 0
 495 470 575 379 557 238 c 0
 555 226 552 211 549 194 c 1
 131 194 l 1
169 531 m 1
 195 680 l 1
 566 680 l 1
 540 531 l 1
 169 531 l 1
EndSplineSet
EndChar

StartChar: Ebreve
Encoding: 276 276 266
Width: 600
VWidth: 0
Flags: HMW
LayerCount: 2
Fore
SplineSet
170 0 m 1
 198 158 l 1
 544 158 l 1
 516 0 l 1
 170 0 l 1
263 542 m 1
 290 700 l 1
 636 700 l 1
 609 542 l 1
 263 542 l 1
219 287 m 1
 246 441 l 1
 572 441 l 1
 545 287 l 1
 219 287 l 1
160 700 m 1
 346 700 l 1
 226 0 l 1
 41 0 l 1
 160 700 l 1
272 927 m 1
 377 927 l 1
 378 896 392 875 422 873 c 0
 452 871 480 896 489 926 c 1
 598 925 l 1
 580 841 516 779 416 779 c 0
 316 779 266 841 272 927 c 1
EndSplineSet
EndChar

StartChar: ebreve
Encoding: 277 277 267
Width: 574
VWidth: 0
Flags: HMW
LayerCount: 2
Fore
SplineSet
131 194 m 1
 144 282 l 1
 380 283 l 1
 379 324 369 356 325 358 c 0
 267 361 231 308 219 251 c 1
 213 230 l 1
 204 163 223 115 278 111 c 0
 325 109 363 132 388 161 c 1
 542 130 l 1
 483 46 398 -10 274 -10 c 0
 111 -10 20 90 41 230 c 0
 43 247 47 263 52 279 c 0
 90 395 194 470 339 470 c 0
 495 470 575 379 557 238 c 0
 555 226 552 211 549 194 c 1
 131 194 l 1
216 679 m 1
 321 679 l 1
 322 648 336 628 366 626 c 0
 396 624 424 648 433 678 c 1
 541 678 l 1
 523 594 460 531 360 531 c 0
 260 531 210 593 216 679 c 1
EndSplineSet
EndChar

StartChar: Edotaccent
Encoding: 278 278 268
Width: 600
VWidth: 0
Flags: HMW
LayerCount: 2
Fore
SplineSet
170 0 m 1
 198 158 l 1
 544 158 l 1
 516 0 l 1
 170 0 l 1
263 542 m 1
 290 700 l 1
 636 700 l 1
 609 542 l 1
 263 542 l 1
219 287 m 1
 246 441 l 1
 572 441 l 1
 545 287 l 1
 219 287 l 1
160 700 m 1
 346 700 l 1
 226 0 l 1
 41 0 l 1
 160 700 l 1
329 870 m 0
 336 921 386 958 438 958 c 0
 490 958 530 919 523 867 c 0
 516 816 467 779 415 779 c 0
 363 779 322 818 329 870 c 0
EndSplineSet
EndChar

StartChar: edotaccent
Encoding: 279 279 269
Width: 574
VWidth: 0
Flags: HMW
LayerCount: 2
Fore
SplineSet
131 194 m 1
 144 282 l 1
 380 283 l 1
 379 324 369 356 325 358 c 0
 267 361 231 308 219 251 c 1
 213 230 l 1
 204 163 223 115 278 111 c 0
 325 109 363 132 388 161 c 1
 542 130 l 1
 483 46 398 -10 274 -10 c 0
 111 -10 20 90 41 230 c 0
 43 247 47 263 52 279 c 0
 90 395 194 470 339 470 c 0
 495 470 575 379 557 238 c 0
 555 226 552 211 549 194 c 1
 131 194 l 1
273 623 m 0
 280 674 330 711 382 711 c 0
 434 711 474 672 467 620 c 0
 460 569 410 531 358 531 c 0
 306 531 266 571 273 623 c 0
EndSplineSet
EndChar

StartChar: Eogonek
Encoding: 280 280 270
Width: 600
VWidth: 0
Flags: HMW
LayerCount: 2
Fore
SplineSet
170 0 m 1
 198 158 l 1
 544 158 l 1
 516 0 l 1
 170 0 l 1
263 542 m 1
 290 700 l 1
 636 700 l 1
 609 542 l 1
 263 542 l 1
219 287 m 1
 246 441 l 1
 572 441 l 1
 545 287 l 1
 219 287 l 1
160 700 m 1
 346 700 l 1
 226 0 l 1
 41 0 l 1
 160 700 l 1
352 -105 m 1
 373 -182 l 1
 349 -203 317 -220 268 -220 c 0
 209 -219 161 -183 169 -119 c 0
 179 -47 260 -8 327 25 c 1
 367 0 l 1
 324 -27 284 -56 277 -92 c 0
 275 -109 280 -123 299 -125 c 0
 317 -127 338 -115 352 -105 c 1
EndSplineSet
EndChar

StartChar: eogonek
Encoding: 281 281 271
Width: 574
VWidth: 0
Flags: HMW
LayerCount: 2
Fore
SplineSet
131 194 m 1
 144 282 l 1
 380 283 l 1
 379 324 369 356 325 358 c 0
 267 361 231 308 219 251 c 1
 213 230 l 1
 204 163 223 115 278 111 c 0
 325 109 363 132 388 161 c 1
 542 130 l 1
 483 46 398 -10 274 -10 c 0
 111 -10 20 90 41 230 c 0
 43 247 47 263 52 279 c 0
 90 395 194 470 339 470 c 0
 495 470 575 379 557 238 c 0
 555 226 552 211 549 194 c 1
 131 194 l 1
282 -94 m 1
 303 -171 l 1
 280 -192 247 -209 198 -209 c 0
 139 -208 91 -172 99 -108 c 0
 109 -36 189 3 256 36 c 1
 297 8 l 1
 253 -17 213 -46 206 -81 c 0
 204 -98 209 -112 228 -114 c 0
 246 -116 268 -104 282 -94 c 1
EndSplineSet
EndChar

StartChar: Ecaron
Encoding: 282 282 272
Width: 600
VWidth: 0
Flags: HMW
LayerCount: 2
Fore
SplineSet
170 0 m 1
 198 158 l 1
 544 158 l 1
 516 0 l 1
 170 0 l 1
263 542 m 1
 290 700 l 1
 636 700 l 1
 609 542 l 1
 263 542 l 1
219 287 m 1
 246 441 l 1
 572 441 l 1
 545 287 l 1
 219 287 l 1
160 700 m 1
 346 700 l 1
 226 0 l 1
 41 0 l 1
 160 700 l 1
431 918 m 1
 528 999 l 1
 638 915 l 1
 416 778 l 1
 231 921 l 1
 362 1000 l 1
 431 918 l 1
EndSplineSet
EndChar

StartChar: ecaron
Encoding: 283 283 273
Width: 574
VWidth: 0
Flags: HMW
LayerCount: 2
Fore
SplineSet
131 194 m 1
 144 282 l 1
 380 283 l 1
 379 324 369 356 325 358 c 0
 267 361 231 308 219 251 c 1
 213 230 l 1
 204 163 223 115 278 111 c 0
 325 109 363 132 388 161 c 1
 542 130 l 1
 483 46 398 -10 274 -10 c 0
 111 -10 20 90 41 230 c 0
 43 247 47 263 52 279 c 0
 90 395 194 470 339 470 c 0
 495 470 575 379 557 238 c 0
 555 226 552 211 549 194 c 1
 131 194 l 1
374 671 m 1
 471 752 l 1
 582 668 l 1
 359 531 l 1
 175 674 l 1
 306 753 l 1
 374 671 l 1
EndSplineSet
EndChar

StartChar: Gcircumflex
Encoding: 284 284 274
Width: 801
VWidth: 0
Flags: HMW
LayerCount: 2
Fore
SplineSet
425 246 m 1
 452 392 l 1
 805 392 l 1
 784 169 628 -27 386 -27 c 0
 165 -27 31 141 62 350 c 0
 95 567 284 719 509 718 c 0
 647 718 741 649 801 546 c 1
 616 462 l 1
 594 512 558 549 492 550 c 0
 380 552 284 466 264 350 c 0
 246 239 295 142 411 141 c 0
 498 140 557 188 595 247 c 1
 425 246 l 1
543 860 m 1
 447 779 l 1
 335 863 l 1
 559 999 l 1
 742 857 l 1
 611 778 l 1
 543 860 l 1
EndSplineSet
EndChar

StartChar: gcircumflex
Encoding: 285 285 275
Width: 604
VWidth: 0
Flags: HMW
LayerCount: 2
Fore
SplineSet
4 -34 m 1
 167 -35 l 1
 171 -82 193 -105 241 -105 c 0
 306 -106 352 -56 364 10 c 1
 441 460 l 1
 607 460 l 1
 530 10 l 2
 504 -153 389 -242 236 -242 c 0
 76 -242 6 -163 4 -34 c 1
42 239 m 0
 60 377 168 470 287 470 c 0
 410 470 466 365 450 238 c 0
 433 107 341 7 219 7 c 0
 100 7 26 106 42 239 c 0
222 238 m 0
 214 186 243 146 294 144 c 0
 343 142 397 183 405 239 c 0
 413 292 382 331 334 333 c 0
 281 335 230 292 222 238 c 0
409 612 m 1
 312 531 l 1
 201 615 l 1
 424 752 l 1
 608 609 l 1
 477 530 l 1
 409 612 l 1
EndSplineSet
EndChar

StartChar: Gbreve
Encoding: 286 286 276
Width: 801
VWidth: 0
Flags: HMW
LayerCount: 2
Fore
SplineSet
425 246 m 1
 452 392 l 1
 805 392 l 1
 784 169 628 -27 386 -27 c 0
 165 -27 31 141 62 350 c 0
 95 567 284 719 509 718 c 0
 647 718 741 649 801 546 c 1
 616 462 l 1
 594 512 558 549 492 550 c 0
 380 552 284 466 264 350 c 0
 246 239 295 142 411 141 c 0
 498 140 557 188 595 247 c 1
 425 246 l 1
387 927 m 1
 491 927 l 1
 492 896 505 875 535 873 c 0
 565 871 594 896 603 926 c 1
 712 925 l 1
 694 841 630 779 530 779 c 0
 430 779 381 841 387 927 c 1
EndSplineSet
EndChar

StartChar: gbreve
Encoding: 287 287 277
Width: 604
VWidth: 0
Flags: HMW
LayerCount: 2
Fore
SplineSet
4 -34 m 1
 167 -35 l 1
 171 -82 193 -105 241 -105 c 0
 306 -106 352 -56 364 10 c 1
 441 460 l 1
 607 460 l 1
 530 10 l 2
 504 -153 389 -242 236 -242 c 0
 76 -242 6 -163 4 -34 c 1
42 239 m 0
 60 377 168 470 287 470 c 0
 410 470 466 365 450 238 c 0
 433 107 341 7 219 7 c 0
 100 7 26 106 42 239 c 0
222 238 m 0
 214 186 243 146 294 144 c 0
 343 142 397 183 405 239 c 0
 413 292 382 331 334 333 c 0
 281 335 230 292 222 238 c 0
253 679 m 1
 357 679 l 1
 358 648 371 628 401 626 c 0
 431 624 460 648 469 678 c 1
 577 678 l 1
 559 594 495 531 395 531 c 0
 295 531 247 593 253 679 c 1
EndSplineSet
EndChar

StartChar: Gdotaccent
Encoding: 288 288 278
Width: 801
VWidth: 0
Flags: HMW
LayerCount: 2
Fore
SplineSet
425 246 m 1
 452 392 l 1
 805 392 l 1
 784 169 628 -27 386 -27 c 0
 165 -27 31 141 62 350 c 0
 95 567 284 719 509 718 c 0
 647 718 741 649 801 546 c 1
 616 462 l 1
 594 512 558 549 492 550 c 0
 380 552 284 466 264 350 c 0
 246 239 295 142 411 141 c 0
 498 140 557 188 595 247 c 1
 425 246 l 1
444 870 m 0
 451 921 500 958 552 958 c 0
 604 958 645 919 638 867 c 0
 631 816 581 779 529 779 c 0
 477 779 437 818 444 870 c 0
EndSplineSet
EndChar

StartChar: gdotaccent
Encoding: 289 289 279
Width: 604
VWidth: 0
Flags: HMW
LayerCount: 2
Fore
SplineSet
4 -34 m 1
 167 -35 l 1
 171 -82 193 -105 241 -105 c 0
 306 -106 352 -56 364 10 c 1
 441 460 l 1
 607 460 l 1
 530 10 l 2
 504 -153 389 -242 236 -242 c 0
 76 -242 6 -163 4 -34 c 1
42 239 m 0
 60 377 168 470 287 470 c 0
 410 470 466 365 450 238 c 0
 433 107 341 7 219 7 c 0
 100 7 26 106 42 239 c 0
222 238 m 0
 214 186 243 146 294 144 c 0
 343 142 397 183 405 239 c 0
 413 292 382 331 334 333 c 0
 281 335 230 292 222 238 c 0
290 630 m 0
 297 681 346 718 398 718 c 0
 450 718 490 679 483 627 c 0
 476 576 427 538 375 538 c 0
 323 538 283 578 290 630 c 0
EndSplineSet
EndChar

StartChar: uni0122
Encoding: 290 290 280
Width: 801
VWidth: 0
Flags: HMW
LayerCount: 2
Fore
SplineSet
425 246 m 1
 452 392 l 1
 805 392 l 1
 784 169 628 -27 386 -27 c 0
 165 -27 31 141 62 350 c 0
 95 567 284 719 509 718 c 0
 647 718 741 649 801 546 c 1
 616 462 l 1
 594 512 558 549 492 550 c 0
 380 552 284 466 264 350 c 0
 246 239 295 142 411 141 c 0
 498 140 557 188 595 247 c 1
 425 246 l 1
285 -88 m 1
 454 -122 l 1
 286 -369 l 1
 155 -344 l 1
 285 -88 l 1
EndSplineSet
EndChar

StartChar: Hcircumflex
Encoding: 292 292 281
Width: 784
VWidth: 0
Flags: HMW
LayerCount: 2
Fore
SplineSet
134 278 m 1
 164 453 l 1
 697 453 l 1
 667 278 l 1
 134 278 l 1
616 700 m 1
 811 700 l 1
 690 0 l 1
 497 0 l 1
 616 700 l 1
160 700 m 1
 354 700 l 1
 234 0 l 1
 41 0 l 1
 160 700 l 1
517 860 m 1
 420 779 l 1
 309 863 l 1
 532 999 l 1
 716 857 l 1
 585 778 l 1
 517 860 l 1
EndSplineSet
EndChar

StartChar: hcircumflex
Encoding: 293 293 282
Width: 564
VWidth: 0
Flags: HMW
LayerCount: 2
Fore
SplineSet
331 780 m 1
 197 0 l 1
 24 0 l 1
 157 780 l 1
 331 780 l 1
364 280 m 1
 367 317 366 350 325 354 c 0
 283 358 254 320 245 281 c 1
 215 281 l 1
 233 384 292 478 409 479 c 0
 523 480 551 407 538 307 c 1
 487 0 l 1
 314 0 l 1
 364 280 l 1
393 921 m 1
 297 840 l 1
 186 925 l 1
 409 1061 l 1
 593 918 l 1
 462 839 l 1
 393 921 l 1
EndSplineSet
EndChar

StartChar: Itilde
Encoding: 296 296 283
Width: 333
VWidth: 0
Flags: HMW
LayerCount: 2
Fore
SplineSet
160 700 m 1
 358 700 l 1
 238 0 l 1
 41 0 l 1
 160 700 l 1
85 855 m 1
 106 903 151 953 217 951 c 0
 273 950 294 897 345 899 c 0
 376 900 401 926 423 953 c 1
 490 867 l 1
 463 828 402 777 339 779 c 0
 289 781 256 837 208 833 c 0
 175 831 160 801 152 783 c 1
 85 855 l 1
EndSplineSet
EndChar

StartChar: itilde
Encoding: 297 297 284
Width: 272
VWidth: 0
Flags: HMW
LayerCount: 2
Fore
SplineSet
104 460 m 1
 271 460 l 1
 192 0 l 1
 26 0 l 1
 104 460 l 1
12 608 m 1
 33 656 78 706 144 704 c 0
 200 703 221 649 272 651 c 0
 303 652 328 678 350 705 c 1
 416 619 l 1
 389 580 329 530 266 532 c 0
 216 534 183 590 135 586 c 0
 102 584 87 554 79 536 c 1
 12 608 l 1
EndSplineSet
EndChar

StartChar: Imacron
Encoding: 298 298 285
Width: 333
VWidth: 0
Flags: HMW
LayerCount: 2
Fore
SplineSet
160 700 m 1
 358 700 l 1
 238 0 l 1
 41 0 l 1
 160 700 l 1
87 779 m 1
 113 928 l 1
 484 928 l 1
 458 778 l 1
 87 779 l 1
EndSplineSet
EndChar

StartChar: imacron
Encoding: 299 299 286
Width: 272
VWidth: 0
Flags: HMW
LayerCount: 2
Fore
SplineSet
104 460 m 1
 271 460 l 1
 192 0 l 1
 26 0 l 1
 104 460 l 1
14 531 m 1
 41 680 l 1
 411 680 l 1
 385 531 l 1
 14 531 l 1
EndSplineSet
EndChar

StartChar: Ibreve
Encoding: 300 300 287
Width: 333
VWidth: 0
Flags: HMW
LayerCount: 2
Fore
SplineSet
160 700 m 1
 358 700 l 1
 238 0 l 1
 41 0 l 1
 160 700 l 1
134 927 m 1
 238 927 l 1
 239 896 253 875 283 873 c 0
 313 871 341 896 350 926 c 1
 459 925 l 1
 441 841 377 779 277 779 c 0
 177 779 128 841 134 927 c 1
EndSplineSet
EndChar

StartChar: ibreve
Encoding: 301 301 288
Width: 272
VWidth: 0
Flags: HMW
LayerCount: 2
Fore
SplineSet
104 460 m 1
 271 460 l 1
 192 0 l 1
 26 0 l 1
 104 460 l 1
61 679 m 1
 165 679 l 1
 166 648 180 628 210 626 c 0
 240 624 268 648 277 678 c 1
 386 678 l 1
 368 594 305 531 205 531 c 0
 105 531 55 593 61 679 c 1
EndSplineSet
EndChar

StartChar: Iogonek
Encoding: 302 302 289
Width: 333
VWidth: 0
Flags: HMW
LayerCount: 2
Fore
SplineSet
160 700 m 1
 358 700 l 1
 238 0 l 1
 41 0 l 1
 160 700 l 1
189 -102 m 1
 212 -179 l 1
 188 -200 156 -217 107 -217 c 0
 48 -216 -2 -180 6 -116 c 0
 16 -44 97 -5 164 28 c 1
 205 0 l 1
 161 -26 121 -54 114 -90 c 0
 112 -107 117 -120 136 -122 c 0
 154 -124 175 -112 189 -102 c 1
EndSplineSet
EndChar

StartChar: iogonek
Encoding: 303 303 290
Width: 272
VWidth: 0
Flags: HMW
LayerCount: 2
Fore
SplineSet
120 629 m 0
 127 680 176 717 228 717 c 0
 280 717 320 678 313 626 c 0
 306 575 257 537 205 537 c 0
 153 537 113 577 120 629 c 0
104 460 m 1
 271 460 l 1
 192 0 l 1
 26 0 l 1
 104 460 l 1
144 -105 m 1
 166 -182 l 1
 142 -203 110 -220 61 -220 c 0
 2 -219 -47 -183 -39 -119 c 0
 -29 -47 52 -8 119 25 c 1
 160 0 l 1
 117 -27 76 -56 69 -92 c 0
 67 -109 72 -123 91 -125 c 0
 109 -127 130 -115 144 -105 c 1
EndSplineSet
EndChar

StartChar: Idotaccent
Encoding: 304 304 291
Width: 333
VWidth: 0
Flags: HMW
LayerCount: 2
Fore
SplineSet
160 700 m 1
 358 700 l 1
 238 0 l 1
 41 0 l 1
 160 700 l 1
191 870 m 0
 198 921 248 958 300 958 c 0
 352 958 392 919 385 867 c 0
 378 816 328 779 276 779 c 0
 224 779 184 818 191 870 c 0
EndSplineSet
EndChar

StartChar: uni0136
Encoding: 310 310 292
Width: 720
VWidth: 0
Flags: HMW
LayerCount: 2
Fore
SplineSet
160 700 m 1
 363 700 l 1
 242 0 l 1
 41 0 l 1
 160 700 l 1
575 700 m 1
 807 700 l 1
 475 368 l 1
 695 0 l 1
 468 0 l 1
 249 370 l 1
 575 700 l 1
282 -61 m 1
 453 -96 l 1
 283 -343 l 1
 153 -317 l 1
 282 -61 l 1
EndSplineSet
EndChar

StartChar: uni0137
Encoding: 311 311 293
Width: 602
VWidth: 0
Flags: HMW
LayerCount: 2
Fore
SplineSet
156 780 m 1
 322 780 l 1
 188 0 l 1
 23 0 l 1
 156 780 l 1
422 460 m 1
 632 460 l 1
 404 266 l 1
 565 0 l 1
 373 0 l 1
 205 275 l 1
 422 460 l 1
208 -61 m 1
 379 -96 l 1
 210 -343 l 1
 79 -317 l 1
 208 -61 l 1
EndSplineSet
EndChar

StartChar: Lacute
Encoding: 313 313 294
Width: 536
VWidth: 0
Flags: HMW
LayerCount: 2
Fore
SplineSet
161 700 m 1
 354 700 l 1
 263 167 l 1
 538 167 l 1
 509 0 l 1
 41 0 l 1
 161 700 l 1
601 925 m 1
 404 779 l 1
 310 828 l 1
 480 984 l 1
 601 925 l 1
EndSplineSet
EndChar

StartChar: lacute
Encoding: 314 314 295
Width: 274
VWidth: 0
Flags: HMW
LayerCount: 2
Fore
SplineSet
157 780 m 1
 331 780 l 1
 197 0 l 1
 24 0 l 1
 157 780 l 1
447 987 m 1
 251 841 l 1
 157 889 l 1
 326 1046 l 1
 447 987 l 1
EndSplineSet
EndChar

StartChar: uni013B
Encoding: 315 315 296
Width: 536
VWidth: 0
Flags: HMW
LayerCount: 2
Fore
SplineSet
161 700 m 1
 354 700 l 1
 263 167 l 1
 538 167 l 1
 509 0 l 1
 41 0 l 1
 161 700 l 1
220 -61 m 1
 390 -96 l 1
 221 -343 l 1
 91 -317 l 1
 220 -61 l 1
EndSplineSet
EndChar

StartChar: uni013C
Encoding: 316 316 297
Width: 274
VWidth: 0
Flags: HMW
LayerCount: 2
Fore
SplineSet
157 780 m 1
 331 780 l 1
 197 0 l 1
 24 0 l 1
 157 780 l 1
55 -61 m 1
 225 -96 l 1
 56 -343 l 1
 -74 -317 l 1
 55 -61 l 1
EndSplineSet
EndChar

StartChar: Lcaron
Encoding: 317 317 298
Width: 536
VWidth: 0
Flags: HMW
LayerCount: 2
Fore
SplineSet
161 700 m 1
 354 700 l 1
 263 167 l 1
 538 167 l 1
 509 0 l 1
 41 0 l 1
 161 700 l 1
519 717 m 1
 689 683 l 1
 520 436 l 1
 390 461 l 1
 519 717 l 1
EndSplineSet
EndChar

StartChar: lcaron
Encoding: 318 318 299
Width: 274
VWidth: 0
Flags: HMW
LayerCount: 2
Fore
SplineSet
157 780 m 1
 331 780 l 1
 197 0 l 1
 24 0 l 1
 157 780 l 1
459 779 m 1
 630 744 l 1
 461 497 l 1
 330 523 l 1
 459 779 l 1
EndSplineSet
EndChar

StartChar: Ldot
Encoding: 319 319 300
Width: 536
VWidth: 0
Flags: HMW
LayerCount: 2
Fore
SplineSet
161 700 m 1
 354 700 l 1
 263 167 l 1
 538 167 l 1
 509 0 l 1
 41 0 l 1
 161 700 l 1
381 437 m 0
 388 493 440 539 500 539 c 0
 560 539 598 490 591 435 c 0
 584 379 532 332 472 332 c 0
 412 332 374 382 381 437 c 0
EndSplineSet
EndChar

StartChar: ldot
Encoding: 320 320 301
Width: 495
VWidth: 0
Flags: HMW
LayerCount: 2
Fore
SplineSet
157 780 m 1
 331 780 l 1
 197 0 l 1
 24 0 l 1
 157 780 l 1
298 408 m 0
 305 464 357 511 417 511 c 0
 477 511 514 461 507 406 c 0
 500 350 449 303 389 303 c 0
 329 303 291 353 298 408 c 0
EndSplineSet
EndChar

StartChar: eth
Encoding: 240 240 302
Width: 677
VWidth: 0
Flags: HMW
LayerCount: 2
Fore
SplineSet
457 251 m 0
 466 305 435 354 377 355 c 0
 317 356 264 308 254 250 c 0
 245 195 275 149 333 148 c 0
 392 147 447 193 457 251 c 0
444 696 m 1
 590 462 l 2
 630 397 659 328 648 251 c 0
 624 82 479 -18 315 -18 c 0
 155 -18 39 85 63 251 c 0
 81 382 197 477 311 479 c 0
 361 480 390 466 427 432 c 1
 388 454 l 1
 208 696 l 1
 444 696 l 1
189 520 m 1
 201 602 l 1
 671 602 l 1
 658 520 l 1
 189 520 l 1
EndSplineSet
EndChar

StartChar: racute
Encoding: 341 341 303
Width: 419
VWidth: 0
Flags: HMW
LayerCount: 2
Fore
SplineSet
272 460 m 1
 193 0 l 1
 24 0 l 1
 103 460 l 1
 272 460 l 1
371 282 m 1
 358 296 343 308 320 308 c 0
 273 309 240 262 229 210 c 1
 204 281 l 1
 221 377 294 475 386 472 c 0
 419 471 446 452 463 429 c 1
 371 282 l 1
491 678 m 1
 294 532 l 1
 200 581 l 1
 370 737 l 1
 491 678 l 1
EndSplineSet
EndChar

StartChar: rcaron
Encoding: 345 345 304
Width: 419
VWidth: 0
Flags: HMW
LayerCount: 2
Fore
SplineSet
272 460 m 1
 193 0 l 1
 24 0 l 1
 103 460 l 1
 272 460 l 1
371 282 m 1
 358 296 343 308 320 308 c 0
 273 309 240 262 229 210 c 1
 203 281 l 1
 220 377 294 475 386 472 c 0
 419 471 446 452 463 429 c 1
 371 282 l 1
318 672 m 1
 414 753 l 1
 525 668 l 1
 303 532 l 1
 118 675 l 1
 250 753 l 1
 318 672 l 1
EndSplineSet
EndChar

StartChar: Rcaron
Encoding: 344 344 305
Width: 654
VWidth: 0
Flags: HMW
LayerCount: 2
Fore
SplineSet
282 308 m 1
 475 308 l 1
 625 0 l 1
 406 0 l 1
 282 308 l 1
160 700 m 1
 354 700 l 1
 234 0 l 1
 41 0 l 1
 160 700 l 1
254 534 m 1
 283 700 l 1
 425 700 l 1
 591 698 689 607 667 465 c 0
 644 321 526 233 355 231 c 1
 202 231 l 1
 228 380 l 1
 355 380 l 1
 410 382 456 408 465 457 c 0
 473 504 443 532 390 534 c 1
 254 534 l 1
448 918 m 1
 544 999 l 1
 655 915 l 1
 432 778 l 1
 248 921 l 1
 379 1000 l 1
 448 918 l 1
EndSplineSet
EndChar

StartChar: uni0213
Encoding: 531 531 306
Width: 419
VWidth: 0
Flags: HMW
LayerCount: 2
Fore
SplineSet
272 460 m 1
 193 0 l 1
 24 0 l 1
 103 460 l 1
 272 460 l 1
371 282 m 1
 358 296 343 308 320 308 c 0
 273 309 240 262 229 210 c 1
 203 281 l 1
 220 377 294 475 386 472 c 0
 419 471 446 452 463 429 c 1
 371 282 l 1
136 531 m 1
 238 532 l 1
 247 562 273 587 303 586 c 0
 335 585 351 564 353 531 c 1
 457 532 l 1
 468 614 429 678 329 679 c 0
 226 680 160 614 136 531 c 1
EndSplineSet
EndChar

StartChar: uni0212
Encoding: 530 530 307
Width: 654
VWidth: 0
Flags: HMW
LayerCount: 2
Fore
SplineSet
282 308 m 1
 475 308 l 1
 625 0 l 1
 406 0 l 1
 282 308 l 1
160 700 m 1
 354 700 l 1
 234 0 l 1
 41 0 l 1
 160 700 l 1
254 534 m 1
 283 700 l 1
 425 700 l 1
 591 698 689 607 667 465 c 0
 644 321 526 233 355 231 c 1
 202 231 l 1
 228 380 l 1
 355 380 l 1
 410 382 456 408 465 457 c 0
 473 504 443 532 390 534 c 1
 254 534 l 1
277 778 m 1
 379 779 l 1
 388 809 414 833 444 832 c 0
 476 831 492 811 494 778 c 1
 597 778 l 1
 608 860 569 925 469 926 c 0
 366 927 301 861 277 778 c 1
EndSplineSet
EndChar

StartChar: OE
Encoding: 338 338 308
Width: 955
VWidth: 0
Flags: HMW
LayerCount: 2
Fore
SplineSet
565 287 m 1
 593 441 l 1
 963 441 l 1
 936 287 l 1
 565 287 l 1
546 670 m 1
 732 670 l 1
 621 30 l 1
 436 30 l 1
 546 670 l 1
932 158 m 1
 907 0 l 1
 357 0 l 1
 158 4 34 156 62 350 c 0
 92 551 261 697 465 700 c 1
 1026 700 l 1
 998 542 l 1
 622 542 l 1
 603 529 l 1
 487 529 l 1
 363 527 284 466 263 350 c 0
 244 238 294 174 415 171 c 1
 529 171 l 1
 550 158 l 1
 932 158 l 1
EndSplineSet
EndChar

StartChar: oe
Encoding: 339 339 309
Width: 873
VWidth: 0
Flags: HMW
LayerCount: 2
Fore
SplineSet
677 250 m 2
 683 303 679 355 628 358 c 0
 576 362 534 317 523 260 c 1
 515 230 l 1
 506 168 517 109 578 107 c 0
 626 105 659 133 688 162 c 1
 840 130 l 1
 790 54 698 -10 598 -10 c 0
 469 -9 412 107 428 230 c 0
 430 247 434 263 439 279 c 0
 473 386 568 471 686 470 c 0
 806 469 868 358 854 234 c 0
 852 223 849 205 846 194 c 1
 674 231 l 1
 677 250 l 2
473 194 m 1
 487 282 l 1
 842 282 l 1
 845 193 l 1
 473 194 l 1
45 230 m 0
 64 366 173 470 303 470 c 0
 433 470 482 358 466 230 c 0
 448 97 361 -10 232 -10 c 0
 102 -10 28 99 45 230 c 0
213 230 m 0
 205 177 227 132 280 131 c 0
 335 130 377 173 386 230 c 0
 393 282 376 328 322 329 c 0
 268 330 222 286 213 230 c 0
EndSplineSet
EndChar

StartChar: a.alt
Encoding: 65536 -1 310
Width: 545
VWidth: 0
Flags: HMW
LayerCount: 2
Fore
SplineSet
188 138 m 0
 185 112 207 100 232 99 c 0
 284 97 325 132 339 188 c 1
 346 129 l 1
 327 44 257 -10 163 -10 c 0
 70 -10 3 42 15 131 c 0
 29 224 123 277 230 277 c 0
 288 277 348 259 380 231 c 1
 368 153 l 1
 339 175 311 188 268 188 c 0
 229 188 191 170 188 138 c 0
144 307 m 1
 105 423 l 1
 169 449 246 474 325 474 c 0
 436 474 539 426 525 322 c 1
 470 0 l 1
 306 0 l 1
 356 282 l 1
 360 318 341 342 297 344 c 0
 238 347 179 322 144 307 c 1
EndSplineSet
EndChar

StartChar: Jcircumflex
Encoding: 308 308 312
Width: 347
VWidth: 0
Flags: HMW
LayerCount: 2
Fore
SplineSet
-112 -51 m 1
 -92 -67 -65 -84 -38 -83 c 0
 -2 -82 31 -51 39 -4 c 1
 161 700 l 1
 374 700 l 1
 246 -52 l 2
 222 -187 101 -245 -33 -245 c 0
 -111 -245 -181 -218 -235 -185 c 1
 -112 -51 l 1
298 860 m 1
 202 779 l 1
 90 863 l 1
 313 999 l 1
 497 857 l 1
 366 778 l 1
 298 860 l 1
EndSplineSet
EndChar

StartChar: jcircumflex
Encoding: 309 309 313
Width: 269
VWidth: 0
Flags: HMW
LayerCount: 2
Fore
SplineSet
-80 -66 m 1
 -69 -79 -57 -91 -40 -91 c 0
 -9 -91 13 -62 19 -29 c 1
 104 460 l 1
 269 460 l 1
 178 -77 l 2
 160 -176 87 -245 -29 -244 c 0
 -93 -244 -132 -216 -162 -189 c 1
 -80 -66 l 1
216 612 m 1
 119 531 l 1
 8 615 l 1
 231 752 l 1
 415 609 l 1
 284 530 l 1
 216 612 l 1
EndSplineSet
EndChar

StartChar: Nacute
Encoding: 323 323 314
Width: 775
VWidth: 0
Flags: HMW
LayerCount: 2
Fore
SplineSet
615 700 m 1
 801 700 l 1
 676 -33 l 1
 288 354 l 1
 226 0 l 1
 41 0 l 1
 166 733 l 1
 554 346 l 1
 615 700 l 1
658 910 m 1
 460 764 l 1
 366 813 l 1
 537 969 l 1
 658 910 l 1
EndSplineSet
EndChar

StartChar: nacute
Encoding: 324 324 315
Width: 572
VWidth: 0
Flags: HMW
LayerCount: 2
Fore
SplineSet
276 460 m 1
 197 0 l 1
 24 0 l 1
 103 460 l 1
 276 460 l 1
364 280 m 1
 367 317 366 350 325 354 c 0
 283 358 254 320 245 281 c 1
 216 273 l 1
 234 376 290 470 407 471 c 0
 520 472 559 399 546 298 c 1
 495 0 l 1
 314 0 l 1
 364 280 l 1
544 678 m 1
 347 531 l 1
 254 580 l 1
 424 737 l 1
 544 678 l 1
EndSplineSet
EndChar

StartChar: uni0145
Encoding: 325 325 316
Width: 775
VWidth: 0
Flags: HMW
LayerCount: 2
Fore
SplineSet
301 -61 m 1
 471 -95 l 1
 302 -342 l 1
 172 -317 l 1
 301 -61 l 1
615 700 m 1
 801 700 l 1
 676 -33 l 1
 288 354 l 1
 226 0 l 1
 41 0 l 1
 166 733 l 1
 554 346 l 1
 615 700 l 1
EndSplineSet
EndChar

StartChar: uni0146
Encoding: 326 326 317
Width: 572
VWidth: 0
Flags: HMW
LayerCount: 2
Fore
SplineSet
276 460 m 1
 197 0 l 1
 24 0 l 1
 103 460 l 1
 276 460 l 1
364 280 m 1
 367 317 366 350 325 354 c 0
 283 358 254 320 245 281 c 1
 214 273 l 1
 232 376 290 470 407 471 c 0
 520 472 559 399 546 298 c 1
 495 0 l 1
 314 0 l 1
 364 280 l 1
204 -61 m 1
 374 -96 l 1
 206 -343 l 1
 75 -317 l 1
 204 -61 l 1
EndSplineSet
EndChar

StartChar: Ncaron
Encoding: 327 327 318
Width: 775
VWidth: 0
Flags: HMW
LayerCount: 2
Fore
SplineSet
480 910 m 1
 577 992 l 1
 688 907 l 1
 465 770 l 1
 282 914 l 1
 412 992 l 1
 480 910 l 1
615 700 m 1
 801 700 l 1
 676 -33 l 1
 288 354 l 1
 226 0 l 1
 41 0 l 1
 166 733 l 1
 554 346 l 1
 615 700 l 1
EndSplineSet
EndChar

StartChar: ncaron
Encoding: 328 328 319
Width: 572
VWidth: 0
Flags: HMW
LayerCount: 2
Fore
SplineSet
276 460 m 1
 197 0 l 1
 24 0 l 1
 103 460 l 1
 276 460 l 1
364 280 m 1
 367 317 366 350 325 354 c 0
 283 358 254 320 245 281 c 1
 214 273 l 1
 232 376 290 470 407 471 c 0
 520 472 559 399 546 298 c 1
 495 0 l 1
 314 0 l 1
 364 280 l 1
369 671 m 1
 466 752 l 1
 577 668 l 1
 354 531 l 1
 170 674 l 1
 301 753 l 1
 369 671 l 1
EndSplineSet
EndChar

StartChar: Omacron
Encoding: 332 332 320
Width: 805
VWidth: 0
Flags: HMW
LayerCount: 2
Fore
SplineSet
266 350 m 0
 251 253 291 161 398 160 c 0
 506 159 588 246 606 350 c 0
 622 448 584 539 474 540 c 0
 366 541 284 454 266 350 c 0
62 350 m 0
 94 561 277 718 493 718 c 0
 707 718 840 555 810 350 c 0
 778 138 599 -27 377 -27 c 0
 159 -27 32 145 62 350 c 0
324 779 m 1
 350 928 l 1
 720 928 l 1
 694 778 l 1
 324 779 l 1
EndSplineSet
EndChar

StartChar: omacron
Encoding: 333 333 321
Width: 584
VWidth: 0
Flags: HMW
LayerCount: 2
Fore
SplineSet
41 230 m 0
 62 374 191 471 341 471 c 0
 488 471 590 371 570 230 c 0
 549 86 419 -10 269 -10 c 0
 122 -10 21 89 41 230 c 0
217 230 m 0
 209 179 233 132 284 131 c 0
 336 130 384 175 393 230 c 0
 401 281 377 328 326 329 c 0
 274 330 226 285 217 230 c 0
172 531 m 1
 197 680 l 1
 567 680 l 1
 541 531 l 1
 172 531 l 1
EndSplineSet
EndChar

StartChar: Obreve
Encoding: 334 334 322
Width: 805
VWidth: 0
Flags: HMW
LayerCount: 2
Fore
SplineSet
266 350 m 0
 251 253 291 161 398 160 c 0
 506 159 588 246 606 350 c 0
 622 448 584 539 474 540 c 0
 366 541 284 454 266 350 c 0
62 350 m 0
 94 561 277 718 493 718 c 0
 707 718 840 555 810 350 c 0
 778 138 599 -27 377 -27 c 0
 159 -27 32 145 62 350 c 0
371 927 m 1
 475 927 l 1
 476 896 490 875 520 873 c 0
 550 871 578 896 587 926 c 1
 696 925 l 1
 678 841 614 779 514 779 c 0
 414 779 365 841 371 927 c 1
EndSplineSet
EndChar

StartChar: obreve
Encoding: 335 335 323
Width: 584
VWidth: 0
Flags: HMW
LayerCount: 2
Fore
SplineSet
41 230 m 0
 62 374 191 471 341 471 c 0
 488 471 590 371 570 230 c 0
 549 86 419 -10 269 -10 c 0
 122 -10 21 89 41 230 c 0
217 230 m 0
 209 179 233 132 284 131 c 0
 336 130 384 175 393 230 c 0
 401 281 377 328 326 329 c 0
 274 330 226 285 217 230 c 0
218 679 m 1
 323 679 l 1
 324 648 337 628 367 626 c 0
 397 624 425 648 434 678 c 1
 543 678 l 1
 525 594 461 531 361 531 c 0
 261 531 212 593 218 679 c 1
EndSplineSet
EndChar

StartChar: Racute
Encoding: 340 340 324
Width: 654
VWidth: 0
Flags: HMW
LayerCount: 2
Fore
SplineSet
282 308 m 1
 475 308 l 1
 625 0 l 1
 406 0 l 1
 282 308 l 1
160 700 m 1
 354 700 l 1
 234 0 l 1
 41 0 l 1
 160 700 l 1
254 534 m 1
 283 700 l 1
 425 700 l 1
 591 698 689 607 667 465 c 0
 644 321 526 233 355 231 c 1
 202 231 l 1
 228 380 l 1
 355 380 l 1
 410 382 456 408 465 457 c 0
 473 504 443 532 390 534 c 1
 254 534 l 1
608 925 m 1
 411 779 l 1
 317 828 l 1
 487 984 l 1
 608 925 l 1
EndSplineSet
EndChar

StartChar: uni0156
Encoding: 342 342 325
Width: 654
VWidth: 0
Flags: HMW
LayerCount: 2
Fore
SplineSet
282 308 m 1
 475 308 l 1
 625 0 l 1
 406 0 l 1
 282 308 l 1
160 700 m 1
 354 700 l 1
 234 0 l 1
 41 0 l 1
 160 700 l 1
254 534 m 1
 283 700 l 1
 425 700 l 1
 591 698 689 607 667 465 c 0
 644 321 526 233 355 231 c 1
 202 231 l 1
 228 380 l 1
 355 380 l 1
 410 382 456 408 465 457 c 0
 473 504 443 532 390 534 c 1
 254 534 l 1
279 -61 m 1
 449 -96 l 1
 280 -343 l 1
 150 -317 l 1
 279 -61 l 1
EndSplineSet
EndChar

StartChar: uni0157
Encoding: 343 343 326
Width: 419
VWidth: 0
Flags: HMW
LayerCount: 2
Fore
SplineSet
272 460 m 1
 193 0 l 1
 24 0 l 1
 103 460 l 1
 272 460 l 1
371 282 m 1
 358 296 343 308 320 308 c 0
 273 309 240 262 229 210 c 1
 203 281 l 1
 220 377 294 475 386 472 c 0
 419 471 446 452 463 429 c 1
 371 282 l 1
54 -61 m 1
 222 -96 l 1
 55 -343 l 1
 -75 -317 l 1
 54 -61 l 1
EndSplineSet
EndChar

StartChar: Scedilla
Encoding: 350 350 327
Width: 630
VWidth: 0
Flags: HMW
LayerCount: 2
Fore
SplineSet
175 259 m 1
 209 191 245 143 315 143 c 0
 356 143 392 160 400 197 c 0
 411 248 345 265 287 290 c 0
 207 326 116 391 131 514 c 0
 151 640 272 718 415 718 c 0
 550 718 628 652 656 562 c 1
 503 481 l 1
 480 525 451 554 404 554 c 0
 368 554 333 536 327 507 c 0
 316 461 406 439 462 418 c 0
 560 379 617 305 603 198 c 0
 582 50 450 -27 292 -27 c 0
 166 -27 63 48 30 164 c 1
 175 259 l 1
259 61 m 1
 389 56 l 1
 272 -69 l 1
 285 -66 298 -64 313 -64 c 0
 362 -66 403 -109 395 -170 c 0
 385 -242 311 -280 245 -282 c 0
 187 -283 139 -271 89 -242 c 1
 147 -166 l 1
 172 -182 204 -191 226 -191 c 0
 252 -191 288 -179 290 -156 c 0
 292 -132 258 -126 236 -126 c 0
 215 -125 178 -131 143 -141 c 1
 259 61 l 1
EndSplineSet
EndChar

StartChar: scedilla
Encoding: 351 351 328
Width: 458
VWidth: 0
Flags: HMW
LayerCount: 2
Fore
SplineSet
76 179 m 1
 137 127 185 99 223 102 c 0
 241 103 263 114 265 132 c 0
 270 166 222 176 185 190 c 0
 121 215 68 256 79 337 c 0
 92 424 177 470 273 470 c 0
 349 470 412 443 470 408 c 1
 403 293 l 1
 369 327 325 356 284 355 c 0
 261 355 238 346 235 330 c 0
 228 296 290 287 330 271 c 0
 393 246 443 206 434 130 c 0
 421 28 343 -21 239 -22 c 0
 145 -23 69 11 -1 61 c 1
 76 179 l 1
199 65 m 1
 328 60 l 1
 211 -65 l 1
 224 -62 237 -60 252 -60 c 0
 301 -62 343 -105 335 -166 c 0
 325 -238 250 -276 184 -278 c 0
 126 -279 78 -266 28 -237 c 1
 86 -162 l 1
 111 -178 143 -187 165 -187 c 0
 191 -187 227 -175 229 -152 c 0
 231 -128 197 -122 175 -122 c 0
 154 -121 117 -127 82 -137 c 1
 199 65 l 1
EndSplineSet
EndChar

StartChar: Zcaron
Encoding: 381 381 329
Width: 624
VWidth: 0
Flags: HMW
LayerCount: 2
Fore
SplineSet
123 525 m 1
 153 700 l 1
 710 700 l 1
 310 167 l 1
 578 167 l 1
 548 0 l 1
 -25 0 l 1
 369 524 l 1
 123 525 l 1
463 918 m 1
 559 999 l 1
 670 915 l 1
 448 778 l 1
 264 921 l 1
 394 1000 l 1
 463 918 l 1
EndSplineSet
EndChar

StartChar: zcaron
Encoding: 382 382 330
Width: 517
VWidth: 0
Flags: HMW
LayerCount: 2
Fore
SplineSet
369 671 m 1
 466 751 l 1
 576 667 l 1
 354 530 l 1
 170 673 l 1
 301 752 l 1
 369 671 l 1
257 302 m 1
 82 303 l 1
 110 460 l 1
 568 460 l 1
 308 158 l 1
 478 158 l 1
 451 0 l 1
 -17 0 l 1
 257 302 l 1
EndSplineSet
EndChar

StartChar: Ydieresis
Encoding: 376 376 331
Width: 670
VWidth: 0
Flags: HMW
LayerCount: 2
Fore
SplineSet
214 884 m 0
 221 935 270 973 322 973 c 0
 374 973 415 933 408 881 c 0
 401 830 350 793 298 793 c 0
 246 793 207 832 214 884 c 0
512 884 m 0
 519 935 568 973 620 973 c 0
 672 973 712 933 705 881 c 0
 698 830 648 793 596 793 c 0
 544 793 505 832 512 884 c 0
544 700 m 1
 771 700 l 1
 455 275 l 1
 408 0 l 1
 210 0 l 1
 260 283 l 1
 90 700 l 1
 309 700 l 1
 385 460 l 1
 544 700 l 1
EndSplineSet
EndChar

StartChar: Scaron
Encoding: 352 352 332
Width: 630
VWidth: 0
Flags: HMW
LayerCount: 2
Fore
SplineSet
175 259 m 1
 209 191 245 143 315 143 c 0
 356 143 392 160 400 197 c 0
 411 248 345 265 287 290 c 0
 208 326 117 393 132 515 c 0
 152 641 273 718 415 718 c 0
 550 718 630 651 656 562 c 1
 503 481 l 1
 480 525 453 554 406 554 c 0
 370 554 333 536 327 507 c 0
 316 461 406 439 462 418 c 0
 560 379 617 305 603 198 c 0
 582 50 451 -27 292 -27 c 0
 166 -27 63 48 30 164 c 1
 175 259 l 1
451 918 m 1
 547 999 l 1
 658 915 l 1
 435 778 l 1
 251 921 l 1
 382 1000 l 1
 451 918 l 1
EndSplineSet
EndChar

StartChar: scaron
Encoding: 353 353 333
Width: 458
VWidth: 0
Flags: HMW
LayerCount: 2
Fore
SplineSet
77 178 m 1
 137 131 184 107 223 108 c 0
 241 108 261 114 264 131 c 0
 269 161 189 173 153 191 c 0
 96 220 56 263 65 333 c 0
 79 426 175 470 273 470 c 0
 349 470 413 443 470 408 c 1
 403 293 l 1
 366 327 317 349 275 349 c 0
 253 349 229 343 227 326 c 0
 223 299 291 285 330 270 c 0
 393 245 443 205 434 130 c 0
 421 28 344 -21 238 -22 c 0
 144 -23 66 11 -1 61 c 1
 77 178 l 1
306 654 m 1
 402 736 l 1
 513 651 l 1
 290 514 l 1
 106 658 l 1
 237 736 l 1
 306 654 l 1
EndSplineSet
EndChar

StartChar: Lslash
Encoding: 321 321 334
Width: 543
VWidth: 0
Flags: HMW
LayerCount: 2
Fore
SplineSet
32 299 m 1
 0 383 l 1
 425 648 l 1
 458 566 l 1
 32 299 l 1
161 700 m 1
 354 700 l 1
 263 167 l 1
 538 167 l 1
 509 0 l 1
 41 0 l 1
 161 700 l 1
EndSplineSet
EndChar

StartChar: lslash
Encoding: 322 322 335
Width: 274
VWidth: 0
Flags: HMW
LayerCount: 2
Fore
SplineSet
16 299 m 1
 -16 383 l 1
 370 620 l 1
 402 538 l 1
 16 299 l 1
157 780 m 1
 331 780 l 1
 197 0 l 1
 24 0 l 1
 157 780 l 1
EndSplineSet
EndChar

StartChar: uni0218
Encoding: 536 536 336
Width: 630
VWidth: 0
Flags: HMW
LayerCount: 2
Fore
SplineSet
175 259 m 1
 209 191 245 143 315 143 c 0
 356 143 392 160 400 197 c 0
 411 248 345 265 287 290 c 0
 208 326 117 393 132 515 c 0
 152 641 273 718 415 718 c 0
 550 718 630 651 656 562 c 1
 503 481 l 1
 480 525 453 554 406 554 c 0
 370 554 333 536 327 507 c 0
 316 461 406 439 462 418 c 0
 560 379 617 305 603 198 c 0
 582 50 451 -27 292 -27 c 0
 166 -27 63 48 30 164 c 1
 175 259 l 1
201 -71 m 1
 373 -106 l 1
 203 -353 l 1
 72 -327 l 1
 201 -71 l 1
EndSplineSet
EndChar

StartChar: uni0219
Encoding: 537 537 337
Width: 458
VWidth: 0
Flags: HMW
LayerCount: 2
Fore
SplineSet
77 178 m 1
 137 131 184 107 223 108 c 0
 241 108 261 114 264 131 c 0
 269 161 189 173 153 191 c 0
 96 220 56 263 65 333 c 0
 79 426 175 470 273 470 c 0
 349 470 413 443 470 408 c 1
 403 293 l 1
 366 327 317 349 275 349 c 0
 253 349 229 343 227 326 c 0
 223 299 291 285 330 270 c 0
 393 245 443 205 434 130 c 0
 421 28 344 -21 238 -22 c 0
 144 -23 66 11 -1 61 c 1
 77 178 l 1
148 -67 m 1
 317 -101 l 1
 149 -348 l 1
 19 -323 l 1
 148 -67 l 1
EndSplineSet
EndChar

StartChar: pi
Encoding: 960 960 338
Width: 603
VWidth: 0
Flags: HMW
LayerCount: 2
Fore
SplineSet
132 430 m 1
 293 430 l 1
 219 0 l 1
 58 0 l 1
 132 430 l 1
79 460 m 1
 619 460 l 1
 594 319 l 1
 54 319 l 1
 79 460 l 1
375 430 m 1
 536 430 l 1
 493 190 l 1
 487 137 500 128 534 120 c 1
 513 -8 l 1
 395 -8 307 -2 323 121 c 1
 375 430 l 1
EndSplineSet
EndChar

StartChar: trademark
Encoding: 8482 8482 339
Width: 748
VWidth: 0
Flags: HMW
LayerCount: 2
Fore
SplineSet
104 612 m 1
 119 700 l 1
 408 700 l 1
 393 612 l 1
 298 612 l 1
 252 350 l 1
 154 350 l 1
 199 612 l 1
 104 612 l 1
670 594 m 1
 766 724 l 1
 759 350 l 1
 657 350 l 1
 670 594 l 1
465 719 m 1
 516 585 l 1
 447 350 l 1
 342 351 l 1
 465 719 l 1
768 726 m 1
 741 589 l 1
 560 381 l 1
 445 599 l 1
 465 717 l 1
 577 518 l 1
 768 726 l 1
EndSplineSet
EndChar

StartChar: uni2219
Encoding: 8729 8729 340
Width: 319
VWidth: 0
Flags: HMW
LayerCount: 2
Fore
SplineSet
105 453 m 0
 112 509 164 556 224 556 c 0
 284 556 322 506 315 451 c 0
 308 395 256 348 196 348 c 0
 136 348 98 398 105 453 c 0
EndSplineSet
EndChar

StartChar: agrave.alt
Encoding: 65537 -1 341
Width: 545
VWidth: 0
Flags: HMW
LayerCount: 2
Fore
SplineSet
188 138 m 0
 185 112 206 100 232 99 c 0
 284 97 325 132 339 188 c 1
 346 129 l 1
 327 44 257 -10 163 -10 c 0
 70 -10 2 42 14 130 c 0
 28 224 123 277 230 277 c 0
 288 277 348 259 380 231 c 1
 368 153 l 1
 339 175 311 189 268 188 c 0
 232 187 193 170 188 138 c 0
144 307 m 1
 105 423 l 1
 169 449 246 474 325 474 c 0
 436 474 538 426 525 322 c 1
 470 0 l 1
 306 0 l 1
 356 282 l 1
 360 318 341 342 297 344 c 0
 238 347 179 322 144 307 c 1
196 687 m 1
 326 741 l 1
 447 577 l 1
 348 534 l 1
 196 687 l 1
EndSplineSet
EndChar

StartChar: aacute.alt
Encoding: 65538 -1 342
Width: 545
VWidth: 0
Flags: HMW
LayerCount: 2
Fore
SplineSet
188 138 m 0
 185 112 206 100 232 99 c 0
 284 97 325 132 339 188 c 1
 346 129 l 1
 327 44 257 -10 163 -10 c 0
 70 -10 2 42 14 130 c 0
 28 224 123 277 230 277 c 0
 288 277 348 259 380 231 c 1
 368 153 l 1
 339 175 311 189 268 188 c 0
 232 187 193 170 188 138 c 0
144 307 m 1
 105 423 l 1
 169 449 246 474 325 474 c 0
 436 474 538 426 525 322 c 1
 470 0 l 1
 306 0 l 1
 356 282 l 1
 360 318 341 342 297 344 c 0
 238 347 179 322 144 307 c 1
538 681 m 1
 342 535 l 1
 249 584 l 1
 418 740 l 1
 538 681 l 1
EndSplineSet
EndChar

StartChar: acircumflex.alt
Encoding: 65539 -1 343
Width: 545
VWidth: 0
Flags: HMW
LayerCount: 2
Fore
SplineSet
188 138 m 0
 185 112 206 100 232 99 c 0
 284 97 325 132 339 188 c 1
 346 129 l 1
 327 44 257 -10 163 -10 c 0
 70 -10 2 42 14 130 c 0
 28 224 123 277 230 277 c 0
 288 277 348 259 380 231 c 1
 368 153 l 1
 339 175 311 189 268 188 c 0
 232 187 193 170 188 138 c 0
144 307 m 1
 105 423 l 1
 169 449 246 474 325 474 c 0
 436 474 538 426 525 322 c 1
 470 0 l 1
 306 0 l 1
 356 282 l 1
 360 318 341 342 297 344 c 0
 238 347 179 322 144 307 c 1
358 616 m 1
 262 535 l 1
 151 619 l 1
 374 755 l 1
 558 612 l 1
 427 534 l 1
 358 616 l 1
EndSplineSet
EndChar

StartChar: atilde.alt
Encoding: 65540 -1 344
Width: 545
VWidth: 0
Flags: HMW
LayerCount: 2
Fore
SplineSet
188 138 m 0
 185 112 206 100 232 99 c 0
 284 97 325 132 339 188 c 1
 346 129 l 1
 327 44 257 -10 163 -10 c 0
 70 -10 2 42 14 130 c 0
 28 224 123 277 230 277 c 0
 288 277 348 259 380 231 c 1
 368 153 l 1
 339 175 311 189 268 188 c 0
 232 187 193 170 188 138 c 0
144 307 m 1
 105 423 l 1
 169 449 246 474 325 474 c 0
 436 474 538 426 525 322 c 1
 470 0 l 1
 306 0 l 1
 356 282 l 1
 360 318 341 342 297 344 c 0
 238 347 179 322 144 307 c 1
153 611 m 1
 174 659 220 709 286 707 c 0
 342 706 363 653 414 655 c 0
 445 656 468 682 490 709 c 1
 557 623 l 1
 530 584 471 533 408 535 c 0
 358 537 323 593 275 589 c 0
 242 587 228 557 220 539 c 1
 153 611 l 1
EndSplineSet
EndChar

StartChar: adieresis.alt
Encoding: 65541 -1 345
Width: 545
VWidth: 0
Flags: HMW
LayerCount: 2
Fore
SplineSet
188 138 m 0
 185 112 206 100 232 99 c 0
 284 97 325 132 339 188 c 1
 346 129 l 1
 327 44 257 -10 163 -10 c 0
 70 -10 2 42 14 130 c 0
 28 224 123 277 230 277 c 0
 288 277 348 259 380 231 c 1
 368 153 l 1
 339 175 311 189 268 188 c 0
 232 187 193 170 188 138 c 0
144 307 m 1
 105 423 l 1
 169 449 246 474 325 474 c 0
 436 474 538 426 525 322 c 1
 470 0 l 1
 306 0 l 1
 356 282 l 1
 360 318 341 342 297 344 c 0
 238 347 179 322 144 307 c 1
384 626 m 0
 391 677 441 714 493 714 c 0
 545 714 585 675 578 623 c 0
 571 572 522 535 470 535 c 0
 418 535 377 574 384 626 c 0
134 626 m 0
 141 677 190 714 242 714 c 0
 294 714 335 675 328 623 c 0
 321 572 272 535 220 535 c 0
 168 535 127 574 134 626 c 0
EndSplineSet
EndChar

StartChar: aring.alt
Encoding: 65542 -1 346
Width: 545
VWidth: 0
Flags: HMW
LayerCount: 2
Fore
SplineSet
188 138 m 0
 185 112 206 100 232 99 c 0
 284 97 325 132 339 188 c 1
 346 129 l 1
 327 44 257 -10 163 -10 c 0
 70 -10 2 42 14 130 c 0
 28 224 123 277 230 277 c 0
 288 277 348 259 380 231 c 1
 368 153 l 1
 339 175 311 189 268 188 c 0
 232 187 193 170 188 138 c 0
144 307 m 1
 105 423 l 1
 169 449 246 474 325 474 c 0
 436 474 538 426 525 322 c 1
 470 0 l 1
 306 0 l 1
 356 282 l 1
 360 318 341 342 297 344 c 0
 238 347 179 322 144 307 c 1
231 656 m 0
 240 724 305 775 376 775 c 0
 447 775 501 723 491 654 c 0
 482 585 417 535 345 535 c 0
 274 535 221 587 231 656 c 0
317 654 m 0
 314 632 328 611 350 610 c 0
 374 609 402 632 405 656 c 0
 408 678 393 699 371 700 c 0
 347 701 320 678 317 654 c 0
EndSplineSet
EndChar

StartChar: amacron.alt
Encoding: 65543 -1 347
Width: 545
VWidth: 0
Flags: HMW
LayerCount: 2
Fore
SplineSet
188 138 m 0
 185 112 206 100 232 99 c 0
 284 97 325 132 339 188 c 1
 346 129 l 1
 327 44 257 -10 163 -10 c 0
 70 -10 2 42 14 130 c 0
 28 224 123 277 230 277 c 0
 288 277 348 259 380 231 c 1
 368 153 l 1
 339 175 311 189 268 188 c 0
 232 187 193 170 188 138 c 0
144 307 m 1
 105 423 l 1
 169 449 246 474 325 474 c 0
 436 474 538 426 525 322 c 1
 470 0 l 1
 306 0 l 1
 356 282 l 1
 360 318 341 342 297 344 c 0
 238 347 179 322 144 307 c 1
155 538 m 1
 181 687 l 1
 553 687 l 1
 527 537 l 1
 155 538 l 1
EndSplineSet
EndChar

StartChar: abreve.alt
Encoding: 65544 -1 348
Width: 545
VWidth: 0
Flags: HMW
LayerCount: 2
Fore
SplineSet
188 138 m 0
 185 112 206 100 232 99 c 0
 284 97 325 132 339 188 c 1
 346 129 l 1
 327 44 257 -10 163 -10 c 0
 70 -10 2 42 14 130 c 0
 28 224 123 277 230 277 c 0
 288 277 348 259 380 231 c 1
 368 153 l 1
 339 175 311 189 268 188 c 0
 232 187 193 170 188 138 c 0
144 307 m 1
 105 423 l 1
 169 449 246 474 325 474 c 0
 436 474 538 426 525 322 c 1
 470 0 l 1
 306 0 l 1
 356 282 l 1
 360 318 341 342 297 344 c 0
 238 347 179 322 144 307 c 1
203 683 m 1
 307 682 l 1
 308 651 321 631 351 629 c 0
 381 627 410 652 419 682 c 1
 527 681 l 1
 509 597 446 535 346 535 c 0
 246 535 197 597 203 683 c 1
EndSplineSet
EndChar

StartChar: aogonek.alt
Encoding: 65545 -1 349
Width: 545
VWidth: 0
Flags: HMW
LayerCount: 2
Fore
SplineSet
188 138 m 0
 185 112 207 100 232 99 c 0
 284 97 325 132 339 188 c 1
 346 129 l 1
 327 44 257 -10 163 -10 c 0
 70 -10 3 42 15 131 c 0
 29 224 123 277 230 277 c 0
 288 277 348 259 380 231 c 1
 368 153 l 1
 339 175 311 189 268 188 c 0
 232 187 193 170 188 138 c 0
144 307 m 1
 105 423 l 1
 169 449 246 474 325 474 c 0
 436 474 538 426 525 322 c 1
 470 0 l 1
 306 0 l 1
 356 282 l 1
 360 318 341 342 297 344 c 0
 238 347 179 322 144 307 c 1
415 -105 m 1
 436 -182 l 1
 412 -203 381 -220 332 -220 c 0
 273 -219 224 -183 232 -119 c 0
 242 -47 323 -8 390 25 c 1
 430 0 l 1
 387 -27 347 -56 340 -92 c 0
 338 -109 343 -123 362 -125 c 0
 380 -127 401 -115 415 -105 c 1
EndSplineSet
EndChar

StartChar: dagger
Encoding: 8224 8224 350
Width: 632
VWidth: 0
Flags: HMW
LayerCount: 2
Fore
SplineSet
152 540 m 1
 614 540 l 1
 591 399 l 1
 130 399 l 1
 152 540 l 1
327 700 m 1
 488 700 l 1
 356 -150 l 1
 196 -150 l 1
 327 700 l 1
EndSplineSet
EndChar

StartChar: daggerdbl
Encoding: 8225 8225 351
Width: 632
VWidth: 0
Flags: HMW
LayerCount: 2
Fore
SplineSet
95 169 m 1
 557 169 l 1
 534 28 l 1
 72 28 l 1
 95 169 l 1
152 540 m 1
 614 540 l 1
 591 399 l 1
 130 399 l 1
 152 540 l 1
327 700 m 1
 488 700 l 1
 356 -150 l 1
 196 -150 l 1
 327 700 l 1
EndSplineSet
EndChar

StartChar: ellipsis
Encoding: 8230 8230 352
Width: 904
VWidth: 0
Flags: HMW
LayerCount: 2
Fore
SplineSet
41 78 m 0
 48 134 100 181 160 181 c 0
 220 181 258 131 251 76 c 0
 244 21 192 -27 132 -27 c 0
 72 -27 34 23 41 78 c 0
332 78 m 0
 339 134 391 181 451 181 c 0
 511 181 549 131 542 76 c 0
 535 21 483 -27 423 -27 c 0
 363 -27 325 23 332 78 c 0
623 78 m 0
 630 134 682 181 742 181 c 0
 802 181 840 131 833 76 c 0
 826 21 774 -27 714 -27 c 0
 654 -27 616 23 623 78 c 0
EndSplineSet
EndChar

StartChar: uniFF10
Encoding: 65296 65296 353
Width: 625
VWidth: 0
Flags: HMW
LayerCount: 2
Fore
SplineSet
236 350 m 0
 227 264 228 155 307 153 c 0
 387 151 441 253 454 350 c 0
 463 436 463 545 384 547 c 0
 304 549 249 447 236 350 c 0
52 350 m 0
 80 554 212 714 402 714 c 0
 599 714 664 544 639 350 c 0
 611 145 484 -14 289 -14 c 0
 98 -14 27 156 52 350 c 0
EndSplineSet
EndChar

StartChar: uniFF11
Encoding: 65297 65297 354
Width: 625
VWidth: 0
Flags: HMW
LayerCount: 2
Fore
SplineSet
156 476 m 1
 186 644 l 1
 557 715 l 1
 435 0 l 1
 249 0 l 1
 338 517 l 1
 156 476 l 1
EndSplineSet
EndChar

StartChar: uniFF12
Encoding: 65298 65298 355
Width: 625
VWidth: 0
Flags: HMW
LayerCount: 2
Fore
SplineSet
-23 0 m 1
 328 314 l 2
 384 367 441 410 452 472 c 0
 458 510 440 546 390 548 c 0
 330 550 288 492 276 435 c 1
 87 436 l 1
 115 587 232 716 415 715 c 0
 569 715 672 609 652 484 c 0
 640 406 588 347 524 299 c 2
 364 180 l 1
 621 179 l 1
 590 0 l 1
 -23 0 l 1
EndSplineSet
EndChar

StartChar: uniFF13
Encoding: 65299 65299 356
Width: 625
VWidth: 0
Flags: HMW
LayerCount: 2
Fore
SplineSet
297 337 m 1
 309 419 l 1
 371 423 440 452 447 505 c 0
 451 537 433 559 393 560 c 0
 344 561 310 525 298 485 c 1
 120 486 l 1
 146 617 256 714 409 714 c 0
 551 714 658 637 638 517 c 0
 615 377 452 338 297 337 c 1
287 -18 m 0
 122 -17 32 98 45 234 c 1
 233 234 l 1
 230 175 256 138 311 136 c 0
 361 135 407 161 415 212 c 0
 428 272 369 298 290 300 c 1
 303 395 l 1
 464 393 626 347 602 193 c 0
 581 60 449 -19 287 -18 c 0
EndSplineSet
EndChar

StartChar: uniFF14
Encoding: 65300 65300 357
Width: 625
VWidth: 0
Flags: HMW
LayerCount: 2
Fore
SplineSet
-2 120 m 1
 177 256 l 1
 438 257 l 1
 460 285 l 1
 634 285 l 1
 605 119 l 1
 -2 120 l 1
193 185 m 1
 -6 115 l 1
 459 699 l 1
 614 700 l 1
 494 0 l 1
 292 0 l 1
 318 155 l 1
 344 166 l 1
 389 427 l 1
 193 185 l 1
EndSplineSet
EndChar

StartChar: uniFF15
Encoding: 65301 65301 358
Width: 625
VWidth: 0
Flags: HMW
LayerCount: 2
Fore
SplineSet
604 221 m 0
 581 63 424 -13 282 -14 c 0
 169 -14 81 18 7 60 c 1
 93 227 l 1
 145 188 203 165 254 165 c 0
 322 165 387 187 397 247 c 0
 406 305 343 323 290 324 c 0
 229 325 153 312 83 287 c 1
 229 376 l 1
 288 425 352 449 428 448 c 0
 544 446 620 349 604 221 c 0
363 530 m 1
 276 367 l 1
 76 282 l 1
 247 700 l 1
 668 700 l 1
 639 530 l 1
 363 530 l 1
EndSplineSet
EndChar

StartChar: uniFF16
Encoding: 65302 65302 359
Width: 625
VWidth: 0
Flags: HMW
LayerCount: 2
Fore
SplineSet
227 250 m 0
 218 195 248 149 306 148 c 0
 365 147 420 193 430 251 c 0
 439 305 409 354 351 355 c 0
 291 356 237 308 227 250 c 0
385 695 m 1
 636 695 l 1
 371 456 l 1
 321 436 l 1
 360 466 392 478 440 478 c 0
 553 478 637 376 621 250 c 0
 598 80 451 -18 288 -18 c 0
 128 -18 13 85 36 251 c 0
 49 334 102 401 160 462 c 2
 385 695 l 1
EndSplineSet
EndChar

StartChar: uniFF17
Encoding: 65303 65303 360
Width: 625
VWidth: 0
Flags: HMW
LayerCount: 2
Fore
SplineSet
91 517 m 1
 122 700 l 1
 707 700 l 1
 258 0 l 1
 44 0 l 1
 390 516 l 1
 91 517 l 1
EndSplineSet
EndChar

StartChar: uniFF18
Encoding: 65304 65304 361
Width: 625
VWidth: 0
Flags: HMW
LayerCount: 2
Fore
SplineSet
148 532 m 0
 166 655 293 718 420 718 c 0
 542 718 656 654 638 530 c 0
 620 402 484 338 366 338 c 0
 253 338 130 404 148 532 c 0
325 512 m 0
 320 477 337 446 374 444 c 0
 412 442 449 476 455 513 c 0
 460 548 442 579 405 581 c 0
 367 583 331 549 325 512 c 0
66 190 m 0
 86 334 241 398 365 398 c 0
 482 398 624 334 604 190 c 0
 584 57 440 -18 304 -18 c 0
 174 -18 46 57 66 190 c 0
263 220 m 0
 256 176 279 141 323 140 c 0
 368 139 410 175 417 222 c 0
 423 260 399 296 357 297 c 0
 313 298 271 261 263 220 c 0
EndSplineSet
EndChar

StartChar: uniFF19
Encoding: 65305 65305 362
Width: 625
VWidth: 0
Flags: HMW
LayerCount: 2
Fore
SplineSet
464 450 m 0
 473 505 442 551 384 552 c 0
 325 553 271 507 261 449 c 0
 252 395 282 346 340 345 c 0
 400 344 454 392 464 450 c 0
306 4 m 1
 55 4 l 1
 319 244 l 1
 369 264 l 1
 330 234 299 222 251 222 c 0
 138 222 54 324 70 450 c 0
 93 620 240 718 403 718 c 0
 563 718 678 615 655 449 c 0
 642 366 589 299 531 238 c 2
 306 4 l 1
EndSplineSet
EndChar

StartChar: caron
Encoding: 711 711 363
Width: 465
VWidth: 0
Flags: HMW
LayerCount: 2
Fore
SplineSet
319 684 m 1
 415 766 l 1
 526 682 l 1
 303 544 l 1
 119 688 l 1
 250 767 l 1
 319 684 l 1
EndSplineSet
EndChar

StartChar: napostrophe
Encoding: 329 329 364
Width: 758
VWidth: 0
Flags: HMW
LayerCount: 2
Fore
SplineSet
462 460 m 1
 383 0 l 1
 211 0 l 1
 290 460 l 1
 462 460 l 1
551 280 m 1
 554 317 553 350 512 354 c 0
 470 358 440 320 431 281 c 1
 402 273 l 1
 420 376 477 470 594 471 c 0
 707 472 745 399 732 298 c 1
 681 0 l 1
 501 0 l 1
 551 280 l 1
192 700 m 1
 371 700 l 1
 224 437 l 1
 97 437 l 1
 192 700 l 1
EndSplineSet
EndChar

StartChar: IJ
Encoding: 306 306 365
Width: 647
VWidth: 0
Flags: HMW
LayerCount: 2
Fore
SplineSet
187 -51 m 1
 207 -67 233 -84 260 -83 c 0
 296 -82 330 -51 338 -4 c 1
 460 700 l 1
 672 700 l 1
 544 -52 l 2
 520 -187 400 -245 266 -245 c 0
 188 -245 117 -218 63 -185 c 1
 187 -51 l 1
160 700 m 1
 358 700 l 1
 238 0 l 1
 41 0 l 1
 160 700 l 1
EndSplineSet
EndChar

StartChar: ij
Encoding: 307 307 366
Width: 538
VWidth: 0
Flags: HMW
LayerCount: 2
Fore
SplineSet
386 629 m 0
 393 680 443 717 495 717 c 0
 547 717 587 678 580 626 c 0
 573 575 523 537 471 537 c 0
 419 537 379 577 386 629 c 0
189 -66 m 1
 200 -73 214 -91 228 -91 c 0
 259 -93 281 -61 287 -29 c 1
 372 460 l 1
 537 460 l 1
 446 -77 l 2
 428 -176 354 -245 238 -244 c 0
 174 -244 136 -216 106 -189 c 1
 189 -66 l 1
120 629 m 0
 127 680 176 717 228 717 c 0
 280 717 320 678 313 626 c 0
 306 575 257 537 205 537 c 0
 153 537 113 577 120 629 c 0
104 460 m 1
 271 460 l 1
 192 0 l 1
 26 0 l 1
 104 460 l 1
EndSplineSet
EndChar

StartChar: uni0237
Encoding: 567 567 367
Width: 269
VWidth: 0
Flags: HMW
LayerCount: 2
Fore
SplineSet
-80 -66 m 1
 -69 -79 -57 -91 -40 -91 c 0
 -9 -91 13 -62 19 -29 c 1
 104 460 l 1
 269 460 l 1
 178 -77 l 2
 160 -176 87 -245 -29 -244 c 0
 -93 -244 -132 -216 -162 -189 c 1
 -80 -66 l 1
EndSplineSet
EndChar

StartChar: Sacute
Encoding: 346 346 368
Width: 630
VWidth: 0
Flags: HMW
LayerCount: 2
Fore
SplineSet
175 259 m 1
 209 191 245 143 315 143 c 0
 356 143 392 160 400 197 c 0
 411 248 345 265 287 290 c 0
 208 326 117 393 132 515 c 0
 152 641 273 718 415 718 c 0
 550 718 630 651 656 562 c 1
 503 481 l 1
 480 525 453 554 406 554 c 0
 370 554 333 536 327 507 c 0
 316 461 406 439 462 418 c 0
 560 379 617 305 603 198 c 0
 582 50 451 -27 292 -27 c 0
 166 -27 63 48 30 164 c 1
 175 259 l 1
632 925 m 1
 436 779 l 1
 342 828 l 1
 511 984 l 1
 632 925 l 1
EndSplineSet
EndChar

StartChar: sacute
Encoding: 347 347 369
Width: 458
VWidth: 0
Flags: HMW
LayerCount: 2
Fore
SplineSet
77 178 m 1
 137 131 184 107 223 108 c 0
 241 108 261 114 264 131 c 0
 269 161 189 173 153 191 c 0
 96 220 56 263 65 333 c 0
 79 426 175 470 273 470 c 0
 349 470 413 443 470 408 c 1
 403 293 l 1
 366 327 317 349 275 349 c 0
 253 349 229 343 227 326 c 0
 223 299 291 285 330 270 c 0
 393 245 443 205 434 130 c 0
 421 28 344 -21 238 -22 c 0
 144 -23 66 11 -1 61 c 1
 77 178 l 1
490 678 m 1
 293 531 l 1
 199 580 l 1
 369 737 l 1
 490 678 l 1
EndSplineSet
EndChar

StartChar: Scircumflex
Encoding: 348 348 370
Width: 630
VWidth: 0
Flags: HMW
LayerCount: 2
Fore
SplineSet
175 259 m 1
 209 191 245 143 315 143 c 0
 356 143 392 160 400 197 c 0
 411 248 345 265 287 290 c 0
 208 326 117 393 132 515 c 0
 152 641 273 718 415 718 c 0
 550 718 630 651 656 562 c 1
 503 481 l 1
 480 525 453 554 406 554 c 0
 370 554 333 536 327 507 c 0
 316 461 406 439 462 418 c 0
 560 379 617 305 603 198 c 0
 582 50 451 -27 292 -27 c 0
 166 -27 63 48 30 164 c 1
 175 259 l 1
449 860 m 1
 352 779 l 1
 241 863 l 1
 464 999 l 1
 648 857 l 1
 518 778 l 1
 449 860 l 1
EndSplineSet
EndChar

StartChar: scircumflex
Encoding: 349 349 371
Width: 458
VWidth: 0
Flags: HMW
LayerCount: 2
Fore
SplineSet
77 178 m 1
 137 131 184 107 223 108 c 0
 241 108 261 114 264 131 c 0
 269 161 189 173 153 191 c 0
 96 220 56 263 65 333 c 0
 79 426 175 470 273 470 c 0
 349 470 413 443 470 408 c 1
 403 293 l 1
 366 327 317 349 275 349 c 0
 253 349 229 343 227 326 c 0
 223 299 291 285 330 270 c 0
 393 245 443 205 434 130 c 0
 421 28 344 -21 238 -22 c 0
 144 -23 66 11 -1 61 c 1
 77 178 l 1
322 612 m 1
 226 531 l 1
 115 615 l 1
 337 752 l 1
 522 609 l 1
 391 530 l 1
 322 612 l 1
EndSplineSet
EndChar

StartChar: uni1E9E
Encoding: 7838 7838 372
Width: 918
VWidth: 0
Flags: HMW
LayerCount: 2
Fore
SplineSet
551 -18 m 0
 375 -17 312 111 326 234 c 1
 489 234 l 1
 486 182 508 138 567 136 c 0
 623 134 663 163 671 212 c 0
 684 279 617 298 546 300 c 1
 557 380 l 1
 712 379 880 334 857 184 c 0
 838 57 699 -19 551 -18 c 0
555 346 m 1
 566 420 l 1
 629 423 684 444 693 497 c 0
 702 547 642 563 572 563 c 0
 436 562 323 472 298 320 c 1
 242 0 l 1
 49 0 l 1
 109 353 l 2
 147 568 336 709 578 710 c 0
 750 710 917 654 894 517 c 0
 872 388 716 347 555 346 c 1
EndSplineSet
EndChar

StartChar: Zacute
Encoding: 377 377 373
Width: 624
VWidth: 0
Flags: HW
LayerCount: 2
Fore
SplineSet
123 525 m 1
 153 700 l 1
 710 700 l 1
 310 167 l 1
 578 167 l 1
 548 0 l 1
 -25 0 l 1
 369 524 l 1
 123 525 l 1
641 925 m 1
 444 779 l 1
 351 828 l 1
 520 984 l 1
 641 925 l 1
EndSplineSet
EndChar

StartChar: zacute
Encoding: 378 378 374
Width: 525
VWidth: 0
Flags: HW
LayerCount: 2
Fore
SplineSet
255 302 m 1
 82 303 l 1
 110 460 l 1
 568 460 l 1
 310 158 l 1
 478 157 l 1
 451 0 l 1
 -17 0 l 1
 255 302 l 1
548 681 m 1
 351 535 l 1
 257 584 l 1
 427 740 l 1
 548 681 l 1
EndSplineSet
EndChar

StartChar: Zdotaccent
Encoding: 379 379 375
Width: 624
VWidth: 0
Flags: HW
LayerCount: 2
Fore
SplineSet
123 525 m 1
 153 700 l 1
 710 700 l 1
 310 167 l 1
 578 167 l 1
 548 0 l 1
 -25 0 l 1
 369 524 l 1
 123 525 l 1
362 870 m 0
 369 921 418 958 470 958 c 0
 522 958 563 919 556 867 c 0
 549 816 499 779 447 779 c 0
 395 779 355 818 362 870 c 0
EndSplineSet
EndChar

StartChar: zdotaccent
Encoding: 380 380 376
Width: 525
VWidth: 0
Flags: HW
LayerCount: 2
Fore
SplineSet
255 302 m 1
 82 303 l 1
 110 460 l 1
 568 460 l 1
 310 158 l 1
 478 157 l 1
 451 0 l 1
 -17 0 l 1
 255 302 l 1
269 628 m 0
 276 679 325 717 377 717 c 0
 429 717 469 677 462 625 c 0
 455 574 406 537 354 537 c 0
 302 537 262 576 269 628 c 0
EndSplineSet
EndChar

StartChar: Tcaron
Encoding: 356 356 377
Width: 574
VWidth: 0
Flags: HW
LayerCount: 2
Fore
SplineSet
62 525 m 1
 93 700 l 1
 668 700 l 1
 638 525 l 1
 447 525 l 1
 357 0 l 1
 164 0 l 1
 254 525 l 1
 62 525 l 1
413 918 m 1
 509 999 l 1
 620 915 l 1
 398 778 l 1
 214 921 l 1
 345 1000 l 1
 413 918 l 1
EndSplineSet
EndChar

StartChar: tcaron
Encoding: 357 357 378
Width: 511
VWidth: 0
Flags: HW
LayerCount: 2
Fore
SplineSet
55 460 m 1
 381 460 l 1
 357 319 l 1
 30 319 l 1
 55 460 l 1
163 620 m 1
 328 620 l 1
 221 0 l 1
 57 0 l 1
 163 620 l 1
499 778 m 1
 668 743 l 1
 500 496 l 1
 369 522 l 1
 499 778 l 1
EndSplineSet
EndChar

StartChar: Uring
Encoding: 366 366 379
Width: 702
VWidth: 0
Flags: HW
LayerCount: 2
Fore
SplineSet
156 700 m 1
 349 700 l 1
 270 247 l 2
 263 192 280 141 344 140 c 0
 409 139 450 189 461 247 c 1
 540 700 l 1
 733 700 l 1
 653 230 l 2
 625 58 489 -35 324 -35 c 0
 164 -35 54 59 76 230 c 1
 156 700 l 1
348 900 m 0
 357 968 422 1019 493 1019 c 0
 564 1019 618 967 608 898 c 0
 599 829 533 779 461 779 c 0
 390 779 338 831 348 900 c 0
434 898 m 0
 431 876 445 855 467 854 c 0
 491 853 518 876 521 900 c 0
 524 922 510 944 488 945 c 0
 464 946 437 922 434 898 c 0
EndSplineSet
EndChar

StartChar: uring
Encoding: 367 367 380
Width: 572
VWidth: 0
Flags: HW
LayerCount: 2
Fore
SplineSet
322 0 m 1
 401 460 l 1
 574 460 l 1
 495 0 l 1
 322 0 l 1
233 180 m 1
 230 143 231 110 272 106 c 0
 314 102 344 140 353 179 c 1
 381 187 l 1
 363 84 307 -10 190 -11 c 0
 77 -12 39 61 52 162 c 1
 103 460 l 1
 284 460 l 1
 233 180 l 1
241 653 m 0
 250 721 315 772 386 772 c 0
 457 772 510 720 500 651 c 0
 491 582 426 531 354 531 c 0
 283 531 231 584 241 653 c 0
327 651 m 0
 324 629 337 607 359 606 c 0
 383 605 411 628 414 652 c 0
 417 674 403 696 381 697 c 0
 357 698 330 675 327 651 c 0
EndSplineSet
EndChar

StartChar: Utilde
Encoding: 360 360 381
Width: 702
VWidth: 0
Flags: HW
LayerCount: 2
Fore
SplineSet
93 700 m 1
 289 700 l 1
 208 246 l 2
 201 192 217 141 280 140 c 0
 345 138 386 189 398 247 c 1
 477 700 l 1
 672 700 l 1
 592 230 l 2
 565 58 431 -35 266 -35 c 0
 106 -35 -8 58 14 230 c 1
 93 700 l 1
207 855 m 1
 206 904 286 952 339 951 c 0
 395 950 414 897 465 899 c 0
 496 900 521 927 543 953 c 1
 613 866 l 1
 587 827 527 777 465 779 c 0
 415 781 381 837 333 833 c 0
 300 831 287 801 278 783 c 1
 207 855 l 1
EndSplineSet
EndChar

StartChar: utilde
Encoding: 361 361 382
Width: 572
VWidth: 0
Flags: HW
LayerCount: 2
Fore
SplineSet
259 0 m 1
 339 460 l 1
 513 460 l 1
 434 0 l 1
 259 0 l 1
172 180 m 1
 168 144 169 109 209 106 c 0
 250 102 281 140 290 179 c 1
 319 187 l 1
 303 84 248 -9 131 -10 c 0
 18 -11 -21 60 -9 162 c 1
 40 460 l 1
 223 460 l 1
 172 180 l 1
99 608 m 1
 119 655 166 705 231 704 c 0
 287 703 307 649 358 651 c 0
 389 652 414 680 436 706 c 1
 505 618 l 1
 479 579 420 530 358 532 c 0
 308 534 274 589 226 585 c 0
 193 583 179 553 170 535 c 1
 99 608 l 1
EndSplineSet
EndChar

StartChar: Umacron
Encoding: 362 362 383
Width: 702
VWidth: 0
Flags: HW
LayerCount: 2
Fore
SplineSet
93 700 m 1
 289 700 l 1
 208 246 l 2
 201 192 217 141 280 140 c 0
 345 138 386 189 398 247 c 1
 477 700 l 1
 672 700 l 1
 592 230 l 2
 565 58 431 -35 266 -35 c 0
 106 -35 -8 58 14 230 c 1
 93 700 l 1
209 779 m 1
 235 927 l 1
 608 927 l 1
 582 779 l 1
 209 779 l 1
EndSplineSet
EndChar

StartChar: umacron
Encoding: 363 363 384
Width: 572
VWidth: 0
Flags: HW
LayerCount: 2
Fore
SplineSet
259 0 m 1
 339 460 l 1
 513 460 l 1
 434 0 l 1
 259 0 l 1
172 180 m 1
 168 144 169 109 209 106 c 0
 250 102 281 140 290 179 c 1
 319 187 l 1
 303 84 248 -9 131 -10 c 0
 18 -11 -21 60 -9 162 c 1
 40 460 l 1
 223 460 l 1
 172 180 l 1
102 531 m 1
 128 680 l 1
 501 680 l 1
 475 531 l 1
 102 531 l 1
EndSplineSet
EndChar

StartChar: Ubreve
Encoding: 364 364 385
Width: 702
VWidth: 0
Flags: HW
LayerCount: 2
Fore
SplineSet
93 700 m 1
 289 700 l 1
 208 246 l 2
 201 192 217 141 280 140 c 0
 345 138 386 189 398 247 c 1
 477 700 l 1
 672 700 l 1
 592 230 l 2
 565 58 431 -35 266 -35 c 0
 106 -35 -8 58 14 230 c 1
 93 700 l 1
256 927 m 1
 360 926 l 1
 360 895 375 875 404 873 c 0
 434 871 462 896 471 926 c 1
 582 925 l 1
 566 840 502 779 403 779 c 0
 303 779 252 840 256 927 c 1
EndSplineSet
EndChar

StartChar: ubreve
Encoding: 365 365 386
Width: 572
VWidth: 0
Flags: HW
LayerCount: 2
Fore
SplineSet
259 0 m 1
 339 460 l 1
 513 460 l 1
 434 0 l 1
 259 0 l 1
172 180 m 1
 168 144 169 109 209 106 c 0
 250 102 281 140 290 179 c 1
 319 187 l 1
 303 84 248 -9 131 -10 c 0
 18 -11 -21 60 -9 162 c 1
 40 460 l 1
 223 460 l 1
 172 180 l 1
149 679 m 1
 253 678 l 1
 253 647 267 628 296 626 c 0
 326 624 355 648 364 678 c 1
 475 677 l 1
 459 592 395 531 296 531 c 0
 196 531 145 592 149 679 c 1
EndSplineSet
EndChar

StartChar: Wcircumflex
Encoding: 372 372 387
Width: 1056
VWidth: 0
Flags: HW
LayerCount: 2
Fore
SplineSet
746 323 m 1
 915 700 l 1
 1150 700 l 1
 728 -45 l 1
 566 337 l 1
 279 -47 l 1
 94 700 l 1
 321 700 l 1
 370 325 l 1
 624 738 l 1
 746 323 l 1
653 880 m 1
 557 799 l 1
 446 883 l 1
 668 1019 l 1
 852 877 l 1
 721 798 l 1
 653 880 l 1
EndSplineSet
EndChar

StartChar: wcircumflex
Encoding: 373 373 388
Width: 763
VWidth: 0
Flags: HW
LayerCount: 2
Fore
SplineSet
42 460 m 1
 215 460 l 1
 264 249 l 1
 437 498 l 1
 525 247 l 1
 648 460 l 1
 831 460 l 1
 503 -29 l 1
 395 224 l 1
 200 -29 l 1
 42 460 l 1
467 639 m 1
 370 558 l 1
 259 642 l 1
 481 779 l 1
 666 636 l 1
 535 557 l 1
 467 639 l 1
EndSplineSet
EndChar

StartChar: Ycircumflex
Encoding: 374 374 389
Width: 670
VWidth: 0
Flags: HW
LayerCount: 2
Fore
SplineSet
544 700 m 1
 771 700 l 1
 455 275 l 1
 408 0 l 1
 210 0 l 1
 260 284 l 1
 90 700 l 1
 309 700 l 1
 385 460 l 1
 544 700 l 1
453 860 m 1
 356 779 l 1
 245 864 l 1
 467 1000 l 1
 652 857 l 1
 521 778 l 1
 453 860 l 1
EndSplineSet
EndChar

StartChar: ycircumflex
Encoding: 375 375 390
Width: 530
VWidth: 0
Flags: HW
LayerCount: 2
Fore
SplineSet
599 460 m 1
 191 -220 l 1
 16 -220 l 1
 167 33 l 1
 40 460 l 1
 223 460 l 1
 304 87 l 1
 212 89 l 1
 420 460 l 1
 599 460 l 1
349 613 m 1
 252 532 l 1
 141 616 l 1
 364 753 l 1
 548 610 l 1
 417 531 l 1
 349 613 l 1
EndSplineSet
EndChar

StartChar: uni0123
Encoding: 291 291 391
Width: 553
VWidth: 0
Flags: HW
LayerCount: 2
Fore
SplineSet
311 835 m 1
 474 774 l 1
 281 549 l 1
 156 594 l 1
 311 835 l 1
-59 -34 m 1
 104 -35 l 1
 108 -82 129 -104 177 -105 c 0
 242 -106 289 -56 301 10 c 1
 379 460 l 1
 546 460 l 1
 469 10 l 2
 444 -153 330 -241 177 -242 c 0
 17 -242 -55 -163 -59 -34 c 1
-20 239 m 0
 -3 377 104 470 223 470 c 0
 346 470 404 366 388 238 c 0
 371 107 282 7 160 7 c 0
 41 7 -36 105 -20 239 c 0
161 237 m 0
 153 186 180 146 231 144 c 0
 280 142 332 183 341 239 c 0
 349 291 322 331 274 333 c 0
 221 335 170 291 161 237 c 0
EndSplineSet
EndChar

StartChar: Hbar
Encoding: 294 294 392
Width: 784
VWidth: 0
Flags: HW
LayerCount: 2
Fore
SplineSet
71 279 m 1
 102 453 l 1
 636 453 l 1
 606 279 l 1
 71 279 l 1
554 700 m 1
 750 700 l 1
 629 0 l 1
 434 0 l 1
 554 700 l 1
98 700 m 1
 294 700 l 1
 173 0 l 1
 -22 0 l 1
 98 700 l 1
5 536 m 1
 25 652 l 1
 807 652 l 1
 786 536 l 1
 5 536 l 1
EndSplineSet
EndChar

StartChar: hbar
Encoding: 295 295 393
Width: 564
VWidth: 0
Flags: HW
LayerCount: 2
Fore
SplineSet
270 780 m 1
 136 0 l 1
 -39 0 l 1
 95 780 l 1
 270 780 l 1
302 280 m 1
 306 316 305 351 265 354 c 0
 224 358 194 320 185 281 c 1
 155 281 l 1
 172 384 228 478 345 479 c 0
 459 480 489 408 477 307 c 1
 426 0 l 1
 251 0 l 1
 302 280 l 1
14 588 m 1
 40 737 l 1
 372 737 l 1
 346 588 l 1
 14 588 l 1
EndSplineSet
EndChar

StartChar: uni0400
Encoding: 1024 1024 394
Width: 533
VWidth: 0
Flags: HW
LayerCount: 2
Fore
SplineSet
170 0 m 1
 197 158 l 1
 545 158 l 1
 517 0 l 1
 170 0 l 1
262 542 m 1
 289 700 l 1
 637 700 l 1
 610 542 l 1
 262 542 l 1
219 287 m 1
 246 441 l 1
 574 441 l 1
 547 287 l 1
 219 287 l 1
159 700 m 1
 347 700 l 1
 227 0 l 1
 40 0 l 1
 159 700 l 1
265 932 m 1
 394 986 l 1
 516 820 l 1
 419 778 l 1
 265 932 l 1
EndSplineSet
EndChar

StartChar: uni0401
Encoding: 1025 1025 395
Width: 533
VWidth: 0
Flags: HW
LayerCount: 2
Fore
SplineSet
170 0 m 1
 197 158 l 1
 545 158 l 1
 517 0 l 1
 170 0 l 1
262 542 m 1
 289 700 l 1
 637 700 l 1
 610 542 l 1
 262 542 l 1
219 287 m 1
 246 441 l 1
 574 441 l 1
 547 287 l 1
 219 287 l 1
159 700 m 1
 347 700 l 1
 227 0 l 1
 40 0 l 1
 159 700 l 1
457 870 m 0
 463 921 511 958 563 958 c 0
 616 958 659 920 652 867 c 0
 646 816 596 779 544 779 c 0
 491 779 450 817 457 870 c 0
207 870 m 0
 213 921 261 958 313 958 c 0
 366 958 409 920 402 867 c 0
 396 816 346 779 294 779 c 0
 241 779 200 817 207 870 c 0
EndSplineSet
EndChar

StartChar: uni0403
Encoding: 1027 1027 396
Width: 513
VWidth: 0
Flags: HW
LayerCount: 2
Fore
SplineSet
167 700 m 1
 600 700 l 1
 569 525 l 1
 333 525 l 1
 243 0 l 1
 48 0 l 1
 167 700 l 1
596 924 m 1
 401 779 l 1
 304 830 l 1
 473 984 l 1
 596 924 l 1
EndSplineSet
EndChar

StartChar: uni040C
Encoding: 1036 1036 397
Width: 548
VWidth: 0
Flags: HW
LayerCount: 2
Fore
SplineSet
159 700 m 1
 364 700 l 1
 243 0 l 1
 40 0 l 1
 159 700 l 1
572 700 m 1
 809 700 l 1
 475 365 l 1
 694 0 l 1
 469 0 l 1
 249 373 l 1
 572 700 l 1
629 907 m 1
 435 762 l 1
 338 813 l 1
 506 968 l 1
 629 907 l 1
EndSplineSet
EndChar

StartChar: uni040D
Encoding: 1037 1037 398
Width: 775
VWidth: 0
Flags: HW
LayerCount: 2
Fore
SplineSet
760 493 m 1
 30 -45 l 1
 81 207 l 1
 812 746 l 1
 760 493 l 1
347 700 m 1
 251 144 l 1
 30 -45 l 1
 160 700 l 1
 347 700 l 1
812 746 m 1
 682 0 l 1
 494 0 l 1
 588 548 l 1
 812 746 l 1
364 915 m 1
 492 969 l 1
 614 804 l 1
 518 761 l 1
 364 915 l 1
EndSplineSet
EndChar

StartChar: uni040E
Encoding: 1038 1038 399
Width: 599
VWidth: 0
Flags: HW
LayerCount: 2
Fore
SplineSet
710 700 m 1
 271 0 l 1
 76 0 l 1
 212 223 l 1
 81 700 l 1
 282 700 l 1
 352 300 l 1
 271 301 l 1
 511 700 l 1
 710 700 l 1
266 927 m 1
 370 926 l 1
 371 896 386 875 414 873 c 0
 444 871 473 896 481 926 c 1
 592 925 l 1
 576 840 512 778 413 778 c 0
 313 778 262 840 266 927 c 1
EndSplineSet
EndChar

StartChar: uni0410
Encoding: 1040 1040 400
Width: 735
VWidth: 0
Flags: HW
LayerCount: 2
Fore
SplineSet
180 111 m 1
 210 255 l 1
 564 255 l 1
 544 111 l 1
 180 111 l 1
416 411 m 1
 291 201 l 1
 295 156 l 1
 191 0 l 1
 -36 0 l 1
 467 751 l 1
 711 0 l 1
 498 0 l 1
 445 152 l 1
 465 201 l 1
 416 411 l 1
EndSplineSet
EndChar

StartChar: uni0411
Encoding: 1041 1041 401
Width: 690
VWidth: 0
Flags: HW
LayerCount: 2
Fore
SplineSet
146 287 m 1
 170 441 l 1
 462 441 l 1
 590 441 683 348 666 222 c 0
 649 94 535 0 403 0 c 1
 93 0 l 1
 121 158 l 1
 371 158 l 2
 422 158 458 178 468 223 c 0
 477 265 448 286 401 286 c 1
 146 287 l 1
167 700 m 1
 696 700 l 1
 669 542 l 1
 340 542 l 1
 247 0 l 1
 48 0 l 1
 167 700 l 1
EndSplineSet
EndChar

StartChar: uni0412
Encoding: 1042 1042 402
Width: 677
VWidth: 0
Flags: HW
LayerCount: 2
Fore
SplineSet
240.419921875 341 m 1
 255.419921875 423 l 1
 360.419921875 424 l 1
 409.419921875 424 448.419921875 447 456.419921875 490 c 0
 463.419921875 530 439.419921875 550 394.419921875 551 c 1
 333.419921875 551 l 1
 260.419921875 149 l 1
 331.419921875 149 l 1
 385.419921875 150 441.419921875 167 451.419921875 225 c 0
 459.419921875 276 417.419921875 289 368.419921875 290 c 1
 231.419921875 291 l 1
 251.419921875 398 l 1
 396.419921875 398 l 1
 523.419921875 396 664.419921875 337 646.419921875 194 c 0
 628.419921875 52 498.419921875 1 344.419921875 0 c 1
 41.419921875 0 l 1
 161.419921875 700 l 1
 430.419921875 700 l 1
 557.419921875 698 680.419921875 645 663.419921875 520 c 0
 647.419921875 399 519.419921875 343 385.419921875 341 c 2
 240.419921875 341 l 1
EndSplineSet
EndChar

StartChar: uni0413
Encoding: 1043 1043 403
Width: 513
VWidth: 0
Flags: HW
LayerCount: 2
Fore
SplineSet
167 700 m 1
 600 700 l 1
 569 525 l 1
 333 525 l 1
 243 0 l 1
 48 0 l 1
 167 700 l 1
EndSplineSet
EndChar

StartChar: uni0414
Encoding: 1044 1044 404
Width: 882
VWidth: 0
Flags: HW
LayerCount: 2
Fore
SplineSet
480 387 m 1
 297 30 l 1
 63 30 l 1
 536 739 l 1
 764 30 l 1
 543 30 l 1
 480 387 l 1
618 0 m 1
 208 0 l 1
 188 -110 l 1
 -10 -110 l 1
 38 167 l 1
 844 167 l 1
 796 -110 l 1
 598 -110 l 1
 618 0 l 1
EndSplineSet
EndChar

StartChar: uni0415
Encoding: 1045 1045 405
Width: 603
VWidth: 0
Flags: HW
LayerCount: 2
Fore
SplineSet
171 0 m 1
 198 158 l 1
 546 158 l 1
 519 0 l 1
 171 0 l 1
263 542 m 1
 291 700 l 1
 639 700 l 1
 611 542 l 1
 263 542 l 1
220 287 m 1
 246 441 l 1
 575 441 l 1
 548 287 l 1
 220 287 l 1
160 700 m 1
 349 700 l 1
 228 0 l 1
 41 0 l 1
 160 700 l 1
EndSplineSet
EndChar

StartChar: uni0416
Encoding: 1046 1046 406
Width: 1111
VWidth: 0
Flags: HW
LayerCount: 2
Fore
SplineSet
322 700 m 1
 545 363 l 1
 199 0 l 1
 -37 0 l 1
 327 379 l 1
 107 700 l 1
 322 700 l 1
548 700 m 1
 752 700 l 1
 632 0 l 1
 428 0 l 1
 548 700 l 1
957 700 m 1
 1201 700 l 1
 858 365 l 1
 1085 0 l 1
 862 0 l 1
 641 377 l 1
 957 700 l 1
EndSplineSet
EndChar

StartChar: uni0417
Encoding: 1047 1047 407
Width: 667
VWidth: 0
Flags: HW
LayerCount: 2
Fore
SplineSet
331 337 m 1
 342 419 l 1
 416 421 485 444 495 498 c 0
 501 536 472 559 424 560 c 0
 362 561 323 529 308 485 c 1
 128 486 l 1
 152 623 266 714 435 714 c 0
 588 714 707 643 688 517 c 0
 666 374 488 338 331 337 c 1
334 -18 m 0
 142 -18 38 88 51 234 c 1
 239 233 l 1
 237 169 272 137 336 136 c 0
 396 135 453 157 464 212 c 0
 481 275 411 298 326 300 c 1
 338 395 l 1
 501 394 674 348 652 193 c 0
 633 58 504 -18 334 -18 c 0
EndSplineSet
EndChar

StartChar: uni0418
Encoding: 1048 1048 408
Width: 775
VWidth: 0
Flags: HW
LayerCount: 2
Fore
SplineSet
760 493 m 1
 30 -45 l 1
 81 207 l 1
 812 746 l 1
 760 493 l 1
347 700 m 1
 251 144 l 1
 30 -45 l 1
 160 700 l 1
 347 700 l 1
812 746 m 1
 682 0 l 1
 494 0 l 1
 588 548 l 1
 812 746 l 1
EndSplineSet
EndChar

StartChar: uni0419
Encoding: 1049 1049 409
Width: 775
VWidth: 0
Flags: HW
LayerCount: 2
Fore
SplineSet
760 493 m 1
 30 -45 l 1
 81 207 l 1
 812 746 l 1
 760 493 l 1
347 700 m 1
 251 144 l 1
 30 -45 l 1
 160 700 l 1
 347 700 l 1
812 746 m 1
 682 0 l 1
 494 0 l 1
 588 548 l 1
 812 746 l 1
365 926 m 1
 469 926 l 1
 470 895 485 874 515 872 c 0
 545 870 573 896 581 926 c 1
 689 925 l 1
 672 841 610 779 510 779 c 0
 411 779 361 840 365 926 c 1
EndSplineSet
EndChar

StartChar: uni041A
Encoding: 1050 1050 410
Width: 722
VWidth: 0
Flags: HW
LayerCount: 2
Fore
SplineSet
159 700 m 1
 364 700 l 1
 243 0 l 1
 40 0 l 1
 159 700 l 1
572 700 m 1
 809 700 l 1
 475 365 l 1
 694 0 l 1
 469 0 l 1
 249 373 l 1
 572 700 l 1
EndSplineSet
EndChar

StartChar: uni041B
Encoding: 1051 1051 411
Width: 781
VWidth: 0
Flags: HW
LayerCount: 2
Fore
SplineSet
800 700 m 1
 680 0 l 1
 480 0 l 1
 571 525 l 1
 375 525 l 1
 339 314 l 2
 305 107 198 7 -16 1 c 1
 6 165 l 1
 77 173 122 220 136 295 c 1
 206 700 l 1
 800 700 l 1
EndSplineSet
EndChar

StartChar: uni041C
Encoding: 1052 1052 412
Width: 891
VWidth: 0
Flags: HW
LayerCount: 2
Fore
SplineSet
302 318 m 1
 209 0 l 1
 -0 0 l 1
 245 736 l 1
 471 337 l 1
 843 744 l 1
 833 0 l 1
 628 0 l 1
 644 308 l 1
 432 63 l 1
 302 318 l 1
EndSplineSet
EndChar

StartChar: uni041D
Encoding: 1053 1053 413
Width: 784
VWidth: 0
Flags: HW
LayerCount: 2
Fore
SplineSet
133 278 m 1
 163 453 l 1
 698 453 l 1
 668 278 l 1
 133 278 l 1
615 700 m 1
 811 700 l 1
 691 0 l 1
 496 0 l 1
 615 700 l 1
159 700 m 1
 355 700 l 1
 235 0 l 1
 40 0 l 1
 159 700 l 1
EndSplineSet
EndChar

StartChar: uni041E
Encoding: 1054 1054 414
Width: 805
VWidth: 0
Flags: HW
LayerCount: 2
Fore
SplineSet
267.315429688 350 m 0
 251.315429688 254 289.315429688 161 396.315429688 160 c 0
 504.315429688 159 586.315429688 246 605.315429688 350 c 0
 621.315429688 447 586.315429688 539 476.315429688 540 c 0
 368.315429688 541 286.315429688 454 267.315429688 350 c 0
61.3154296875 350 m 0
 91.3154296875 561 274.315429688 718 490.315429688 718 c 0
 704.315429688 718 838.315429688 556 810.315429688 350 c 0
 780.315429688 137 602.315429688 -27 380.315429688 -27 c 0
 162.315429688 -27 32.3154296875 144 61.3154296875 350 c 0
EndSplineSet
EndChar

StartChar: uni041F
Encoding: 1055 1055 415
Width: 765
VWidth: 0
Flags: HW
LayerCount: 2
Fore
SplineSet
554 525 m 1
 337 525 l 1
 247 0 l 1
 48 0 l 1
 168 700 l 1
 784 700 l 1
 663 0 l 1
 464 0 l 1
 554 525 l 1
EndSplineSet
EndChar

StartChar: uni0420
Encoding: 1056 1056 416
Width: 631
VWidth: 0
Flags: HW
LayerCount: 2
Fore
SplineSet
160.006835938 700 m 1
 357.006835938 700 l 1
 237.006835938 0 l 1
 41.0068359375 0 l 1
 160.006835938 700 l 1
257.006835938 542 m 1
 283.006835938 700 l 1
 407.006835938 700 l 1
 574.006835938 698 675.006835938 613 653.006835938 465 c 0
 631.006835938 316 516.006835938 233 344.006835938 231 c 1
 202.006835938 231 l 1
 230.006835938 388 l 1
 355.006835938 389 l 2
 411.006835938 389 457.006835938 417 467.006835938 466 c 0
 476.006835938 513 447.006835938 540 394.006835938 541 c 1
 257.006835938 542 l 1
EndSplineSet
EndChar

StartChar: uni0421
Encoding: 1057 1057 417
Width: 684
VWidth: 0
Flags: HW
LayerCount: 2
Fore
SplineSet
274 350 m 0
 256 247 316 170 421 168 c 0
 513 167 582 212 639 256 c 1
 611 50 l 1
 550 9 483 -18 393 -18 c 0
 171 -18 31 140 61 350 c 0
 92 566 274 718 502 718 c 0
 590 718 651 692 708 649 c 1
 679 443 l 1
 638 494 583 532 499 532 c 0
 392 532 295 459 274 350 c 0
EndSplineSet
EndChar

StartChar: uni0422
Encoding: 1058 1058 418
Width: 576
VWidth: 0
Flags: HW
LayerCount: 2
Fore
SplineSet
62 525 m 1
 93 700 l 1
 670 700 l 1
 639 525 l 1
 449 525 l 1
 359 0 l 1
 164 0 l 1
 253 525 l 1
 62 525 l 1
EndSplineSet
EndChar

StartChar: uni0423
Encoding: 1059 1059 419
Width: 615
VWidth: 0
Flags: HW
LayerCount: 2
Fore
SplineSet
727 700 m 1
 287 0 l 1
 84 0 l 1
 220 223 l 1
 81 700 l 1
 290 700 l 1
 360 300 l 1
 279 301 l 1
 520 700 l 1
 727 700 l 1
EndSplineSet
EndChar

StartChar: uni0424
Encoding: 1060 1060 420
Width: 950
VWidth: 0
Flags: HW
LayerCount: 2
Fore
SplineSet
468 700 m 1
 668 700 l 1
 548 0 l 1
 349 0 l 1
 468 700 l 1
750 350 m 0
 768 432 697 451 612 452 c 1
 456 452 l 2
 363 451 285 432 267 350 c 0
 249 268 320 249 405 248 c 1
 562 248 l 2
 655 249 732 268 750 350 c 0
948 350 m 0
 924 181 765 80 589 80 c 1
 353 80 l 1
 184 80 46 183 69 350 c 0
 93 519 252 620 428 620 c 1
 665 620 l 1
 834 620 971 517 948 350 c 0
EndSplineSet
EndChar

StartChar: uni0425
Encoding: 1061 1061 421
Width: 720
VWidth: 0
Flags: HW
LayerCount: 2
Fore
SplineSet
551 700 m 1
 800 700 l 1
 517 350 l 1
 686 0 l 1
 453 0 l 1
 378 208 l 1
 228 0 l 1
 -22 0 l 1
 284 363 l 1
 132 700 l 1
 365 700 l 1
 425 520 l 1
 551 700 l 1
EndSplineSet
EndChar

StartChar: uni0426
Encoding: 1062 1062 422
Width: 864
VWidth: 0
Flags: HW
LayerCount: 2
Fore
SplineSet
269 175 m 1
 526 175 l 1
 616 700 l 1
 815 700 l 1
 726 175 l 1
 840 175 l 1
 785 -143 l 1
 596 -143 l 1
 620 0 l 1
 40 0 l 1
 160 700 l 1
 359 700 l 1
 269 175 l 1
EndSplineSet
EndChar

StartChar: uni0427
Encoding: 1063 1063 423
Width: 727
VWidth: 0
Flags: HW
LayerCount: 2
Fore
SplineSet
319 202 m 1
 407 374 l 1
 556 376 l 1
 526 202 l 1
 319 202 l 1
543 700 m 1
 747 700 l 1
 626 0 l 1
 423 0 l 1
 543 700 l 1
358 700 m 1
 318 480 l 1
 308 409 344 374 407 374 c 1
 319 202 l 1
 172 202 100 319 118 452 c 1
 160 700 l 1
 358 700 l 1
EndSplineSet
EndChar

StartChar: uni0428
Encoding: 1064 1064 424
Width: 1079
VWidth: 0
Flags: HW
LayerCount: 2
Fore
SplineSet
811 175 m 1
 902 700 l 1
 1098 700 l 1
 978 0 l 1
 48 0 l 1
 168 700 l 1
 363 700 l 1
 274 175 l 1
 448 175 l 1
 539 700 l 1
 726 700 l 1
 636 175 l 1
 811 175 l 1
EndSplineSet
EndChar

StartChar: uni0429
Encoding: 1065 1065 425
Width: 1154
VWidth: 0
Flags: HW
LayerCount: 2
Fore
SplineSet
811 175 m 1
 902 700 l 1
 1098 700 l 1
 1007 175 l 1
 1122 175 l 1
 1068 -143 l 1
 878 -143 l 1
 903 0 l 1
 48 0 l 1
 168 700 l 1
 363 700 l 1
 274 175 l 1
 448 175 l 1
 539 700 l 1
 726 700 l 1
 636 175 l 1
 811 175 l 1
EndSplineSet
EndChar

StartChar: uni042A
Encoding: 1066 1066 426
Width: 737
VWidth: 0
Flags: HW
LayerCount: 2
Fore
SplineSet
328 312 m 1
 353 469 l 1
 478 469 l 2
 645 467 745 382 723 234 c 0
 701 85 586 2 414 0 c 2
 272 0 l 1
 300 158 l 1
 425 158 l 2
 481 158 528 187 538 236 c 0
 547 283 518 310 465 310 c 2
 328 312 l 1
245 526 m 1
 69 526 l 1
 100 700 l 1
 470 700 l 1
 350 0 l 1
 154 0 l 1
 245 526 l 1
EndSplineSet
EndChar

StartChar: uni042B
Encoding: 1067 1067 427
Width: 925
VWidth: 0
Flags: HW
LayerCount: 2
Fore
SplineSet
752 700 m 1
 952 700 l 1
 832 0 l 1
 633 0 l 1
 752 700 l 1
159 700 m 1
 355 700 l 1
 235 0 l 1
 40 0 l 1
 159 700 l 1
217 312 m 1
 242 469 l 1
 367 469 l 2
 534 467 634 382 612 234 c 0
 590 85 476 2 304 0 c 2
 161 0 l 1
 189 158 l 1
 314 158 l 2
 370 158 417 187 427 236 c 0
 436 283 407 310 354 310 c 2
 217 312 l 1
EndSplineSet
EndChar

StartChar: uni042C
Encoding: 1068 1068 428
Width: 627
VWidth: 0
Flags: HW
LayerCount: 2
Fore
SplineSet
159 700 m 1
 355 700 l 1
 235 0 l 1
 40 0 l 1
 159 700 l 1
217 312 m 1
 242 469 l 1
 367 469 l 2
 534 467 634 382 612 234 c 0
 590 85 476 2 304 0 c 2
 161 0 l 1
 189 158 l 1
 314 158 l 2
 370 158 417 187 427 236 c 0
 436 283 407 310 354 310 c 2
 217 312 l 1
EndSplineSet
EndChar

StartChar: uni042D
Encoding: 1069 1069 429
Width: 684
VWidth: 0
Flags: HW
LayerCount: 2
Fore
SplineSet
151 273 m 1
 178 427 l 1
 530 427 l 1
 502 273 l 1
 151 273 l 1
500 350 m 0
 520 457 436 538 331 540 c 0
 242 541 168 500 115 469 c 1
 139 650 l 1
 200 691 268 718 358 718 c 0
 581 718 719 560 689 350 c 0
 658 134 477 -18 249 -18 c 0
 161 -18 99 8 42 51 c 1
 67 231 l 1
 107 194 168 160 250 160 c 0
 360 160 479 238 500 350 c 0
EndSplineSet
EndChar

StartChar: uni042E
Encoding: 1070 1070 430
Width: 1142
VWidth: 0
Flags: HW
LayerCount: 2
Fore
SplineSet
133 278 m 1
 163 453 l 1
 534 453 l 1
 504 278 l 1
 133 278 l 1
159 700 m 1
 355 700 l 1
 235 0 l 1
 40 0 l 1
 159 700 l 1
604 350 m 0
 588 254 625 161 732 160 c 0
 840 159 923 246 942 350 c 0
 958 447 923 539 813 540 c 0
 705 541 623 454 604 350 c 0
398 350 m 0
 428 561 611 718 827 718 c 0
 1041 718 1176 556 1148 350 c 0
 1118 137 939 -27 717 -27 c 0
 499 -27 369 144 398 350 c 0
EndSplineSet
EndChar

StartChar: uni042F
Encoding: 1071 1071 431
Width: 654
VWidth: 0
Flags: HW
LayerCount: 2
Fore
SplineSet
433 307 m 1
 202 0 l 1
 -32 0 l 1
 224 307 l 1
 433 307 l 1
681 700 m 1
 561 0 l 1
 365 0 l 1
 485 700 l 1
 681 700 l 1
530 534 m 1
 405 534 l 2
 349 534 303 505 293 456 c 0
 284 410 311 381 364 380 c 1
 505 379 l 1
 479 231 l 1
 338 231 l 1
 172 233 72 323 93 466 c 0
 114 610 232 698 402 700 c 1
 560 700 l 1
 530 534 l 1
EndSplineSet
EndChar

StartChar: uni0430
Encoding: 1072 1072 432
Width: 612
VWidth: 0
Flags: HW
LayerCount: 2
Fore
SplineSet
442 460 m 1
 615 460 l 1
 535 0 l 1
 364 0 l 1
 442 460 l 1
41 230 m 0
 59 368 167 470 287 470 c 0
 411 470 463 356 447 230 c 0
 429 98 339 -10 216 -10 c 0
 95 -10 25 97 41 230 c 0
221 230 m 0
 213 179 238 128 291 127 c 0
 341 126 393 174 402 230 c 0
 410 282 382 331 334 333 c 0
 280 335 230 285 221 230 c 0
EndSplineSet
EndChar

StartChar: uni0431
Encoding: 1073 1073 433
Width: 608
VWidth: 0
Flags: HW
LayerCount: 2
Fore
SplineSet
346 330 m 1
 384 469 l 1
 525 469 613 366 596 230 c 0
 578 89 458 -10 302 -10 c 0
 131 -10 56 111 56 247 c 1
 239 211 l 1
 239 166 264 131 310 131 c 0
 362 131 409 176 418 231 c 0
 428 290 396 330 346 330 c 1
167 231 m 1
 187 369 258 469 384 469 c 1
 346 330 l 1
 293 330 239 291 239 211 c 1
 167 231 l 1
56 247 m 1
 56 438 143 595 300 664 c 0
 379 699 435 726 464 780 c 1
 632 779 l 1
 604 681 517 611 411 566 c 0
 303 521 223 439 216 332 c 1
 234 211 l 1
 56 247 l 1
EndSplineSet
EndChar

StartChar: uni0432
Encoding: 1074 1074 434
Width: 530
VWidth: 0
Flags: HW
LayerCount: 2
Fore
SplineSet
181 240 m 1
 346 240 l 2
 430 239 508 214 498 124 c 0
 489 50 429 0 339 0 c 2
 140 0 l 1
 159 103 l 1
 283 103 l 2
 313 103 336 122 341 144 c 0
 345 165 333 181 306 181 c 2
 173 182 l 1
 181 240 l 1
181 220 m 1
 189 283 l 1
 305 283 l 2
 328 283 348 300 353 321 c 0
 356 339 346 357 327 357 c 2
 201 357 l 1
 220 460 l 1
 374 460 l 2
 453 459 526 421 515 334 c 0
 505 256 427 222 348 220 c 2
 181 220 l 1
122 460 m 1
 289 460 l 1
 210 0 l 1
 43 0 l 1
 122 460 l 1
EndSplineSet
EndChar

StartChar: uni0433
Encoding: 1075 1075 435
Width: 355
VWidth: 0
Flags: HW
LayerCount: 2
Fore
SplineSet
103 460 m 1
 410 460 l 1
 385 319 l 1
 249 319 l 1
 194 0 l 1
 24 0 l 1
 103 460 l 1
EndSplineSet
EndChar

StartChar: uni0434
Encoding: 1076 1076 436
Width: 698
VWidth: 0
Flags: HW
LayerCount: 2
Fore
SplineSet
368 259 m 1
 232 31 l 1
 70 74 l 1
 402 498 l 1
 589 69 l 1
 425 28 l 1
 368 259 l 1
470 0 m 1
 177 0 l 1
 161 -90 l 1
 -7 -90 l 1
 32 133 l 1
 654 133 l 1
 615 -90 l 1
 453 -90 l 1
 470 0 l 1
EndSplineSet
EndChar

StartChar: uni0435
Encoding: 1077 1077 437
Width: 576
VWidth: 0
Flags: HW
LayerCount: 2
Fore
SplineSet
132 194 m 1
 145 282 l 1
 380 283 l 1
 380 324 371 356 327 358 c 0
 269 361 233 308 221 251 c 1
 214 230 l 1
 206 164 223 115 278 111 c 0
 325 108 362 133 387 162 c 1
 544 129 l 1
 487 44 401 -10 278 -10 c 0
 116 -10 22 89 41 230 c 0
 43 247 47 263 52 279 c 0
 89 395 193 470 337 470 c 0
 493 470 575 380 559 238 c 0
 557 226 555 211 552 194 c 1
 132 194 l 1
EndSplineSet
EndChar

StartChar: uni0436
Encoding: 1078 1078 438
Width: 918
VWidth: 0
Flags: HW
LayerCount: 2
Fore
SplineSet
751 460 m 1
 959 460 l 1
 729 262 l 1
 889 0 l 1
 702 0 l 1
 532 277 l 1
 751 460 l 1
594 460 m 1
 515 0 l 1
 350 0 l 1
 428 460 l 1
 594 460 l 1
259 460 m 1
 425 263 l 1
 173 0 l 1
 -35 0 l 1
 227 275 l 1
 75 460 l 1
 259 460 l 1
EndSplineSet
EndChar

StartChar: uni0437
Encoding: 1079 1079 439
Width: 540
VWidth: 0
Flags: HW
LayerCount: 2
Fore
SplineSet
286 229 m 1
 296 288 l 1
 319 290 345 300 349 321 c 0
 351 337 338 348 318 348 c 0
 293 348 273 328 268 301 c 1
 111 303 l 1
 130 404 212 470 325 470 c 0
 430 470 522 416 510 333 c 0
 498 249 399 230 286 229 c 1
260 -10 m 0
 135 -10 58 52 55 162 c 1
 212 161 l 1
 220 130 236 109 269 109 c 0
 306 109 335 129 339 157 c 0
 344 188 316 199 282 201 c 1
 291 260 l 1
 401 258 509 228 496 134 c 0
 484 38 370 -10 260 -10 c 0
EndSplineSet
EndChar

StartChar: uni0438
Encoding: 1080 1080 440
Width: 587
VWidth: 0
Flags: HW
LayerCount: 2
Fore
SplineSet
558 310 m 1
 13 -44 l 1
 55 150 l 1
 600 504 l 1
 558 310 l 1
269 460 m 1
 209 111 l 1
 13 -44 l 1
 103 460 l 1
 269 460 l 1
600 504 m 1
 510 0 l 1
 344 0 l 1
 404 349 l 1
 600 504 l 1
EndSplineSet
EndChar

StartChar: uni0439
Encoding: 1081 1081 441
Width: 587
VWidth: 0
Flags: HW
LayerCount: 2
Fore
SplineSet
558 310 m 1
 13 -44 l 1
 55 150 l 1
 600 504 l 1
 558 310 l 1
269 460 m 1
 209 111 l 1
 13 -44 l 1
 103 460 l 1
 269 460 l 1
600 504 m 1
 510 0 l 1
 344 0 l 1
 404 349 l 1
 600 504 l 1
216 697 m 1
 319 697 l 1
 320 666 336 645 366 643 c 0
 396 641 423 666 431 696 c 1
 540 696 l 1
 523 612 460 549 360 549 c 0
 261 549 212 611 216 697 c 1
EndSplineSet
EndChar

StartChar: uni043A
Encoding: 1082 1082 442
Width: 605
VWidth: 0
Flags: HW
LayerCount: 2
Fore
SplineSet
101 460 m 1
 268 460 l 1
 188 0 l 1
 22 0 l 1
 101 460 l 1
419 460 m 1
 635 460 l 1
 403 264 l 1
 564 0 l 1
 374 0 l 1
 205 277 l 1
 419 460 l 1
EndSplineSet
EndChar

StartChar: uni043B
Encoding: 1083 1083 443
Width: 624
VWidth: 0
Flags: HW
LayerCount: 2
Fore
SplineSet
602 460 m 1
 523 0 l 1
 356 0 l 1
 409 302 l 1
 270 302 l 1
 246 160 l 1
 223 41 139 2 -16 0 c 1
 5 155 l 1
 45 158 76 166 86 210 c 1
 130 460 l 1
 602 460 l 1
EndSplineSet
EndChar

StartChar: uni043C
Encoding: 1084 1084 444
Width: 652
VWidth: 0
Flags: HW
LayerCount: 2
Fore
SplineSet
452 0 m 1
 448 307 l 1
 566 503 l 1
 621 0 l 1
 452 0 l 1
295 158 m 1
 566 503 l 1
 538 271 l 1
 295 -33 l 1
 295 158 l 1
295 -33 m 1
 155 286 l 1
 201 496 l 1
 353 143 l 1
 295 -33 l 1
-28 0 m 1
 201 496 l 1
 252 290 l 1
 149 0 l 1
 -28 0 l 1
EndSplineSet
EndChar

StartChar: uni043D
Encoding: 1085 1085 445
Width: 611
VWidth: 0
Flags: HW
LayerCount: 2
Fore
SplineSet
100 180 m 1
 121 305 l 1
 496 305 l 1
 475 180 l 1
 100 180 l 1
447 460 m 1
 614 460 l 1
 535 0 l 1
 368 0 l 1
 447 460 l 1
102 460 m 1
 269 460 l 1
 189 0 l 1
 23 0 l 1
 102 460 l 1
EndSplineSet
EndChar

StartChar: uni043E
Encoding: 1086 1086 446
Width: 584
VWidth: 0
Flags: HW
LayerCount: 2
Fore
SplineSet
40 230 m 0
 60 374 188 471 338 471 c 0
 485 471 589 372 570 230 c 0
 550 86 423 -10 273 -10 c 0
 126 -10 21 88 40 230 c 0
217 229 m 0
 209 179 232 132 282 131 c 0
 334 130 383 176 393 231 c 0
 401 281 378 328 328 329 c 0
 276 330 227 284 217 229 c 0
EndSplineSet
EndChar

StartChar: uni043F
Encoding: 1087 1087 447
Width: 572
VWidth: 0
Flags: HW
LayerCount: 2
Fore
SplineSet
575 460 m 1
 496 0 l 1
 329 0 l 1
 383 311 l 1
 243 311 l 1
 189 0 l 1
 22 0 l 1
 102 460 l 1
 575 460 l 1
EndSplineSet
EndChar

StartChar: uni0440
Encoding: 1088 1088 448
Width: 589
VWidth: 0
Flags: HW
LayerCount: 2
Fore
SplineSet
160 -220 m 1
 -15 -220 l 1
 102 460 l 1
 276 460 l 1
 160 -220 l 1
599 230 m 0
 582 87 475 -18 353 -18 c 0
 222 -18 184 104 199 230 c 0
 216 362 293 477 421 478 c 0
 543 479 615 368 599 230 c 0
417 231 m 0
 425 282 398 323 347 325 c 0
 298 327 246 285 237 229 c 0
 229 177 256 137 304 135 c 0
 357 133 408 177 417 231 c 0
EndSplineSet
EndChar

StartChar: uni0441
Encoding: 1089 1089 449
Width: 479
VWidth: 0
Flags: HW
LayerCount: 2
Fore
SplineSet
217 229 m 0
 207 171 241 128 300 126 c 0
 352 124 402 152 438 188 c 1
 417 26 l 1
 379 4 336 -10 275 -10 c 0
 127 -10 20 87 39 230 c 0
 59 376 188 470 341 470 c 0
 402 470 443 455 481 435 c 1
 460 272 l 1
 435 313 393 334 349 334 c 0
 287 334 229 287 217 229 c 0
EndSplineSet
EndChar

StartChar: uni0442
Encoding: 1090 1090 450
Width: 338
VWidth: 0
Flags: HW
LayerCount: 2
Fore
SplineSet
54 460 m 1
 389 460 l 1
 364 319 l 1
 29 319 l 1
 54 460 l 1
134 440 m 1
 302 440 l 1
 226 0 l 1
 59 0 l 1
 134 440 l 1
EndSplineSet
EndChar

StartChar: uni0443
Encoding: 1091 1091 451
Width: 531
VWidth: 0
Flags: HW
LayerCount: 2
Fore
SplineSet
599 460 m 1
 191 -220 l 1
 16 -220 l 1
 167 33 l 1
 40 460 l 1
 223 460 l 1
 304 87 l 1
 212 89 l 1
 420 460 l 1
 599 460 l 1
EndSplineSet
EndChar

StartChar: uni0444
Encoding: 1092 1092 452
Width: 671
VWidth: 0
Flags: HW
LayerCount: 2
Fore
SplineSet
324 560 m 1
 487 560 l 1
 373 -100 l 1
 211 -100 l 1
 324 560 l 1
40 230 m 0
 62 384 203 471 381 471 c 0
 552 471 679 383 657 230 c 0
 635 76 494 -10 316 -10 c 0
 145 -10 18 77 40 230 c 0
194 230 m 0
 178 161 234 131 324 131 c 0
 420 130 487 160 503 230 c 0
 519 299 463 329 373 329 c 0
 277 330 210 300 194 230 c 0
EndSplineSet
EndChar

StartChar: uni0445
Encoding: 1093 1093 453
Width: 550
VWidth: 0
Flags: HW
LayerCount: 2
Fore
SplineSet
404 460 m 1
 600 460 l 1
 382 232 l 1
 531 0 l 1
 347 0 l 1
 278 123 l 1
 180 0 l 1
 -23 0 l 1
 205 245 l 1
 65 460 l 1
 256 460 l 1
 312 354 l 1
 404 460 l 1
EndSplineSet
EndChar

StartChar: uni0446
Encoding: 1094 1094 454
Width: 619
VWidth: 0
Flags: HW
LayerCount: 2
Fore
SplineSet
528 141 m 1
 607 141 l 1
 564 -107 l 1
 398 -107 l 1
 417 0 l 1
 23 0 l 1
 102 460 l 1
 277 460 l 1
 222 141 l 1
 353 141 l 1
 408 460 l 1
 583 460 l 1
 528 141 l 1
EndSplineSet
EndChar

StartChar: uni0447
Encoding: 1095 1095 455
Width: 549
VWidth: 0
Flags: HW
LayerCount: 2
Fore
SplineSet
220 108 m 1
 290 248 l 1
 394 248 l 1
 369 108 l 1
 220 108 l 1
369 460 m 1
 544 460 l 1
 465 0 l 1
 290 0 l 1
 369 460 l 1
272 460 m 1
 245 311 l 2
 237 267 254 248 290 248 c 1
 220 108 l 1
 86 108 59 205 76 328 c 2
 98 460 l 1
 272 460 l 1
EndSplineSet
EndChar

StartChar: uni0448
Encoding: 1096 1096 456
Width: 829
VWidth: 0
Flags: HW
LayerCount: 2
Fore
SplineSet
494 141 m 1
 609 141 l 1
 665 460 l 1
 832 460 l 1
 752 0 l 1
 23 0 l 1
 102 460 l 1
 269 460 l 1
 213 141 l 1
 328 141 l 1
 383 460 l 1
 550 460 l 1
 494 141 l 1
EndSplineSet
EndChar

StartChar: uni0449
Encoding: 1097 1097 457
Width: 867
VWidth: 0
Flags: HW
LayerCount: 2
Fore
SplineSet
494 141 m 1
 608 141 l 1
 664 460 l 1
 831 460 l 1
 776 141 l 1
 853 141 l 1
 811 -107 l 1
 646 -107 l 1
 665 0 l 1
 23 0 l 1
 102 460 l 1
 269 460 l 1
 213 141 l 1
 328 141 l 1
 383 460 l 1
 550 460 l 1
 494 141 l 1
EndSplineSet
EndChar

StartChar: uni044A
Encoding: 1098 1098 458
Width: 604
VWidth: 0
Flags: HW
LayerCount: 2
Fore
SplineSet
266 204 m 1
 283 310 l 1
 415 311 l 2
 505 311 574 262 563 167 c 0
 552 72 472 0 378 0 c 2
 228 0 l 1
 253 131 l 1
 352 131 l 2
 376 131 399 146 404 169 c 0
 408 188 393 203 373 203 c 2
 266 204 l 1
158 319 m 1
 29 319 l 1
 54 460 l 1
 341 460 l 1
 262 0 l 1
 104 0 l 1
 158 319 l 1
EndSplineSet
EndChar

StartChar: uni044B
Encoding: 1099 1099 459
Width: 777
VWidth: 0
Flags: HW
LayerCount: 2
Fore
SplineSet
604 460 m 1
 780 460 l 1
 700 0 l 1
 526 0 l 1
 604 460 l 1
102 460 m 1
 277 460 l 1
 197 0 l 1
 23 0 l 1
 102 460 l 1
198 204 m 1
 215 310 l 1
 348 311 l 2
 438 311 507 262 496 167 c 0
 485 72 404 0 310 0 c 2
 160 0 l 1
 184 131 l 1
 284 131 l 2
 308 131 330 146 335 169 c 0
 339 188 325 203 305 203 c 2
 198 204 l 1
EndSplineSet
EndChar

StartChar: uni044C
Encoding: 1100 1100 460
Width: 547
VWidth: 0
Flags: HW
LayerCount: 2
Fore
SplineSet
109 460 m 1
 285 460 l 1
 206 0 l 1
 31 0 l 1
 109 460 l 1
206 204 m 1
 223 310 l 1
 355 311 l 2
 445 311 515 262 504 167 c 0
 493 72 412 0 318 0 c 2
 168 0 l 1
 193 131 l 1
 291 131 l 2
 315 131 339 146 344 169 c 0
 348 188 335 203 313 203 c 2
 206 204 l 1
EndSplineSet
EndChar

StartChar: uni044D
Encoding: 1101 1101 461
Width: 483
VWidth: 0
Flags: HW
LayerCount: 2
Fore
SplineSet
120 284 m 1
 409 284 l 1
 378 176 l 1
 101 176 l 1
 120 284 l 1
291 230 m 0
 301 297 276 356 212 359 c 0
 165 361 110 334 74 298 c 1
 92 436 l 1
 130 455 173 470 233 470 c 0
 381 470 488 373 469 230 c 0
 449 84 320 -10 167 -10 c 0
 106 -10 64 4 26 27 c 1
 45 164 l 1
 69 123 106 100 154 100 c 0
 222 100 278 152 291 230 c 0
EndSplineSet
EndChar

